<svg width="2759" height="2018" viewBox="0 0 2759 2018" fill="none" xmlns="http://www.w3.org/2000/svg">
<path d="M1780.1 0.546489L1771.82 0.727346L1779.5 3.97538C1789.99 8.38382 1786.88 8.91569 1741.72 10.4124C1709.61 11.4767 1702.67 10.9568 1703.97 7.57036C1705.09 4.67373 1702.87 3.4162 1696.57 3.4162C1689.8 3.4162 1687.96 4.58798 1689.29 8.04095C1690.7 11.7298 1688.11 12.7039 1676.16 12.8853C1667.95 13.0063 1651.76 13.7871 1640.19 14.6035C1624.28 15.7282 1619.71 15.2074 1621.44 12.3833C1623.18 9.57743 1618.63 9.13563 1602.54 10.5083C1533.01 16.4528 1524.25 17.856 1530.82 22.0407C1533.63 23.8307 1528.2 24.1509 1516 22.9173C1498.91 21.1878 1496.94 21.533 1498.66 26.014C1499.74 28.832 1499.08 31.0743 1497.19 31.0743C1495.32 31.0743 1493.82 29.5879 1493.82 27.7617C1493.82 23.0932 1472.12 26.4064 1468.91 31.5707C1466.96 34.6911 1465.02 34.8542 1460.88 32.2886C1457.87 30.42 1451.94 29.3988 1447.72 29.943C1425.05 32.9787 1420.01 34.5937 1422.13 38.1314C1423.82 40.9494 1423.24 40.9433 1419.72 38.1314C1416.1 35.1985 1411.59 35.391 1398.41 39.0375C1383.62 43.1254 1351.64 49.3793 1340.97 50.2561C1338.86 50.4376 1337.81 51.2243 1338.63 52.0407C1339.44 52.8631 1337.71 55.3776 1334.78 57.603C1331.04 60.4512 1323.5 61.1357 1309.47 59.9504C1296.44 58.8498 1290.95 59.2998 1293.66 61.2016C1297.58 63.9652 1287.78 66.4814 1260.31 69.796C1244.56 71.6948 1231.04 74.7297 1228.06 77.045C1226.37 78.3633 1215.32 81.2188 1203.5 83.3897C1191.67 85.5607 1173 90.5786 1162.03 94.5456C1151.06 98.5126 1139.62 101.765 1136.59 101.765C1133.57 101.765 1127.66 104.008 1123.5 106.735C1119.13 109.595 1115.94 110.297 1115.94 108.392C1115.94 104.667 1074.9 117.343 1056.97 126.611C1050.72 129.84 1043.56 132.483 1041.06 132.483C1031.31 132.483 906.822 174.2 871.718 189.233C864.96 192.13 841.465 201.812 819.5 210.733C797.535 219.653 762.961 234.91 742.686 244.64C722.411 254.368 696.14 266.928 684.312 272.577C672.486 278.225 660.751 284.214 658.217 285.858C655.683 287.503 649.847 290.623 645.251 292.827C603.723 312.697 526.03 355.591 493.874 376.39C383.083 448.047 315.594 499.052 323.937 504.857C326.725 506.792 326.047 507.131 321.686 505.922C317.664 504.803 311.543 506.986 304.781 511.951C282.503 528.305 191.948 615.459 177.342 634.607C172.474 640.988 164.433 650.56 159.469 655.857C132.993 684.084 98.2026 733.032 73.0914 777.389C23.7648 864.524 1.16376 949.253 0.311479 1050.26C-0.111828 1098.36 3.05666 1137.19 6.87398 1131.01C8.40847 1128.53 9.76459 1129.62 10.9986 1134.34C12.0266 1138.21 12.213 1142.03 11.4212 1142.81C10.6408 1143.59 9.98175 1142.8 9.98175 1140.63C9.98175 1138.63 8.57899 1137.06 6.85552 1137.06C3.27631 1137.06 4.20578 1142.08 15.293 1183.16C25.0102 1219.18 27.9293 1225.56 32.0112 1219.65C34.1088 1216.63 34.3948 1217.36 33.0096 1222.31C31.7037 1226.97 32.4049 1229.26 35.1319 1229.29C37.872 1229.29 38.0773 1230.07 35.7888 1231.59C33.9331 1232.86 32.4335 1236.61 32.4467 1239.99C32.4467 1246.6 44.8782 1268.58 51.6341 1273.99C53.9018 1275.8 56.3932 1280.91 57.1963 1285.33C60.3655 1302.8 106.935 1363.09 145.633 1399.83C190.279 1442.23 272.786 1502.83 285.54 1502.59C286.89 1502.59 285.904 1501.07 283.383 1499.26C279.288 1496.36 279.288 1496.18 283.383 1497.39C285.917 1498.17 287.652 1500.29 287.229 1502.22C286.806 1504.1 298.904 1511.89 314.073 1519.5C343.444 1534.26 352.231 1537.2 337.166 1527.22C325.309 1519.38 328.309 1519.45 346.884 1527.22C355.049 1530.79 365.037 1534.96 369.072 1536.53C373.105 1538.11 375.7 1540.1 374.854 1540.95C374.007 1541.8 369.325 1540.95 364.447 1539.14C358.95 1537.08 356.755 1536.96 358.665 1539.14C363.118 1543.67 403.998 1558.6 401.7 1554.88C398.984 1550.47 406.125 1551.25 417.01 1556.46L426.228 1560.87L415.48 1559.36L404.73 1557.91L415.48 1562.08C421.393 1564.38 429.696 1567.16 433.916 1568.33L441.603 1570.45L433.916 1565.79C423.999 1559.8 427.532 1559.8 448.042 1565.79C466.155 1571.05 470.694 1575.04 454.665 1571.6C433.369 1567.06 449.798 1573.53 486.293 1584.13C512.016 1591.58 528.326 1594.71 536.072 1593.72C543.658 1592.75 546.916 1593.11 545.604 1595.47C544.329 1597.53 546.482 1598.13 551.633 1597.16C556.061 1596.32 559.025 1596.56 558.226 1597.95C557.428 1599.22 570.281 1602.55 586.76 1605.33C629.885 1612.59 630.519 1612.65 630.572 1608.9C630.572 1607.02 631.829 1607.45 633.323 1609.74C634.816 1612.1 638.233 1613.19 640.884 1612.16C643.534 1611.13 646.551 1611.56 647.602 1613.43C648.849 1615.43 650.953 1615.25 653.697 1612.83C656.009 1610.89 659.396 1610.29 661.229 1611.44C669.897 1616.82 758.322 1622.12 765.448 1617.72C767.037 1616.75 769.088 1617.12 770.006 1618.63C770.927 1620.14 780.34 1621.41 790.945 1621.53C820.019 1621.53 820.245 1622.13 824.599 1626.19C829.473 1630.96 844.397 1632.64 879.288 1632.17C896.324 1632.17 906.206 1633.08 907.789 1635.44C909.537 1638.04 911.067 1637.62 913.353 1633.75C915.096 1630.78 917.847 1628.36 919.445 1628.36C921.054 1628.36 922.48 1630.78 922.601 1633.75C922.715 1636.71 923.502 1637.56 924.288 1635.62C925.214 1633.38 929.223 1632.9 935.571 1634.29C946.093 1636.59 1006.94 1635.68 1013.7 1633.08C1015.92 1632.23 1031.88 1630.72 1049.16 1629.75C1066.44 1628.73 1087.5 1626.73 1095.94 1625.22C1104.39 1623.71 1121.68 1621.65 1134.35 1620.56C1147.02 1619.47 1171.21 1615.42 1188.1 1611.56C1205 1607.69 1229.87 1602.19 1243.38 1599.34C1256.9 1596.5 1270.45 1592.82 1273.48 1591.18C1276.51 1589.55 1280.27 1589.01 1281.85 1589.97C1283.44 1590.94 1294.78 1589.97 1307.07 1587.19C1319.36 1584.65 1336.55 1582.17 1345.26 1581.69C1353.97 1581.09 1360.45 1579.7 1359.67 1578.43C1358.07 1575.83 1359.36 1575.7 1393.92 1574.86C1407.43 1574.25 1421.85 1573.1 1425.94 1571.71L1433.38 1569.23L1426.41 1565.48C1419.88 1561.98 1420.51 1561.43 1436.7 1556.86L1453.91 1551.96L1463.6 1560.77C1471.46 1567.96 1472.57 1570.47 1469.57 1574.09C1466.58 1577.72 1467.33 1579.65 1473.54 1584.56C1477.76 1587.88 1485.43 1592.33 1490.57 1594.46C1495.71 1596.58 1499.91 1599.42 1499.91 1600.71C1499.91 1605.06 1509.86 1606.97 1514.13 1603.43C1518.4 1599.86 1518.5 1600.04 1519.6 1612.02C1519.79 1614.02 1528.78 1621.4 1539.57 1628.37C1554.74 1638.18 1559.75 1640.14 1561.79 1636.99C1563.76 1633.91 1564.88 1634.63 1566.29 1639.77C1567.53 1644.31 1574.1 1649.4 1585.5 1654.72C1610.38 1666.32 1661.64 1692.11 1679.82 1702.18C1688.37 1706.9 1704.6 1713.79 1715.88 1717.43C1727.17 1721.06 1737.17 1725.31 1738.1 1726.81C1740.95 1731.4 1785.44 1749.56 1842.44 1769.37C1857.65 1774.63 1874.22 1780.88 1879.28 1783.22C1884.35 1785.57 1898.89 1792.28 1911.57 1798.15C1981.44 1830.53 2061.82 1860.66 2069.97 1857.53C2075.68 1855.35 2084.04 1858.56 2081.85 1862.12C2080.22 1864.79 2084.35 1866.06 2091.63 1865.21C2093.52 1865.21 2096.79 1866.9 2098.91 1869.44C2101.03 1871.98 2105.93 1874.1 2109.82 1874.1C2113.7 1874.1 2120.78 1876.1 2125.57 1878.51C2150.76 1891.33 2163.58 1895.4 2172.88 1893.54C2180.66 1891.97 2181.6 1891.06 2177.63 1888.82C2174.9 1887.31 2172.66 1884.59 2172.66 1882.84C2172.66 1876.68 2218.38 1887.07 2239 1897.96C2242.23 1899.65 2261.44 1906.82 2281.72 1913.87C2328.56 1930.15 2358.85 1941.26 2371.75 1946.87C2389.82 1954.74 2416.31 1963.19 2417.9 1961.59C2418.76 1960.74 2422.56 1962.2 2426.31 1964.55C2430.07 1967.03 2439.17 1969.27 2446.53 1969.63C2453.89 1970.24 2461.43 1971.45 2463.28 1972.84C2465.29 1974.35 2469.5 1972.84 2473.65 1969.33C2481.22 1962.76 2488.61 1964.01 2482.91 1970.84C2480.29 1973.99 2480.93 1975.74 2485.63 1978.25C2494.62 1983.09 2501.1 1982.3 2494.38 1977.16C2489.46 1973.41 2489.91 1973.05 2498.97 1973.66C2504.51 1974.26 2512.86 1975.23 2517.5 1976.38C2522.15 1977.52 2529.37 1979.16 2533.54 1980C2538.68 1981.09 2540.54 1983.03 2539.35 1986.12C2538.24 1989.03 2539.42 1990.72 2542.53 1990.72C2545.25 1990.72 2547.47 1989.33 2547.47 1987.63C2547.47 1985.94 2548.95 1984.55 2550.75 1984.55C2552.57 1984.55 2553.61 1988.18 2553.06 1992.65C2552.03 2001.14 2552.7 2001.8 2573.56 2011.81C2580.32 2015.01 2589.31 2017.73 2593.53 2017.79C2597.73 2017.87 2599.49 2017.19 2597.38 2016.34C2595.22 2015.49 2593.53 2009.53 2593.53 2002.78V1990.74H2610.81C2625.28 1990.74 2627.5 1990.02 2624.5 1986.45C2621.72 1983.12 2621.83 1981.79 2624.86 1980.52C2627.98 1979.25 2627.84 1978.23 2624.32 1975.75C2621.83 1973.99 2619.04 1973.75 2618.13 1975.14C2617.22 1976.59 2613.19 1974.11 2609.16 1969.64C2605.13 1965.1 2602.21 1960.83 2602.63 1960.14C2603.05 1959.41 2595.31 1953.6 2585.41 1947.14C2562.72 1932.32 2557.51 1928.79 2549.38 1922.74C2542.89 1917.9 2524.74 1910.73 2518.98 1910.73C2517.2 1910.73 2517.29 1912.3 2519.28 1914.66C2521.76 1917.63 2521.11 1918.65 2516.65 1918.65C2513.4 1918.65 2510.08 1916.84 2509.25 1914.66C2508.41 1912.49 2509.06 1910.73 2510.72 1910.73C2514.65 1910.73 2514.59 1902.42 2510.64 1899.99C2508.96 1898.96 2504.69 1897.57 2501.17 1896.84C2497.65 1896.18 2492.24 1894.79 2489.14 1893.82C2484.57 1892.37 2483.82 1893.21 2485.17 1898.47C2486.3 1902.77 2488.52 1904.34 2491.83 1903.19C2495.41 1901.98 2495.16 1902.59 2490.92 1906.09C2486.67 1909.36 2483.93 1909.72 2481.08 1907.36C2478.91 1905.55 2473.37 1903.68 2468.77 1903.19C2464.16 1902.59 2458.48 1899.68 2456.17 1896.53C2453.86 1893.39 2448.25 1890.73 2443.67 1890.67C2433.27 1890.67 2416.78 1881.89 2414.2 1875.17C2412.69 1871.24 2411.31 1870.87 2407.96 1873.66C2403.36 1877.47 2398.21 1873.05 2401.33 1868.09C2404.1 1863.62 2392.54 1852.87 2382.95 1851L2373.92 1849.24L2382.36 1852.57C2387.01 1854.38 2390.83 1857.17 2390.83 1858.67C2390.83 1860.18 2386.02 1859.27 2380.14 1856.37C2371.83 1852.38 2370.2 1850.32 2372.83 1847.18C2374.69 1844.95 2375.01 1843.13 2373.52 1843.13C2372.03 1843.13 2363.22 1836.92 2353.95 1829.31C2344.69 1821.71 2335.52 1815.47 2333.58 1815.47C2327.86 1815.47 2326.28 1823.92 2331.23 1828.04C2334.77 1830.94 2334.93 1832.39 2331.98 1834.19C2329.69 1835.58 2325.94 1834.19 2322.58 1830.08C2317.27 1823.95 2316.79 1823.9 2312.98 1829.11C2309.16 1834.31 2308.41 1834.31 2296.36 1828.15C2289.41 1824.58 2282.85 1820.29 2281.8 1818.58C2280.74 1816.89 2276.48 1815.43 2272.36 1815.43C2268.23 1815.43 2264.86 1814.29 2264.86 1812.89C2264.86 1809.63 2250.89 1803.18 2243.73 1803.18C2240.73 1803.18 2235.22 1799.91 2231.48 1795.96C2226.97 1791.18 2222.31 1789.19 2217.61 1790.09C2213.63 1790.88 2208.41 1789.3 2205.67 1786.58C2202.99 1783.92 2198.55 1781.68 2195.83 1781.68C2193.1 1781.68 2188.01 1779.02 2184.51 1775.76C2181.02 1772.49 2176.23 1770.56 2173.89 1771.47C2171.54 1772.37 2169.64 1771.54 2169.64 1769.71C2169.64 1767.84 2167.45 1766.32 2164.79 1766.32C2162.14 1766.32 2153.51 1761.85 2145.6 1756.39C2137.7 1750.95 2128.73 1746.94 2125.67 1747.42C2122.61 1748.03 2115.46 1744.76 2109.76 1740.42C2104.07 1736.07 2098.35 1732.51 2097.1 1732.51C2095.86 1732.51 2092.53 1730.4 2089.67 1727.86C2086.81 1725.26 2081.26 1722.54 2077.36 1721.76C2073.45 1721.04 2069.45 1719.28 2068.48 1717.83C2065.46 1713.48 2040.35 1701.61 2037.67 1703.27C2036.26 1704.12 2034.26 1702.6 2033.23 1699.94C2032.19 1697.22 2029.4 1695.77 2027.01 1696.68C2024.63 1697.59 2021.93 1696.68 2021.01 1694.02C2020.07 1691.54 2017.24 1690.45 2014.57 1691.48C2011.55 1692.63 2005.57 1689 1998.14 1681.45C1989.77 1672.95 1967.74 1660.42 1920.61 1637.33C1812.55 1584.37 1792.42 1573.79 1743.23 1544.26C1690.87 1512.83 1638.58 1475.11 1623.33 1457.73C1617.02 1450.55 1611.57 1446.96 1608.67 1448.07C1606.12 1449.04 1604.77 1448.68 1605.64 1447.28C1606.51 1445.89 1602.78 1440.69 1597.36 1435.79C1589.2 1428.42 1588.72 1428.25 1594.42 1434.76C1598.21 1439.11 1601.29 1443.6 1601.29 1444.76C1601.29 1450.14 1594.2 1445.66 1582.58 1433.07C1575.59 1425.49 1568.63 1420.04 1567.1 1420.98C1565.57 1421.89 1565.16 1424 1566.14 1425.57C1569.57 1431.14 1558.18 1432.11 1550.29 1426.97C1544.33 1423.03 1542.7 1419.88 1543.79 1414.15C1545.15 1407.05 1544.54 1406.63 1534.67 1407.96C1528.86 1408.75 1523.37 1410.08 1522.48 1410.99C1521.59 1411.9 1514.77 1410.02 1507.32 1406.82C1493.93 1401.07 1489.51 1402.64 1498.36 1409.96C1504.31 1414.92 1501.11 1419.99 1493.54 1417.59C1489.53 1416.32 1487.63 1416.98 1487.63 1420.31C1487.63 1423.51 1484.59 1424.84 1477.67 1424.66C1465.05 1424.66 1457.78 1426.29 1439.38 1434.81C1431.29 1438.56 1423.62 1441.44 1422.35 1441.19C1421.09 1441.19 1420.07 1442.71 1420.07 1445.13C1420.07 1450.02 1407.05 1455.4 1405.54 1451.11C1405 1449.6 1403.2 1446.33 1401.51 1443.79C1398.81 1439.74 1398.06 1439.8 1395.42 1444.4C1393.66 1447.36 1389.33 1449.18 1385.07 1448.69C1380.82 1448.09 1376.1 1450.21 1373.79 1453.35C1371.18 1456.98 1368.16 1458.01 1364.98 1456.43C1359.16 1453.53 1346.09 1456.43 1345.67 1460.73C1345.48 1462.42 1343.06 1463.39 1340.2 1462.9C1337.34 1462.3 1333.23 1464.17 1331.08 1466.77C1326.79 1471.97 1320.24 1473.35 1323.26 1468.47C1324.34 1466.71 1323.15 1466.17 1320.38 1467.26C1317.77 1468.29 1315.6 1470.4 1315.6 1472.04C1315.6 1473.61 1314.4 1474.21 1312.94 1473.31C1311.49 1472.4 1300.08 1473.91 1287.6 1476.45C1275.12 1479.05 1260.08 1481.77 1254.16 1482.44C1231.55 1485.1 1223.56 1487.27 1224.26 1490.59C1224.68 1492.47 1220.5 1495.01 1215.01 1496.22C1209.52 1497.43 1205.01 1497.19 1205.01 1495.61C1205.01 1491.68 1189.15 1496.22 1182.57 1501.71C1177.97 1505.7 1176.54 1505.82 1174.42 1502.38C1172.76 1499.71 1169.83 1499.05 1166.16 1500.62C1163.04 1501.95 1154.44 1502.68 1147.07 1502.31C1137.02 1501.71 1134.29 1502.31 1136.07 1505.52C1137.73 1508.18 1136.92 1508.78 1133.42 1507.39C1130.66 1506.37 1127.72 1506.61 1126.88 1508C1126.04 1509.33 1112.46 1511.32 1096.7 1512.35C1067.51 1514.29 1050.76 1512.35 1057.6 1508.3C1062.9 1505.04 1022.71 1501.33 1008.32 1503.76C1001.62 1504.91 994.833 1508.12 993.261 1510.92C990.817 1515.27 989.942 1514.79 987.135 1507.41C985.327 1502.69 982.69 1499.5 981.258 1500.38C978.971 1501.77 955.629 1500.38 874.79 1494.57C778.061 1487.44 636.43 1461.37 543.008 1433.54C541.32 1432.94 533.702 1430.82 526.1 1428.65C518.497 1426.47 508.138 1422.84 503.07 1420.62C474.814 1408.11 436.64 1394.04 429.945 1393.61C425.712 1393.61 423.046 1391.86 424.006 1390.35C424.962 1388.78 423.462 1388.41 420.633 1389.5C417.821 1390.59 415.51 1390.41 415.51 1388.9C415.51 1384.79 397.684 1375.75 396.51 1379.27C395.906 1381.02 393.142 1381.69 390.323 1380.6C387.503 1379.51 385.901 1376.79 386.761 1374.55C388.479 1370.08 377.52 1365.28 372.575 1368.34C370.898 1369.36 364.53 1365.25 358.416 1359.12C351.564 1352.26 345.512 1348.67 342.634 1349.77C340.003 1350.8 335.665 1348.86 332.666 1345.42C329.739 1342.03 326.509 1340.1 325.511 1341.13C323.28 1343.36 304.875 1330.72 299.385 1323.19C297.178 1320.17 293.536 1317.69 291.291 1317.69C289.048 1317.69 286.478 1314.96 285.601 1311.59C284.724 1308.2 280.758 1304.12 276.789 1302.46C266.662 1298.23 262.413 1294.33 242.943 1271.25C212.561 1235.22 194.059 1195.84 181.352 1140.19C172.529 1101.56 171.983 1035.63 180.227 1002.81C189.048 967.682 198.634 938.583 202.789 934.217C204.942 931.974 205.928 928.902 205.009 927.405C204.091 925.912 206.249 921.794 209.822 918.219C213.759 914.282 215.556 909.746 214.388 906.686C213.349 903.917 213.42 902.593 214.63 903.778C215.815 904.963 221.327 897.307 226.849 886.777C245.123 851.914 254.104 836.765 272.724 809.465C282.862 794.601 293.309 779.22 295.94 775.278C302.862 764.9 323.787 741.37 357.973 705.528C374.448 688.252 387.264 672.335 386.442 670.152C385.619 667.969 386.631 666.542 388.721 667.026C393.269 668.024 409.807 654.165 407.847 650.996C405.744 647.592 421.317 632.046 424.722 634.151C430.116 637.489 440.585 629.278 445.284 618.027C448.592 610.112 450.594 608.151 452.41 611.09C454.502 614.476 455.741 614.456 459.533 610.846C472.911 598.186 512.972 566.106 532.129 552.723C537.945 548.659 547.395 540.786 553.128 535.222C558.86 529.659 565.353 525.096 567.565 525.096C569.778 525.096 576.016 520.948 581.44 515.878C586.865 510.81 592.352 506.66 593.598 506.66C594.849 506.66 604.712 500.915 615.535 493.91C700.659 438.784 844.04 363.734 923.847 332.534C938.988 326.614 954.168 319.823 957.565 317.44C960.963 315.057 965.878 313.129 968.472 313.129C971.067 313.129 979.662 309.669 987.595 305.441C995.53 301.22 1004.56 297.754 1007.66 297.754C1010.76 297.754 1018.72 295.009 1025.35 291.629C1031.98 288.249 1040.94 285.473 1045.25 285.473C1049.56 285.473 1058.6 282.54 1065.32 278.942C1080.38 270.865 1109.09 261.093 1118.03 260.972C1121.69 260.897 1125.19 259.335 1125.82 257.442C1126.44 255.549 1132.8 254.073 1139.91 254.194C1147.02 254.315 1152.85 253.245 1152.85 251.848C1152.85 249.109 1173.32 244.061 1179.91 245.192C1182.12 245.554 1189.02 244.193 1195.25 242.095C1201.49 239.996 1208.69 238.055 1211.22 237.752C1213.75 237.45 1225.49 234.378 1237.32 230.847C1249.14 227.315 1264.03 223.491 1270.38 222.348C1276.73 221.205 1285.12 217.746 1289.03 214.66C1297.73 207.802 1314.57 202.956 1311.32 208.223C1308.39 212.964 1310.57 212.794 1348.69 205.065C1368.32 201.086 1383.25 196.401 1385.5 193.535C1388.19 190.1 1389.95 189.731 1391.63 192.223C1393.36 194.781 1408.01 193.407 1446.22 187.161C1474.95 182.462 1516.41 176.31 1538.38 173.504C1560.34 170.698 1582.47 167.881 1587.53 167.224C1592.6 166.559 1607.47 165.053 1620.57 163.88C1635.8 162.519 1644.38 160.415 1644.38 158.069C1644.38 153.642 1653.64 153.061 1658.85 157.161C1661.13 158.957 1679.1 159.26 1704.94 157.941C1770.76 154.585 1782.83 154.084 1801.97 153.721C1811.79 153.539 1819.09 152.153 1818.16 150.659C1817.23 149.159 1819.62 147.333 1823.47 146.595C1831.68 145.029 1838.53 146.838 1836.57 150C1835.81 151.228 1849.69 152.51 1867.44 152.813C1888.46 153.176 1899.06 152.33 1897.82 150.316C1896.66 148.435 1900.8 147.249 1908.38 147.249C1915.24 147.249 1920.85 148.338 1920.85 149.686C1920.85 151.017 1925.86 151.561 1932.01 150.842C1939.76 149.935 1942.52 150.6 1941.04 153.001C1939.6 155.323 1942.58 156.435 1950.04 156.435C1956.15 156.435 1960.46 155.365 1959.63 154.029C1958.8 152.692 1963.22 152.203 1969.44 152.935C1978.5 154.005 1979.52 154.694 1974.6 156.496C1970.51 157.996 1974.79 159.137 1987.38 159.899C1997.79 160.534 2005.64 160.022 2004.85 158.746C2004.07 157.476 2004.93 156.435 2006.7 156.435C2008.49 156.435 2009.95 157.93 2009.95 159.75C2009.95 161.661 2014.44 162.701 2020.51 162.156C2026.34 161.673 2032.11 162.277 2033.32 163.468C2036.66 166.794 2050.51 166.11 2048.42 162.719C2047.42 161.099 2050.36 161.734 2054.98 164.129C2061.14 167.322 2064.44 167.599 2067.42 165.126C2070.45 162.61 2073.01 163.107 2077.45 167.128C2082 171.246 2086.1 172.038 2094.76 170.411C2103.05 168.851 2108.92 169.792 2116.51 173.882C2125.59 178.769 2127.27 178.878 2129.73 174.881C2131.98 171.234 2133.35 171.094 2136.39 174.132C2138.48 176.23 2143.29 177.943 2147.08 177.943C2150.86 177.943 2154.81 179.315 2155.85 181.002C2156.9 182.689 2162.43 184.099 2168.14 184.099C2173.84 184.099 2182.38 185.579 2187.14 187.412C2191.9 189.244 2203.29 191.416 2212.48 192.226C2221.67 193.037 2231.37 194.833 2234.01 196.224C2238.29 198.473 2329.41 229.628 2337.1 231.472C2354.15 235.56 2458.45 288.935 2458.45 293.567C2458.45 294.359 2456.71 294.11 2454.6 293.082C2452.49 292.011 2453.4 293.263 2456.61 295.894C2459.81 298.482 2463.54 299.928 2464.92 299.081C2467.16 297.696 2497.3 316.625 2511.7 328.456C2535.15 347.724 2584.67 403.914 2602.11 431.051C2644.13 496.447 2651.61 545.416 2633.7 638.27C2631.97 647.313 2631.3 657.854 2632.26 661.676C2633.44 666.363 2632.45 669.224 2629.13 670.488C2622.03 673.215 2617.49 686.976 2621.32 694.145C2623.79 698.747 2626.52 699.576 2634.13 698.052C2642.78 696.322 2643.53 696.745 2641.32 701.988C2639.97 705.212 2637.14 712.633 2635.01 718.487C2632.88 724.341 2629.59 729.646 2627.73 730.268C2625.86 730.888 2624.35 734.424 2624.35 738.114C2624.35 746.039 2603.05 776.558 2597.35 776.8C2594.4 776.921 2594.19 775.5 2596.57 771.05C2602.31 760.34 2599.71 756.839 2592.29 765.268C2588.29 769.803 2584.21 772.689 2583.2 771.673C2582.18 770.651 2581.22 773.156 2581.1 777.238C2580.99 781.319 2580.14 782.844 2579.26 780.642C2578.06 777.649 2576.59 778.03 2573.45 782.172C2567.54 789.969 2568.05 793.88 2574.32 788.86C2577.91 785.994 2576.99 789.101 2571.51 798.484C2567.08 806.087 2562.06 812.298 2560.36 812.298C2558.65 812.298 2556.11 813.574 2554.7 815.11C2553.22 816.755 2553.75 816.984 2555.98 815.714C2561.27 812.672 2560.85 814.967 2553.71 827.684C2545.47 842.345 2546.12 845.077 2555.21 833.964C2561.08 826.773 2562.99 825.858 2564.42 829.592C2567.05 836.455 2561.41 849.145 2550.74 860.311C2545.61 865.675 2541.39 871.931 2541.39 874.217C2541.39 876.503 2539.44 878.371 2537.05 878.371C2534.66 878.371 2530.34 879.296 2527.46 880.403C2522.68 882.229 2522.7 881.558 2527.88 873.466C2531.01 868.556 2534.81 863.694 2536.32 862.624C2537.81 861.547 2538.45 858.801 2537.69 856.528C2536.8 853.837 2534.27 855.598 2530.47 861.561C2524.56 870.831 2517.82 876.481 2512.22 876.904C2510.51 877.025 2509.58 879.009 2510.06 881.313C2510.61 883.617 2509.82 886.315 2508.38 887.313C2506.93 888.31 2503.46 892.428 2500.72 896.437C2496.89 902.048 2496.54 904.99 2499.16 909.187C2501.96 913.668 2500.86 916.331 2493.03 924.154C2483.71 933.479 2476 937.554 2482.5 929.718C2484.94 926.785 2484.31 924.837 2480.13 922.218C2472.8 917.646 2471.04 919.727 2472.78 930.812C2474.03 938.752 2473.26 939.813 2466.5 939.813C2462.27 939.813 2456.99 942.351 2454.78 945.465C2452.58 948.58 2448.9 951.753 2446.63 952.497C2444.35 953.237 2440.73 958.062 2438.56 963.217C2435.3 970.931 2435.3 972.59 2438.68 972.59C2440.92 972.59 2442.48 971.11 2442.18 969.277C2441.88 967.445 2443.64 965.883 2446.18 965.841C2448.71 965.766 2452.83 964.499 2455.33 962.933C2457.84 961.366 2456.72 964.124 2452.83 969.058C2448.95 973.992 2441.52 979.801 2436.3 981.996C2431.09 984.185 2427.76 986.925 2428.9 988.059C2430.03 989.196 2425.81 995.396 2419.52 1001.84C2410.71 1010.87 2409.33 1013.56 2413.55 1013.56C2416.62 1013.56 2418.44 1015.26 2417.68 1017.41C2416.93 1019.52 2413.44 1020.89 2409.93 1020.53C2399.97 1019.44 2384.64 1027.19 2380.58 1035.34C2378.56 1039.41 2373.89 1043.14 2370.21 1043.69C2366.53 1044.23 2359.37 1049.41 2354.27 1055.22C2349.17 1061.02 2343.75 1065.78 2342.21 1065.78C2340.67 1065.78 2337.73 1067.81 2335.68 1070.28C2333.62 1072.75 2324.44 1079.75 2315.27 1085.84C2306.1 1091.93 2294.82 1100.42 2290.21 1104.72C2285.6 1109.01 2275.65 1116.81 2268.08 1122.03C2254.04 1131.73 2249.75 1135.02 2232.99 1149C2224.06 1156.45 2192.43 1176.19 2167.02 1190.19C2160.88 1193.57 2154.78 1198.07 2153.43 1200.18C2152.08 1202.3 2149.18 1204.05 2146.99 1204.05C2144.8 1204.05 2140.63 1206.66 2137.71 1209.92C2134.79 1213.13 2127.98 1217.56 2122.62 1219.74C2117.25 1221.91 2110.33 1226.52 2107.24 1229.99C2101.76 1236.13 2101.78 1236.33 2108.77 1238.29C2112.7 1239.38 2114.19 1240.47 2112.08 1240.65C2109.97 1240.65 2108.59 1242.59 2109.02 1244.58C2109.44 1246.58 2105.98 1248.57 2101.33 1249C2095.66 1249.6 2092.89 1248.33 2092.89 1245.37C2092.89 1238.48 2082.64 1240.17 2069.52 1249.12C2062.95 1253.65 2026.47 1272.91 1988.46 1291.99C1950.44 1311.07 1921.84 1326.75 1924.89 1326.81C1928.1 1326.81 1929.57 1328.32 1928.39 1330.26C1927.26 1332.07 1922.98 1332.73 1918.86 1331.71C1909.7 1329.41 1902.98 1332.67 1909.02 1336.54C1912.06 1338.48 1912.16 1339.2 1909.32 1339.2C1907.21 1339.2 1905.47 1341.38 1905.47 1344.04C1905.47 1347.43 1903.65 1348.34 1899.57 1347C1895.54 1345.74 1892.15 1347.01 1888.82 1352.09C1886.14 1355.9 1883.97 1357.53 1883.97 1355.59C1883.97 1351.36 1875.27 1347.74 1871.16 1350.27C1868.01 1352.21 1878.82 1364.17 1883.1 1363.46C1884.41 1363.46 1887.92 1363.46 1890.88 1363.46C1896.95 1364.07 1898.36 1369.93 1892.41 1370.05C1885.48 1370.05 1867.51 1387.28 1869.32 1391.99C1871.56 1397.86 1883.69 1396.77 1907 1388.54C1917.14 1384.98 1931.86 1380.02 1939.69 1377.54C1953.39 1373.19 1961.02 1370.02 2008.38 1348.76C2076.65 1318.12 2080.32 1316.16 2080.44 1310.67C2080.52 1307.64 2081.91 1305.95 2083.57 1306.98C2087.94 1309.7 2112 1300.85 2137.41 1287.23C2149.57 1280.71 2162.83 1273.63 2166.88 1271.51C2170.93 1269.4 2176.35 1266.49 2178.88 1265.01C2181.41 1263.56 2187.3 1260.9 2191.94 1259.02C2196.59 1257.21 2200.38 1254.37 2200.38 1252.74C2200.38 1251.17 2201.67 1250.62 2203.26 1251.59C2204.84 1252.56 2207.26 1251.59 2208.64 1249.11C2210.01 1246.76 2215.97 1243.31 2221.88 1241.37C2227.8 1239.43 2237.16 1233.62 2242.67 1228.46C2248.17 1223.32 2255.13 1218.62 2258.13 1218.02C2261.14 1217.41 2268.18 1212.7 2273.79 1207.46C2279.45 1202.2 2287.32 1197.93 2291.51 1197.93C2295.75 1197.93 2298.21 1196.6 2297.13 1194.85C2296.09 1193.15 2297.06 1191.76 2299.32 1191.76C2303.52 1191.76 2326.69 1180.21 2329.42 1176.76C2330.26 1175.67 2341.31 1167.95 2353.98 1159.57C2386.83 1137.86 2404.2 1124.35 2407.91 1117.57C2409.69 1114.31 2412.11 1112.61 2413.29 1113.82C2415.13 1115.7 2415.66 1113.82 2415.35 1107.2C2415.24 1103.75 2423.24 1097.25 2425.73 1098.76C2427.17 1099.61 2426.49 1101.54 2424.2 1102.99C2421.3 1104.81 2421.19 1105.65 2423.78 1105.65C2429.21 1105.73 2449.21 1087.39 2449.21 1082.34C2449.21 1079.98 2450.59 1078.06 2452.27 1078.06C2453.96 1078.06 2455.37 1075.24 2455.37 1071.81C2455.37 1068.37 2457.79 1064.65 2460.75 1063.53C2467.62 1060.92 2472.06 1056.45 2474.72 1049.43C2475.99 1046.06 2478.35 1044.75 2480.68 1046.09C2482.81 1047.3 2483.53 1047.16 2482.27 1045.79C2479.1 1042.28 2485.73 1035.04 2492.12 1035.04C2495.03 1035.04 2499.82 1032.36 2502.77 1029.1C2505.73 1025.83 2510.09 1023.9 2512.46 1024.82C2514.95 1025.77 2516.8 1024.58 2516.8 1022.04C2516.8 1019.59 2523.08 1010.93 2530.77 1002.79C2539.73 993.309 2543.52 987.215 2541.3 985.848C2539.12 984.505 2544.8 976.645 2556.62 964.723C2566.95 954.287 2576.59 946.465 2578.02 947.348C2579.45 948.224 2582.31 946.924 2584.4 944.378C2587.5 940.641 2587.26 939.783 2583.08 939.783C2578.87 939.783 2578.69 939.042 2581.96 935.502C2584.14 933.143 2586.68 931.68 2587.64 932.285C2588.61 932.89 2591.73 930.64 2594.55 927.35C2597.38 924.054 2598.65 921.345 2597.39 921.321C2596.14 921.321 2596.97 920.106 2599.18 918.697C2601.4 917.288 2603.5 914.125 2603.86 911.665C2604.95 904.279 2620.21 889.641 2624.24 892.133C2626.86 893.766 2626.96 895.351 2624.54 897.758C2622.71 899.596 2621.2 902.389 2621.2 903.975C2621.2 905.56 2625.35 901.636 2630.41 895.257C2640.02 883.189 2641.74 879.776 2636.6 882.944C2634.84 884.021 2634.33 882.764 2635.38 880.073C2636.38 877.46 2638.25 875.96 2639.53 876.758C2643.46 879.183 2652.69 866.733 2653.66 857.695C2654.47 850.081 2654.14 849.763 2650.59 854.568C2648.41 857.525 2645.53 859.944 2644.19 859.944C2642.85 859.944 2643.77 857.525 2646.19 854.568C2648.64 851.611 2652.52 845.37 2654.85 840.725C2657.97 834.497 2661.37 832.288 2667.78 832.288C2676.32 832.288 2677.92 829.694 2677.19 816.976C2677.08 814.466 2677.86 811.69 2679 810.82C2680.15 809.949 2682.59 806.483 2684.44 803.1C2686.28 799.72 2689.36 794.199 2691.25 790.818C2699.64 775.847 2706.99 757.346 2705.22 755.725C2704.16 754.751 2702.74 755.484 2702.06 757.353C2701.39 759.227 2698.74 763.375 2696.19 766.571C2691.88 771.959 2691.69 771.608 2693.56 761.63C2694.67 755.716 2698.18 746.553 2701.37 741.286C2704.57 736.019 2707.19 728.85 2707.19 725.348C2707.19 721.847 2708.6 718.114 2710.28 717.068C2714.18 714.649 2714.22 725.076 2710.36 735.286C2707.59 742.579 2707.79 742.876 2713.39 739.381C2716.7 737.313 2719.13 734.193 2718.83 732.476C2717.88 727.317 2722.76 715.536 2725.83 715.536C2727.41 715.536 2728.7 711.528 2728.7 706.6C2728.7 701.672 2730.34 697.084 2732.36 696.413C2734.37 695.74 2736.14 689.452 2736.32 682.443C2736.51 675.435 2737.53 668.833 2738.6 667.757C2739.69 666.68 2739.81 663.831 2738.91 661.443C2737.99 659.055 2738.6 655.379 2740.25 653.286C2744.44 647.935 2747.39 626.444 2743.91 626.444C2740.03 626.444 2740.2 615.024 2744.15 612.599C2745.88 611.535 2746.55 609.491 2745.65 608.034C2744.75 606.576 2745.41 604.503 2747.15 603.438C2749.24 602.15 2749.28 599.598 2747.26 595.844C2745.01 591.641 2745.41 589.738 2748.79 588.438C2751.93 587.235 2753.39 588.862 2753.64 593.53C2753.88 598.846 2754.68 598.137 2757.2 590.282C2759.93 581.773 2759.57 579.556 2754.89 576.127C2751.82 573.896 2750.26 570.581 2751.39 568.751C2752.51 566.919 2751.87 564.481 2750.01 563.314C2748.04 562.099 2747.26 557.104 2748.2 551.595C2749.1 546.31 2749.13 543.705 2748.28 545.815C2745.61 552.289 2741.06 550.06 2741.06 542.283C2741.06 538.244 2743.28 534.105 2745.99 533.065C2749.11 531.868 2750.19 529.249 2748.93 525.971C2747.83 523.123 2746.24 514.512 2745.4 506.815C2744.01 494.148 2729.26 443.531 2722.52 428.314C2721.03 424.934 2718.39 416.636 2716.64 409.878C2714.9 403.119 2710.7 393.066 2707.3 387.533C2703.9 382 2701.14 376.481 2701.18 375.253C2701.29 371.981 2713.21 387.823 2713.39 391.44C2713.47 393.127 2716.25 397.963 2719.55 402.19C2724.04 407.922 2725.56 408.609 2725.61 404.875C2725.61 402.123 2723.62 398.136 2721.08 396.031C2718.55 393.927 2716.49 391.144 2716.49 389.812C2716.49 382.908 2699.39 362.261 2693.64 362.218C2688.41 362.218 2688.11 361.615 2691.9 359.19C2694.97 357.207 2695.24 356.19 2692.68 356.16C2690.57 356.16 2688.83 354.085 2688.83 351.6C2688.83 344.964 2658.97 302.108 2647.77 292.663C2642.47 288.194 2638.57 282.661 2639.05 280.381C2639.59 277.95 2637.33 276.256 2633.61 276.256C2629.84 276.256 2625.83 273.167 2623.77 268.633C2621.86 264.442 2617.41 260.14 2613.86 259.069C2605.96 256.681 2593.58 245.689 2593.58 241.069C2593.58 236.564 2582.34 227.064 2579.89 229.507C2578.84 230.559 2577.26 228.721 2576.36 225.414C2575.47 222.106 2568.83 214.922 2561.61 209.443C2541.67 194.297 2533.61 186.756 2534.39 183.944C2535.34 180.509 2525.04 177.481 2509.77 176.695C2502.87 176.332 2496.66 174.396 2495.99 172.382C2495.32 170.368 2492.71 168.724 2490.18 168.724C2487.64 168.724 2486.14 167.006 2486.83 164.913C2487.53 162.821 2485.22 158.873 2481.71 156.133C2472.67 149.08 2450.28 138.008 2445.05 138.008C2442.63 138.008 2439.92 136.085 2439.02 133.756C2435.32 124.099 2308.16 71.4079 2295.81 74.4134C2292.55 75.2056 2293.83 76.747 2299.87 79.2264C2304.75 81.234 2308.02 83.6361 2307.12 84.5432C2304.75 86.9197 2283.34 82.4982 2283.34 79.6379C2283.34 75.1811 2273.08 73.2523 2270.56 77.2314C2268.75 80.0797 2268.06 79.5784 2268.02 75.4542C2267.95 70.5439 2269.59 70.017 2279.49 71.7042L2290.99 73.6696L2277.62 67.4504C2261.52 59.9639 2261.8 59.9648 2261.8 66.1678C2261.8 69.9352 2260.14 70.6187 2254.9 68.9194C2251.09 67.6676 2242.29 66.8634 2235.3 67.1053C2224.11 67.4681 2222.37 66.6216 2220.65 59.7935C2218.8 52.4159 2211.81 48.1813 2213.43 55.4161C2213.85 57.4056 2208.39 59.4255 2200.37 60.1995C2187.19 61.4695 2186.86 61.3066 2193.21 56.7651C2196.91 54.1467 2202.21 52.8887 2205.15 54.0135C2208.65 55.3621 2210 54.7457 2209.14 52.168C2208.43 50.0334 2202.69 46.5203 2196.39 44.3562C2184.77 40.3589 2151.99 34.992 2146.9 36.2619C2145.36 36.6248 2143.12 35.3845 2141.92 33.4494C2140.73 31.5083 2132.66 29.6885 2123.99 29.4466C2115.31 29.2047 2108.21 27.9047 2108.2 26.6046C2108.2 25.3044 2104.73 25.1055 2100.49 26.1819C2096.23 27.2523 2090.86 26.5444 2088.52 24.5911C2086.12 22.5956 2069.75 20.5628 2050.92 19.9036C2008.12 18.3979 1979.17 15.0783 1979.17 11.6858C1979.17 10.2163 1977.72 9.0006 1975.92 9.0006C1974.12 9.0006 1973.54 10.4094 1974.61 12.1268C1975.85 14.1224 1972.37 14.6801 1964.8 13.5977C1958.34 12.6724 1917.13 11.07 1873.2 10.0359C1810.66 8.56038 1792.81 7.24207 1790.89 3.97353C1789.54 1.68163 1784.67 -0.115179 1780.11 0.00576604L1780.1 0.546489ZM1891.72 3.61182C1889.27 3.61182 1886.79 3.79297 1884.75 4.09533C1880.09 4.79833 1883.18 5.41465 1891.63 5.43884C1900.08 5.43884 1903.88 4.894 1900.1 4.15623C1897.98 3.73293 1894.87 3.55135 1891.72 3.61182ZM1745.16 3.68748C1743.94 3.76307 1742.77 3.92961 1741.85 4.30756C1739.74 5.16022 1741.48 5.86699 1745.69 5.86699C1749.9 5.86699 1751.65 5.1572 1749.54 4.30756C1748.35 3.82378 1746.73 3.62701 1745.17 3.68748H1745.16ZM1652.54 6.74728C1651.05 6.74728 1649.53 6.92886 1648.22 7.29169C1645.23 8.07179 1646.94 8.76112 1652 8.82159C1657.08 8.89718 1659.52 8.21664 1657.44 7.38212C1656.27 6.89834 1654.44 6.69489 1652.54 6.72513V6.74728ZM1953.6 6.74728C1952.12 6.74728 1950.59 6.92886 1949.29 7.29169C1948.16 7.59405 1947.69 7.83577 1947.82 8.10185C1948.18 8.46469 1950.06 8.78195 1953.07 8.81974C1958.14 8.89533 1960.58 8.21479 1958.5 7.38027C1957.33 6.89649 1955.5 6.69305 1953.6 6.72329V6.74728ZM1637.1 9.80707C1636.25 9.88266 1635.37 10.0496 1634.54 10.4124C1632.09 11.392 1632.8 12.1351 1636.38 12.256C1639.62 12.377 1641.43 11.6521 1640.41 10.6302C1639.77 9.98763 1638.51 9.72323 1637.1 9.81999V9.80707ZM2018.04 12.8669C2017.19 12.9425 2016.28 13.1093 2015.44 13.4722C2012.99 14.4518 2013.74 15.1949 2017.32 15.3158C2020.56 15.4367 2022.37 14.7717 2021.35 13.7195C2020.71 13.077 2019.44 12.7835 2018.04 12.8742V12.8669ZM1565.29 19.6803C1568.27 18.9063 1572.39 18.9386 1574.47 19.8003C1576.55 20.6106 1574.11 21.3002 1569.07 21.2398C1564 21.1642 1562.3 20.4915 1565.29 19.7099V19.6803ZM2347.82 95.5237C2349.5 95.5237 2350.88 96.9332 2350.88 98.6204C2350.88 100.308 2349.5 101.68 2347.82 101.68C2346.13 101.68 2344.72 100.308 2344.72 98.6204C2344.72 96.9332 2346.13 95.5237 2347.82 95.5237ZM2374.1 107.96C2377.58 107.885 2383.1 109.86 2386.38 112.34C2393.78 117.933 2389.24 117.909 2377.01 112.34C2369.61 108.953 2369.03 108.118 2374.1 107.997L2374.1 107.96ZM1159.91 112.557C1161.17 112.557 1162 113.04 1162 114.056C1162 115.695 1159.37 117.025 1156.13 117.025C1152.89 117.025 1149.55 118.422 1148.69 120.152C1147.83 121.875 1147.45 121.67 1147.82 119.668C1148.47 116.282 1156.12 112.456 1159.91 112.513V112.557ZM1033.35 154.4C1039.43 155.259 1038.71 156.027 1028.59 159.154C1017.72 162.504 1016.99 162.406 1021.28 158.118C1023.89 155.512 1029.3 153.868 1033.31 154.4H1033.35ZM1013.66 157.085C1014.57 157.448 1013.85 158.658 1012.06 160.835C1007.73 166.114 989.972 173.39 990.033 169.865C990.146 164.289 995.834 159.939 1005.5 158.022C1010.23 157.085 1012.75 156.698 1013.66 157.085ZM866.473 209.74C866.896 210.103 865.493 211.294 862.664 213.586C859.385 216.235 853.931 218.401 850.539 218.401C841.909 218.401 847.956 213.187 859.416 210.744C863.8 209.813 866.05 209.372 866.475 209.747L866.473 209.74ZM801.223 235.366C802.056 235.608 802.596 236.106 802.596 236.926C802.596 238.564 800.503 239.926 797.969 239.926C795.435 239.926 793.374 239.382 793.374 238.705C793.374 238.04 795.435 236.709 797.969 235.735C799.233 235.252 800.382 235.13 801.217 235.372L801.223 235.366ZM770.348 251.929L759.567 258.086C740.342 269.05 721.261 277.784 717.754 277.24C715.868 276.938 712.596 278.777 710.473 281.335C706.888 285.659 695.065 288.007 695.065 284.395C695.065 281.801 751.042 255.906 761.13 253.832L770.348 251.929ZM679.942 290.585C681.841 289.671 684.242 289.599 686.192 290.826C688.564 292.29 688.316 293.742 685.414 295.58C679.928 299.027 676.629 298.965 676.629 295.398C676.629 293.257 678.043 291.498 679.942 290.585ZM664.006 301.429C666.569 302.487 660.076 308.801 645.88 316.242C624.378 327.52 606.472 330.299 623.943 319.647C629.597 316.2 641.004 310.111 649.287 306.114C657.66 302.075 662.464 300.794 664.006 301.429ZM606.379 329.148C608.284 328.785 609.051 329.631 607.751 331.711C606.832 333.199 602.957 335.182 599.127 336.149C592.414 337.837 592.376 337.766 598.128 333.466C601.432 330.999 604.473 329.498 606.379 329.153V329.148ZM590.63 339.523C590.63 340.369 587.854 342.559 584.474 344.367C581.093 346.175 578.349 346.961 578.349 346.115C578.349 345.268 581.095 343.108 584.474 341.3C587.854 339.492 590.63 338.67 590.63 339.523ZM575.256 348.741C575.256 349.588 572.509 351.777 569.13 353.585C565.75 355.393 562.974 356.18 562.974 355.333C562.974 354.486 565.75 352.326 569.13 350.518C572.511 348.71 575.256 347.889 575.256 348.735V348.741ZM550.38 362.054C552.467 361.344 553.756 361.312 553.756 362.174C553.756 363.837 549.28 367.376 543.787 370.051C538.295 372.724 529.634 377.721 524.566 381.144C519.499 384.567 514.245 387.383 512.877 387.394C508.421 387.394 513.737 381.746 522.316 377.331C526.929 374.961 535.887 369.897 542.222 366.081C545.391 364.188 548.292 362.791 550.379 362.084L550.38 362.054ZM503.723 391.617C504.207 391.617 502.852 392.802 500.005 395.118C490.675 402.704 481.928 407.148 484.473 403.024C485.628 401.155 490.967 397.502 496.349 394.898C500.897 392.697 503.234 391.587 503.723 391.617ZM475.257 408.992C476.852 408.916 473.483 412.329 467.753 416.553C462.027 420.774 456.566 424.218 455.628 424.21C452.731 424.21 472.173 409.113 475.257 408.992ZM451.192 425.179C451.872 425.179 451.797 425.791 451.004 426.993C449.86 428.837 446.086 431.874 442.597 433.743C438.032 436.18 436.829 436.18 438.316 433.743C439.459 431.899 443.263 428.862 446.753 426.993C449.034 425.777 450.478 425.155 451.162 425.149L451.192 425.179ZM432.756 437.46C433.436 437.46 433.361 438.072 432.567 439.274C431.424 441.119 427.65 444.155 424.159 446.025C419.594 448.462 418.42 448.462 419.909 446.025C421.051 444.181 424.825 441.145 428.315 439.274C430.596 438.059 432.042 437.435 432.724 437.429L432.756 437.46ZM346.411 501.553C347.354 502.497 344.264 505.708 339.567 508.679L331.037 514.055L337.88 506.961C341.635 503.048 345.467 500.61 346.411 501.553ZM2741.88 520.617C2742.18 520.315 2742.64 520.737 2743.13 521.959C2744.02 524.178 2743.91 526.846 2742.89 527.868C2741.88 528.89 2741.14 527.046 2741.26 523.804C2741.34 522.014 2741.56 520.938 2741.88 520.617ZM443.443 601.711C444.701 601.348 445.057 601.892 444.506 603.337C442.994 607.28 427.819 616.348 427.819 613.306C427.819 612.611 431.95 609.092 437.007 605.494C440.024 603.341 442.184 602.077 443.444 601.715L443.443 601.711ZM409.408 633.647C411.459 634.327 409.167 636.665 404.348 638.836C396.113 642.525 395.877 642.433 400.63 637.583C403.423 634.729 407.358 632.964 409.408 633.647ZM183.567 639.615C184.939 638.744 184.752 640.357 182.314 644.895C180.657 647.991 176.86 652.501 173.876 654.896C170.031 657.986 170.503 656.322 175.473 649.241C179.265 643.835 182.191 640.488 183.567 639.615ZM2653.97 642.398C2654.27 643.233 2654.52 645.374 2654.66 648.68C2654.85 654.691 2653.23 662.029 2651.07 664.992C2647.43 669.975 2647.08 669.865 2646.6 663.431C2646.3 659.603 2647.24 655.01 2648.66 653.244C2650.09 651.478 2651.96 647.251 2652.79 643.869C2653.27 642.012 2653.65 641.564 2653.97 642.398ZM164.566 665.398L159.129 673.836C153.524 682.55 151.319 684.184 151.319 679.677C151.319 678.249 154.307 674.458 157.943 671.239L164.566 665.398ZM2644.25 676.148C2646.96 676.148 2648.36 677.521 2647.32 679.208C2646.27 680.895 2644.91 682.273 2644.25 682.273C2643.6 682.273 2642.24 680.901 2641.19 679.208C2640.15 677.521 2641.5 676.148 2644.25 676.148ZM2743.19 684.023C2741.76 684.265 2738.46 691.449 2738.22 696.085C2738.11 697.772 2739.4 697.089 2741.03 694.555C2742.67 692.021 2743.94 687.87 2743.81 685.337C2743.81 684.351 2743.57 683.958 2743.2 684.025L2743.19 684.023ZM2621.82 710.647C2617.74 710.649 2612.68 716.186 2611.19 723.053C2610.38 726.802 2608.69 732.298 2607.44 735.273C2605.77 739.277 2606.35 740.25 2609.63 738.992C2615.84 736.609 2627.75 713.576 2623.98 711.242C2623.32 710.818 2622.57 710.636 2621.82 710.636V710.647ZM332.941 720.928C334.612 721.963 329.322 729.937 321.162 738.649C313.004 747.36 303.575 757.92 300.225 762.147C296.874 766.374 291.425 771.895 288.13 774.429C280.926 779.968 295.339 759.939 310.724 743.022C316.45 736.722 323.122 728.745 325.535 725.304C327.949 721.863 331.275 719.894 332.941 720.928ZM2593.76 780.585C2595.35 780.585 2596.63 781.958 2596.63 783.645C2596.63 785.332 2594.48 786.742 2591.84 786.742C2589.19 786.742 2587.93 785.332 2588.97 783.645C2590.02 781.958 2592.16 780.585 2593.76 780.585ZM2589.1 796.929C2589.87 796.505 2590.36 796.627 2590.38 797.473C2590.46 799.16 2587.36 804.028 2583.57 808.286C2579.78 812.561 2577.7 814.674 2578.97 813.032C2583.27 807.469 2581.29 804.356 2576.16 808.594C2571.49 812.452 2571.45 812.234 2575.41 805.872C2577.79 802.074 2580.21 800.389 2580.82 802.185C2581.42 803.981 2583.79 802.983 2586.1 799.935C2587.25 798.399 2588.32 797.346 2589.1 796.905L2589.1 796.929ZM2676.47 800.588C2678.19 799.53 2679.57 800.77 2679.57 803.43C2679.57 808.824 2677.74 809.63 2675.1 805.364C2674.13 803.792 2674.74 801.639 2676.47 800.581V800.588ZM2662.51 835.868C2661.89 835.868 2659.87 838.614 2658.07 841.993C2656.23 845.386 2656.04 848.15 2657.58 848.15C2659.13 848.15 2661.14 845.374 2662.02 841.993C2662.93 838.613 2663.12 835.868 2662.51 835.868ZM2517.54 891.181C2520.54 891.181 2518.08 896.23 2511.22 904.243C2503.42 913.334 2500.8 910.181 2508.04 900.397C2511.79 895.329 2516.07 891.181 2517.54 891.181ZM2566.97 959.961C2566.49 960.037 2565.97 960.265 2565.38 960.62C2563.75 961.618 2563.24 964.545 2564.22 967.12C2565.21 969.69 2564.3 974.06 2562.19 976.807C2559.37 980.502 2560.06 980.35 2564.87 976.262C2570.64 971.352 2571.56 959.288 2566.97 959.982L2566.97 959.961ZM181.066 962.744C181.611 962.865 181.878 963.287 181.816 963.959C181.702 965.325 180.425 969.202 178.974 972.584C176.422 978.487 176.313 978.48 176.131 971.979C176.018 968.278 177.286 964.4 178.974 963.353C179.82 962.809 180.55 962.622 181.064 962.735L181.066 962.744ZM2430.07 977.182C2429.11 977.363 2426.03 980.03 2423.07 983.307C2420.01 986.687 2418.19 989.463 2419.03 989.463C2419.88 989.463 2423.07 986.687 2426.13 983.307C2429.19 979.926 2431.01 977.182 2430.16 977.182C2430.16 977.182 2430.09 977.182 2430.05 977.182H2430.07ZM2409.75 995.618C2408.13 995.799 2404.4 998.666 2401.29 1002.18C2395.47 1008.72 2395.47 1008.76 2402.16 1005.25C2409.6 1001.33 2414.24 995.622 2409.91 995.622C2409.84 995.622 2409.8 995.622 2409.72 995.622L2409.75 995.618ZM2432.47 1014.06C2433.21 1014.06 2433.81 1015.43 2433.81 1017.12C2433.81 1018.81 2432.36 1020.22 2430.57 1020.22C2428.79 1020.22 2428.18 1018.81 2429.23 1017.12C2430.27 1015.43 2431.73 1014.06 2432.47 1014.06ZM2375.63 1027.06C2375 1027.06 2374.29 1027.13 2373.51 1027.18C2370.36 1027.48 2361.59 1033.62 2354.04 1040.83C2346.48 1048.05 2341.92 1053.96 2343.88 1053.96C2346.71 1053.96 2358.77 1044.66 2378.1 1027.61C2378.59 1027.19 2377.5 1026.99 2375.63 1027.07L2375.63 1027.06ZM2333.66 1060.12C2331.25 1060.3 2329.38 1061.6 2329.38 1063.18C2329.38 1064.87 2330.66 1066.28 2332.25 1066.28C2333.84 1066.28 2336.02 1064.87 2337.07 1063.18C2338.11 1061.5 2336.83 1060.12 2334.16 1060.12C2333.97 1060.12 2333.79 1060.12 2333.67 1060.12H2333.66ZM2325.82 1068.49C2324.68 1068.31 2311.05 1077.44 2294.1 1089.83C2276.02 1103.05 2258.9 1115.28 2256.07 1116.96C2243.88 1124.23 2225.06 1138.63 2225 1140.74C2224.89 1144.43 2227.32 1143.58 2241.13 1135C2265.21 1120.06 2323.74 1074.28 2325.88 1068.69C2325.88 1068.57 2325.88 1068.5 2325.8 1068.5L2325.82 1068.49ZM2434 1087.77C2435.6 1087.77 2436.88 1089.89 2436.88 1092.37C2436.88 1097.15 2433.25 1098.45 2429.79 1094.97C2427.33 1092.49 2430.09 1087.72 2433.97 1087.72L2434 1087.77ZM167.535 1113.52C167.838 1113.52 168.299 1113.52 168.788 1114.85C169.677 1117.09 169.56 1119.69 168.545 1120.72C167.534 1121.75 166.827 1119.93 166.954 1116.67C167.03 1114.85 167.196 1113.83 167.559 1113.46L167.535 1113.52ZM2373.82 1135.43C2374.24 1136.04 2374.01 1137.25 2373.33 1139.85C2371.51 1146.83 2370.52 1147.5 2368.02 1143.41C2367.09 1141.9 2368.26 1139.06 2370.64 1137.1C2372.41 1135.65 2373.44 1135.04 2373.83 1135.41L2373.82 1135.43ZM2211 1150.24C2209.76 1150.24 2207.84 1151.27 2206.1 1152.9C2198.54 1160.07 2180.67 1172.17 2166.57 1179.66C2158.97 1183.71 2150.55 1188.84 2147.88 1191.12C2145.21 1193.42 2141.63 1195.29 2139.91 1195.29C2138.2 1195.29 2134.28 1198.07 2131.23 1201.45C2120.42 1213.39 2132.59 1207.25 2171.6 1181.23C2215.89 1151.66 2214.26 1152.9 2211.98 1150.61C2211.73 1150.61 2211.43 1150.01 2211.01 1150.01L2211 1150.24ZM172.911 1152.3C176.982 1152.3 182.33 1166.38 180.287 1171.7C179.422 1173.94 180.21 1179.71 182.002 1184.46C183.799 1189.17 184.572 1193.79 183.72 1194.64C182.868 1195.49 181.327 1193.55 180.287 1190.35C179.241 1187.14 177.007 1180.83 175.314 1176.29C173.621 1171.75 173.144 1166.55 174.251 1164.76C175.358 1162.94 174.795 1161.49 173 1161.49C171.208 1161.49 169.752 1159.37 169.752 1156.83C169.752 1154.29 171.178 1152.24 172.909 1152.24L172.911 1152.3ZM185.973 1199.58C186.778 1198.8 188.261 1200.25 189.258 1202.85C191.339 1208.29 189.56 1209.19 186.536 1204.3C185.448 1202.48 185.2 1200.37 185.992 1199.58H185.973ZM2076.47 1236.08C2075.6 1236.16 2073.26 1237.23 2069.04 1239.41C2063.61 1242.25 2059.13 1245.09 2059.04 1245.75C2059.15 1248.47 2071.51 1243.27 2075.07 1239C2076.74 1237 2077.35 1235.97 2076.47 1236.03L2076.47 1236.08ZM2114.16 1253.67C2117.64 1253.67 2120.47 1255.06 2120.47 1256.76C2120.47 1258.45 2118.47 1259.84 2116.03 1259.84C2113.6 1259.84 2110.77 1258.45 2109.72 1256.76C2108.68 1255.06 2110.68 1253.67 2114.16 1253.67ZM2016.07 1265.93C2014.5 1265.93 2012.43 1267.38 2011.41 1269.01C2010.36 1270.7 2011.65 1272.09 2014.32 1272.09C2016.96 1272.09 2019.1 1270.7 2019.1 1269.01C2019.1 1267.32 2017.82 1265.93 2016.23 1265.93C2016.15 1265.93 2016.12 1265.93 2016.04 1265.93H2016.07ZM2089.6 1269.8C2092.28 1270.94 2094.74 1274.75 2095.1 1280.58C2095.34 1284.39 2095.29 1287.42 2094.99 1287.3C2083.72 1283.49 2081.22 1281.08 2082.71 1275.39C2084.04 1270.31 2086.96 1268.68 2089.64 1269.83L2089.6 1269.8ZM2035.07 1275.24C2038.02 1275.24 2040.6 1276.27 2040.6 1277.84C2040.6 1279.29 2038.73 1282.13 2036.41 1284.02C2033.23 1286.62 2031.36 1286.5 2028.75 1283.36C2026.84 1281.06 2026.2 1278.28 2027.31 1277.17C2028.8 1275.66 2032.12 1275.06 2035.06 1275.18L2035.07 1275.24ZM1979.57 1287.58C1977.15 1287.58 1971.38 1290.42 1966.19 1293.57C1960.66 1296.95 1957.5 1299.63 1959.19 1299.55C1963.99 1299.55 1984.24 1287.68 1980.01 1287.56C1979.89 1287.56 1979.7 1287.56 1979.58 1287.56L1979.57 1287.58ZM2014.66 1313.61C2015.49 1313.61 2016.03 1314.4 2016.03 1315.19C2016.03 1316.82 2013.94 1318.15 2011.41 1318.15C2008.87 1318.15 2006.81 1317.55 2006.81 1316.94C2006.81 1316.28 2008.87 1314.88 2011.41 1313.92C2012.68 1313.31 2013.82 1313.31 2014.65 1313.31L2014.66 1313.61ZM1965.94 1330.86C1966.49 1330.86 1967.11 1331.47 1967.88 1332.67C1969.05 1334.55 1967.8 1338.3 1965.15 1340.96C1957.86 1348.25 1948.38 1346.83 1948.5 1338.42C1948.5 1336.61 1949.75 1336.97 1951.22 1339.33C1952.7 1341.68 1955.47 1342.59 1957.38 1341.44C1959.27 1340.29 1959.92 1337.75 1958.79 1335.94C1957.61 1334 1958.14 1333.46 1960.01 1334.61C1961.81 1335.76 1963.83 1335.22 1964.51 1332.98C1964.93 1331.65 1965.41 1330.92 1965.95 1330.92L1965.94 1330.86ZM1895.13 1340.05C1894.28 1340.12 1893.4 1340.05 1892.57 1340.65C1890.12 1341.62 1890.86 1342.4 1894.44 1342.47C1897.68 1342.47 1899.5 1341.86 1898.48 1340.89C1897.83 1340.23 1896.54 1339.99 1895.13 1340.05ZM1912.01 1355.05C1915.61 1355.05 1917.72 1356.68 1916.98 1358.92C1915.51 1363.33 1907.69 1365.51 1904.6 1362.43C1901.26 1359.1 1905.29 1355.09 1912.01 1355.09V1355.05ZM1466.69 1417.83C1466.21 1417.91 1465.52 1417.83 1464.76 1418.44C1462.14 1419.46 1460.01 1420.8 1460.01 1421.46C1460.01 1423.94 1465.86 1422.55 1467.67 1419.65C1468.44 1418.38 1468.03 1417.77 1466.7 1417.89L1466.69 1417.83ZM1918.94 1421.04C1917.87 1421.04 1917.96 1423.58 1918.58 1429.82C1920.06 1444.28 1937.97 1468.66 1947.11 1468.66C1949.52 1468.66 1951.48 1469.75 1951.48 1471.02C1951.48 1472.29 1954.61 1474.71 1958.42 1476.4C1962.3 1478.09 1965.33 1482.14 1965.33 1485.62C1965.33 1494.08 1977.55 1506.85 1982.76 1503.84C1984.99 1502.57 1985.82 1502.63 1984.61 1503.84C1981.18 1507.64 1994.5 1524.24 2000.2 1523.28C2005.78 1522.31 2020.4 1531.43 2021.02 1536.21C2021.26 1537.84 2021.56 1541.23 2021.76 1543.71C2022.31 1549.98 2037.86 1563.81 2044.39 1563.81C2047.36 1563.81 2049.79 1565.2 2049.79 1566.89C2049.79 1570.7 2056.03 1570.76 2061.98 1566.89C2065.65 1564.59 2064.38 1561.99 2055.2 1553.11C2049.01 1547.12 2042.5 1542.17 2040.73 1542.17C2038.96 1542.17 2037.51 1540.9 2037.51 1539.27C2037.51 1537.7 2034.74 1535.52 2031.36 1534.43C2027.98 1533.35 2025.23 1530.69 2025.23 1528.39C2025.23 1526.15 2021.19 1521.72 2016.26 1518.6C2011.33 1515.46 2007.49 1511.54 2007.79 1509.85C2008.1 1508.16 2005.55 1505.56 2002.14 1504.05C1998.73 1502.54 1991.2 1494.97 1985.39 1487.18C1974.05 1471.94 1940.2 1437.9 1935.77 1437.27C1934.28 1437.27 1931.35 1436.66 1929.23 1436.36C1927.12 1436.36 1925.78 1434.12 1926.21 1432.01C1926.69 1429.89 1924.87 1425.96 1922.24 1423.35C1920.61 1421.71 1919.56 1420.81 1918.92 1420.81L1918.94 1421.04ZM1910.94 1447.16C1907.14 1447.16 1919.16 1469.31 1926.63 1476.07C1930.19 1479.27 1933.1 1483.85 1933.1 1486.22C1933.1 1488.58 1934.36 1489.73 1935.91 1488.76C1937.46 1487.79 1941.48 1490.51 1944.82 1494.75C1948.15 1498.98 1952.31 1502.47 1954.07 1502.47C1955.82 1502.47 1958.17 1505.31 1959.29 1508.84C1960.4 1512.35 1962.06 1514.47 1963 1513.5C1966.54 1509.99 1972.63 1522.26 1969.32 1526.25C1966.92 1529.15 1967.82 1530.12 1972.91 1530.12C1979.64 1530.12 2004.57 1550.89 2002.28 1554.59C2001.63 1555.68 2003.78 1556.71 2007.04 1556.95C2010.3 1556.95 2012.98 1556.95 2012.98 1555.8C2012.98 1554.95 1995.4 1536.43 1973.94 1514.61C1952.49 1492.8 1933.65 1472.48 1932.07 1469.49C1928.11 1462 1914.07 1447.14 1910.94 1447.14L1910.94 1447.16ZM1106.41 1502.47C1104.87 1502.47 1103.66 1503.93 1103.66 1505.56C1103.66 1507.25 1105.03 1508.64 1106.72 1508.64C1108.41 1508.64 1109.78 1507.25 1109.78 1505.56C1109.78 1503.87 1108.41 1502.47 1106.72 1502.47C1106.61 1502.47 1106.53 1502.47 1106.42 1502.47H1106.41ZM1118.5 1502.47C1116.97 1502.47 1116.49 1503.93 1117.47 1505.56C1118.52 1507.25 1119.97 1508.64 1120.72 1508.64C1121.46 1508.64 1122.06 1507.25 1122.06 1505.56C1122.06 1503.87 1120.6 1502.47 1118.81 1502.47C1118.7 1502.47 1118.62 1502.47 1118.51 1502.47H1118.5ZM1466.51 1548.57C1468.22 1548.57 1468.74 1549.96 1467.69 1551.65C1466.64 1553.34 1464.38 1554.74 1462.69 1554.74C1460.97 1554.74 1460.49 1553.34 1461.53 1551.65C1462.58 1549.96 1464.82 1548.57 1466.51 1548.57ZM2020.85 1564.57C2020.61 1564.57 2020.43 1564.64 2020.3 1564.57C2018.03 1566.87 2026.1 1577.41 2044.15 1595.78C2058.67 1610.57 2060.63 1611.6 2063.96 1606.22C2065.27 1604.11 2060.68 1597.85 2052.62 1590.75C2045.17 1584.2 2035.29 1575.19 2030.65 1570.75C2026.58 1566.88 2022.52 1564.28 2020.87 1564.38L2020.85 1564.57ZM1388.75 1571.03C1390.98 1570.13 1393.64 1570.25 1394.66 1571.03C1395.68 1572.06 1393.86 1572.79 1390.63 1572.67C1387.05 1572.67 1386.31 1571.76 1388.75 1570.79V1571.03ZM2073.26 1573.15C2071.28 1573.15 2071.72 1574.42 2074.41 1576.17C2080.31 1579.98 2081.36 1579.98 2079.01 1576.17C2077.96 1574.48 2075.46 1573.09 2073.44 1573.15C2073.37 1573.15 2073.33 1573.15 2073.26 1573.15ZM1497.19 1573.75C1497.67 1573.75 1499.49 1574.48 1503 1576.29C1507.23 1578.47 1511.27 1580.83 1511.97 1581.43C1512.68 1582.04 1511.11 1582.52 1508.5 1582.52C1505.9 1582.52 1501.85 1580.23 1499.53 1577.44C1497.6 1575.09 1496.72 1573.94 1497.19 1573.75H1497.19ZM1485.16 1579.56C1490.34 1579.56 1498.18 1586.09 1499.16 1591C1500.17 1596.02 1499.85 1595.9 1489.79 1587.07C1485.06 1582.9 1482.95 1579.52 1485.16 1579.57V1579.56ZM506.13 1583.07C509.51 1582.99 515.062 1584.15 518.441 1585.61C526.27 1588.99 518.2 1588.99 507.693 1585.61C501.519 1583.61 501.186 1583.13 506.13 1583.07ZM2079.75 1584.82C2076.81 1584.82 2075.56 1587.18 2074.97 1592.23C2074.17 1599.21 2074.97 1600.19 2080.35 1598.79C2087.27 1596.98 2088.71 1600.78 2083.19 1606.29C2080.56 1608.89 2082.3 1610.95 2090.1 1614.33C2104.66 1620.67 2104.96 1620.56 2103.6 1609.37C2102.5 1600.4 2102.82 1599.93 2106.53 1604.95C2108.81 1608.04 2111.46 1609.25 2112.41 1607.73C2113.36 1606.22 2110.84 1603.14 2106.82 1601.02C2102.8 1598.84 2098.89 1594.75 2098.13 1591.86C2097.37 1588.96 2094.82 1586.42 2092.48 1586.24C2090.13 1586.24 2085.45 1585.45 2082.07 1584.97C2081.19 1584.97 2080.44 1584.97 2079.76 1584.97L2079.75 1584.82ZM577.754 1598.86C579.973 1597.95 582.639 1598.07 583.662 1598.86C584.684 1599.88 582.841 1600.55 579.6 1600.43C576.019 1600.43 575.305 1599.58 577.754 1598.61V1598.86ZM2068.82 1605.45C2068.58 1605.45 2068.33 1605.52 2068.13 1605.45C2063.94 1608.05 2068.02 1615.35 2074.6 1617.07C2078.4 1618.1 2080.54 1621.3 2080.54 1626.08C2080.54 1630.19 2081.47 1634.48 2082.6 1635.61C2085.47 1638.45 2086.55 1638.21 2091.16 1633.55C2095.56 1629.14 2092.1 1619.18 2086.19 1619.18C2084.41 1619.18 2080.25 1615.73 2076.91 1611.48C2073.99 1607.79 2070.61 1605.24 2068.81 1605.27L2068.82 1605.45ZM2123.88 1616.32C2120.21 1616.32 2117.36 1619.16 2116.13 1624.1C2114.88 1629.06 2112.8 1631.14 2110.41 1629.73C2108.35 1628.52 2107.74 1628.76 2109.04 1630.33C2112.01 1633.6 2123.78 1634.63 2121.82 1631.48C2121.02 1630.21 2121.82 1628.28 2123.5 1627.25C2125.22 1626.22 2126.63 1626.64 2126.63 1628.4C2126.63 1630.09 2129.61 1631.84 2133.26 1632.39C2136.97 1632.99 2140.24 1635.96 2140.73 1639.2C2141.21 1642.41 2143.4 1646.2 2145.63 1647.61C2147.86 1649 2149.92 1650.21 2150.16 1650.21C2150.24 1649.6 2148.98 1644.89 2147.22 1639.18C2145.24 1632.74 2140.85 1626.7 2136.75 1624.84C2132.87 1623.08 2129.69 1620.48 2129.69 1619.03C2129.69 1617.64 2127.07 1616.49 2123.88 1616.49L2123.88 1616.32ZM2103.29 1635.48C2102.6 1635.48 2102.61 1637.41 2103.29 1640.92C2104.05 1645.09 2104.98 1649.2 2105.29 1650.05C2105.59 1650.89 2106.54 1649.02 2107.35 1645.87C2108.15 1642.73 2107.24 1638.62 2105.35 1636.72C2104.4 1635.75 2103.73 1635.33 2103.32 1635.45L2103.29 1635.48ZM2113.6 1643.95C2110.75 1643.95 2110.48 1654.42 2113.3 1657.26C2116.82 1660.77 2123.55 1659.5 2123.55 1655.33C2123.55 1650.91 2117.53 1643.95 2113.7 1643.95C2113.63 1643.95 2113.63 1643.95 2113.59 1643.95H2113.6ZM2140.79 1668.51C2140.12 1668.51 2138.76 1670.62 2137.79 1673.16C2136.82 1675.7 2137.36 1677.76 2139.01 1677.76C2140.65 1677.76 2141.98 1675.7 2141.98 1673.16C2141.98 1670.62 2141.43 1668.51 2140.79 1668.51H2140.79ZM2206.82 1687.1C2203.64 1687.1 2203.37 1690.37 2206.33 1695.91C2208.22 1699.42 2211.1 1702.32 2212.74 1702.32C2217.61 1702.32 2216.08 1689.98 2210.96 1688.01C2209.27 1687.35 2207.86 1687.04 2206.81 1687.1H2206.82ZM2222.69 1702.32C2216.68 1702.32 2218.08 1706.68 2225.69 1710.42C2229.49 1712.29 2232.99 1714.04 2233.47 1714.23C2233.96 1714.23 2232.87 1711.81 2231.07 1708.42C2229.26 1705.03 2225.76 1702.29 2223.28 1702.29C2223.1 1702.29 2222.86 1702.29 2222.68 1702.29L2222.69 1702.32ZM2240.85 1719.29C2240.36 1719.29 2239.95 1719.29 2239.6 1719.9C2238.03 1720.86 2239.23 1724.13 2242.35 1727.12C2245.43 1730.08 2250.38 1735.5 2253.32 1739.08C2260.16 1747.45 2262.42 1747.32 2261.22 1738.48C2260.24 1731.45 2246.52 1719.06 2240.85 1719.35V1719.29ZM2277.07 1742.45C2276.11 1742.45 2275.04 1743.17 2273.85 1744.32C2271.15 1747.04 2271.32 1749.1 2274.5 1752.89C2284.75 1765.12 2290.42 1769.32 2294.56 1767.73C2297.28 1766.7 2299.61 1768.34 2300.53 1771.84C2302.65 1779.93 2318.5 1788.78 2322.94 1784.34C2325.38 1781.86 2326.31 1782.59 2326.31 1787C2326.31 1796.51 2334.84 1806.37 2345.62 1809.28C2351.04 1810.73 2356.09 1811.4 2356.84 1810.79C2359.73 1808.31 2359.54 1799.22 2356.48 1793.48C2353.89 1788.64 2352.75 1788.28 2350.57 1791.73C2348.81 1794.57 2347.85 1794.75 2347.82 1792.33C2347.82 1790.34 2340.18 1784.11 2330.88 1778.55C2321.59 1772.99 2314.01 1767.01 2314.01 1765.27C2314.01 1763.52 2306.72 1758.73 2297.85 1754.58C2288.98 1750.47 2280.77 1745.64 2279.57 1743.9C2278.84 1742.87 2277.99 1742.39 2277.04 1742.45H2277.07ZM1884.29 1760.98C1886.48 1761.58 1889.64 1763.46 1893.57 1766.72C1898.6 1770.89 1899.43 1772.78 1896.22 1772.79C1890.11 1772.79 1880.85 1767.28 1880.85 1763.63C1880.85 1761.33 1882.09 1760.43 1884.28 1760.97L1884.29 1760.98ZM2278.16 1777.76C2276.69 1777.76 2275.56 1778.91 2273.63 1781.33C2271.35 1784.11 2271.06 1785.5 2272.97 1784.35C2275.01 1783.14 2277.16 1784.95 2278.13 1788.58C2279.37 1793.3 2278.62 1794.51 2275.22 1793.24C2272.5 1792.21 2271.5 1792.63 2272.7 1794.75C2273.8 1796.56 2276.75 1797.23 2279.26 1796.26C2281.76 1795.3 2285.52 1794.51 2287.63 1794.51C2293.8 1794.51 2292.1 1787.05 2284.63 1781.42C2281.43 1779 2279.63 1777.79 2278.17 1777.79L2278.16 1777.76ZM2304.63 1794.48C2302.85 1794.48 2302.21 1795.87 2303.26 1797.56C2304.3 1799.26 2305.76 1800.65 2306.51 1800.65C2307.25 1800.65 2307.88 1799.26 2307.88 1797.56C2307.88 1795.87 2306.42 1794.48 2304.63 1794.48ZM2361.38 1795.75L2361.62 1804.66C2361.73 1809.55 2364.11 1815.27 2366.9 1817.31C2369.68 1819.37 2372.93 1824.79 2374.09 1829.41C2376.07 1837.3 2376.52 1837.51 2381.74 1832.79C2386.93 1828.14 2387.68 1828.2 2392.81 1834.18C2395.84 1837.75 2399.99 1840.62 2402.03 1840.62C2404.06 1840.62 2408.44 1844.13 2411.77 1848.34C2415.39 1852.94 2419.68 1855.3 2422.43 1854.27C2424.97 1853.3 2427.98 1854.27 2429.09 1855.78C2431.89 1860.32 2435.9 1859.89 2437.84 1854.87C2439.94 1849.37 2423.34 1837.06 2417.09 1839.46C2414.45 1840.49 2412.31 1839.46 2412.31 1837.71C2412.31 1835.71 2413.91 1835.11 2415.87 1836.32C2417.99 1837.65 2418.58 1837.17 2417.34 1835.17C2414.45 1830.51 2397.18 1822.2 2390.33 1822.2C2386.9 1822.2 2384.65 1820.02 2384.65 1816.64C2384.65 1813.55 2379.44 1807.62 2373.02 1803.42L2361.38 1795.75ZM2312.29 1801.67C2311.47 1801.75 2310.94 1802.4 2310.94 1803.49C2310.94 1805.3 2312.32 1806.75 2314 1806.75C2315.69 1806.75 2317.1 1806.15 2317.1 1805.36C2317.1 1804.64 2315.69 1803.19 2314 1802.1C2313.37 1801.49 2312.78 1801.49 2312.29 1801.49V1801.67ZM2028.79 1829.18C2029.03 1829.18 2030.86 1829.9 2034.48 1831.6C2038.7 1833.59 2042.71 1835.77 2043.41 1836.37C2047.63 1840.06 2037.65 1836.37 2032.76 1832.69C2029.95 1830.45 2028.56 1829.24 2028.79 1829.12L2028.79 1829.18ZM2056.57 1834.62C2059.16 1834.62 2063.26 1836.01 2069.32 1838.73C2074.64 1841.15 2084.2 1844.72 2090.54 1846.67C2096.87 1848.66 2102.04 1852.17 2102.04 1854.61C2102.04 1859.87 2101.96 1859.87 2095 1854.61C2091.97 1852.31 2086.7 1851.16 2083.32 1852.07C2075.51 1854.12 2052.88 1844.06 2052.88 1838.56C2052.88 1835.9 2053.97 1834.57 2056.57 1834.63L2056.57 1834.62ZM2363.07 1840.55C2364.7 1840.55 2365.26 1842.6 2364.29 1845.14C2363.31 1847.68 2361.95 1849.8 2361.29 1849.8C2360.62 1849.8 2360.1 1847.68 2360.1 1845.14C2360.1 1842.6 2361.44 1840.55 2363.07 1840.55H2363.07ZM2114.1 1855.98C2117.18 1855.98 2120.51 1856.58 2121.6 1858.34C2122.42 1859.67 2119.76 1861 2115.66 1861.36C2111.56 1861.97 2108.19 1860.64 2108.19 1858.94C2108.19 1857.13 2111.01 1856.1 2114.1 1855.98ZM2426.38 1857.13C2425.43 1857.13 2424.16 1858.82 2423.25 1861.18C2421.58 1865.53 2421.93 1865.9 2424.97 1862.87C2427.07 1860.82 2428.04 1858.34 2427.09 1857.37C2426.9 1857.37 2426.67 1857.37 2426.38 1857.37L2426.38 1857.13ZM2444.44 1862.87C2441.32 1862.8 2442.02 1867.35 2446.63 1876.41C2451.17 1885.32 2454.8 1888.88 2458.57 1888.16C2461.55 1887.55 2466.53 1888.94 2469.63 1891.24C2473.83 1894.32 2475.81 1894.45 2477.47 1891.85C2478.7 1889.85 2478.3 1887.79 2476.6 1887.19C2474.67 1886.52 2474.93 1884.41 2477.28 1881.56C2480.29 1877.94 2480.16 1876.48 2476.67 1874.31C2474.08 1872.74 2471.08 1872.8 2469.38 1874.31C2467.59 1876.13 2462.64 1874.31 2456.23 1869.35C2450.52 1865 2446.58 1862.81 2444.45 1862.76L2444.44 1862.87ZM2128.75 1864.5C2130.64 1865.11 2132.6 1865.84 2134.19 1866.99C2142.27 1872.91 2139.1 1874.51 2128.22 1870.07C2121.64 1867.35 2120.4 1865.84 2123.75 1864.57C2125.03 1863.96 2126.83 1863.96 2128.72 1864.57L2128.75 1864.5ZM2325.13 1880.07C2328.45 1880.68 2332.09 1882.49 2334.28 1885.27C2336.14 1887.63 2338.66 1888.66 2339.85 1887.45C2341.02 1886.24 2341.09 1887.45 2339.96 1890.53C2337.53 1896.89 2336.44 1896.92 2325.34 1891.14C2320.59 1888.54 2317.29 1884.79 2317.99 1882.79C2318.81 1880.43 2321.8 1879.71 2325.12 1880.25L2325.13 1880.07ZM2230.5 1881.46C2232.72 1880.55 2235.36 1880.68 2236.38 1881.46C2237.4 1882.49 2235.59 1883.15 2232.35 1883.03C2228.77 1883.03 2228.05 1882.19 2230.5 1881.22V1881.46ZM2196.94 1892.78C2195.42 1892.78 2194.19 1894.23 2194.19 1895.86C2194.19 1897.55 2196.37 1898.95 2199 1898.95C2201.65 1898.95 2202.92 1897.55 2201.88 1895.86C2200.83 1894.17 2198.68 1892.78 2197.09 1892.78C2197.02 1892.78 2196.98 1892.78 2196.91 1892.78H2196.94ZM2221.28 1901.99C2215.71 1901.99 2225.86 1911.9 2235.63 1916.02C2240.67 1918.14 2245.92 1919.17 2247.28 1918.32C2251.61 1915.66 2242.87 1908.14 2235.44 1908.14C2231.52 1908.14 2227.49 1906.75 2226.44 1905.05C2225.4 1903.36 2223.05 1901.97 2221.25 1901.97L2221.28 1901.99ZM2298.07 1906.04C2300.29 1905.14 2302.95 1905.26 2303.97 1906.04C2305 1907.07 2303.18 1907.8 2299.94 1907.68C2296.36 1907.68 2295.62 1906.83 2298.07 1905.8V1906.04ZM2262.47 1918.89C2261.99 1918.89 2261.6 1918.89 2261.35 1918.89C2256.83 1921.67 2261.65 1926.3 2269.13 1926.3C2272.98 1926.3 2277.11 1927.26 2278.32 1928.47C2279.53 1929.68 2284.94 1932.28 2290.35 1934.28C2303.6 1939.12 2308.61 1939.3 2307.16 1934.94C2305.82 1930.89 2270.16 1918.17 2262.47 1918.6V1918.89ZM2410.6 1918.89C2411.43 1918.89 2412.58 1918.89 2413.85 1919.49C2416.38 1920.46 2418.47 1921.85 2418.47 1922.52C2418.47 1923.18 2416.38 1923.73 2413.85 1923.73C2411.31 1923.73 2409.25 1922.4 2409.25 1920.76C2409.25 1919.92 2409.73 1919.37 2410.59 1919.19L2410.6 1918.89ZM2316.44 1935.83C2310.28 1935.83 2323.58 1944.95 2329.97 1944.95C2333.03 1944.95 2335.51 1946.34 2335.51 1948.04C2335.51 1949.73 2337.6 1951.12 2340.13 1951.12C2342.67 1951.12 2344.73 1950.45 2344.73 1949.67C2344.73 1947.37 2320.91 1935.74 2316.45 1935.86L2316.44 1935.83ZM2487.79 1944.95C2491.78 1944.95 2501.41 1951.56 2501.41 1954.29C2501.41 1957.38 2500.33 1957.5 2491.41 1955.14C2486.62 1953.87 2483.44 1944.96 2487.79 1944.96L2487.79 1944.95ZM2413.29 1945.68C2416.94 1945.68 2421.24 1946.71 2422.82 1948.28C2423.65 1949.12 2421 1950.03 2416.94 1950.4C2412.88 1951 2408.67 1949.55 2407.59 1947.85C2406.63 1946.28 2409.63 1945.62 2413.29 1945.68ZM2445.66 1952.77C2451.24 1952.04 2457.9 1955.01 2459.19 1959.93C2460.8 1966.04 2452.6 1966.96 2442.85 1961.74C2437.6 1958.9 2437.21 1957.69 2440.69 1954.83C2442.08 1953.68 2443.8 1953.02 2445.66 1952.78V1952.77ZM2367.57 1955.01C2365.41 1955.01 2363.72 1955.61 2362.91 1956.28C2361.31 1957.85 2364.29 1959.3 2370.07 1959.73C2375.51 1960.33 2381.28 1961.78 2382.88 1963.41C2386.42 1966.98 2389.09 1964.99 2386.47 1960.75C2384.45 1957.49 2374.02 1954.77 2367.57 1955.01ZM2401.51 1966.44C2398.98 1966.52 2396.98 1967.9 2396.98 1969.53C2396.98 1971.22 2398.26 1972.61 2399.85 1972.61C2401.44 1972.61 2403.59 1971.22 2404.63 1969.53C2405.68 1967.84 2404.39 1966.44 2401.76 1966.44C2401.68 1966.44 2401.57 1966.44 2401.52 1966.44H2401.51ZM2513.82 1984.95C2511.95 1985.02 2510.63 1985.86 2510.63 1987.67C2510.63 1989.24 2512.37 1991.18 2514.48 1992.02C2516.59 1992.87 2520.19 1993.66 2522.51 1993.78C2525.88 1993.78 2525.97 1993.17 2522.87 1989.42C2520.37 1986.4 2516.5 1984.77 2513.78 1984.89L2513.82 1984.95Z" fill="#f2efe1"/>
</svg>
