<svg width="2307" height="1081" viewBox="0 0 2307 1081" fill="none" xmlns="http://www.w3.org/2000/svg">
<path d="M2283.03 637.211L2279.96 643.367H2286.1L2283.03 637.211Z" fill="#f2efe1"/>
<path d="M2295.32 492.508V510.933H2298.39L2304.54 504.791L2295.32 492.508Z" fill="#f2efe1"/>
<path d="M1972.76 42.2506C1965.77 34.8608 1945.62 34.3247 1935.06 33.599C1900.66 31.2406 1865.89 29.4825 1831.4 30.6315C1718.11 34.5017 1604.78 27.4219 1491.33 32.0783C1457.08 33.4692 1394.23 17.6096 1364.5 36.1384C1356.35 28.3676 1342.55 30.0367 1333.78 36.1384H1330.71L1275.45 31.783L1232.4 26.9996L1152.53 23.8549C1132.53 29.6602 1105.82 23.8576 1084.95 23.8697C1018.84 23.144 953.901 10.9672 888.093 9.03206C692.899 3.28718 495.929 2.68824 301.587 15.72C263.97 18.2599 225.358 34.1434 187.923 32.9641C149.081 31.7547 106.778 12.8032 68.1154 18.4513C49.684 21.1121 42.5818 35.5427 37.3956 51.5075L9.74678 48.4218C9.74678 70.1072 5.71369 94.8874 3.6032 116.01C2.91986 122.868 9.74678 144.85 9.74678 155.946C9.74678 220.229 12.4027 301.027 6.67591 352.556C3.07175 385.005 8.46518 415.539 3.6032 444.711C-2.93145 483.921 13.528 526.481 6.67591 567.59C-1.9529 619.367 11.0466 690.129 0.530489 742.703C-0.509637 747.904 6.2526 759.114 6.67591 764.199C7.22016 770.99 -0.114752 777.97 0.530489 785.71C1.13521 792.816 8.92307 798.22 6.67591 807.206C-2.81403 845.171 6.37242 889.236 9.74678 930.085C10.7567 942.21 2.98709 949.13 6.67591 963.879C10.268 978.248 17.7052 1014.99 15.8922 1022.24L31.2521 1019.17C37.4614 1088.11 136.152 1071.39 184.851 1071.39C284.689 1071.39 383.763 1074.41 483.357 1067.7C537.155 1064.07 601.7 1055.39 654.868 1065.22C684.565 1048.04 746.521 1059.84 780.819 1059.03C876.193 1056.79 971.191 1049.25 1066.51 1048.96C1091.75 1048.96 1118.18 1048.05 1143.32 1050.41C1157.68 1051.74 1173.82 1058.31 1186.32 1049.8L1237.67 1058.23H1350.86L1401.36 1052.61H1404.43C1425.61 1068.11 1479.94 1058.35 1505.81 1058.29C1570.37 1058.29 1634.95 1056.9 1699.36 1056.42C1731.49 1056.42 1769.54 1063.41 1800.72 1055.7C1804.94 1066.04 1870.04 1064.91 1883.67 1064.91C1959.5 1064.91 2035.45 1063.27 2111 1066.41C2129.74 1067.2 2151.01 1056.96 2169.36 1059.77C2177.91 1061.1 2187.22 1066.14 2181.65 1074.09L2190.87 1080.25L2217.5 1074.8L2249.23 1012.69L2246.16 1003.46L2249.23 997.319C2268.93 993.57 2271.26 937.116 2255.38 926.66L2273.81 874.441L2261.52 877.526L2258.45 859.086L2264.6 868.314H2273.81L2276.88 828.378L2267.67 831.463L2261.52 822.236L2276.88 813.023L2279.96 742.364L2270.74 745.449L2273.81 766.96L2261.52 760.818V757.733C2267.09 752.956 2267.09 750.218 2261.52 745.435V742.364H2270.74V739.278C2261.41 730.691 2256.68 695.698 2273.81 693.2V690.115L2264.6 687.029L2267.67 653.235L2279.96 644.022L2270.74 647.108L2276.88 640.951L2270.74 625.597L2276.88 628.683L2270.74 616.399L2289.17 610.243V597.959H2273.81L2276.88 567.236H2279.96L2292.24 582.605C2284.99 564.578 2288.54 561.227 2298.39 545.74L2289.17 548.825L2286.1 545.74L2298.39 533.456L2286.1 518.087V515.002L2292.24 508.86L2286.1 468.924L2304.53 484.278C2304.52 467.177 2307.68 448.192 2295.32 435.129H2304.53L2298.39 413.633C2310.56 411.88 2305.95 375.645 2304.53 364.47H2295.32L2301.46 349.116L2295.32 358.328L2286.1 327.62L2304.53 339.903V324.534L2289.17 321.463V318.378L2304.53 312.236L2301.46 189.342L2292.24 192.428V174.003L2301.46 177.088L2289.17 88.0035L2298.39 91.0744C2292.59 62.0718 2291.05 17.4692 2255.38 9.10588C2242.67 6.14273 2229.27 13.9968 2217.14 10.6708C2203.55 6.92155 2201.44 -2.89332 2184.72 1.10391C2157.51 7.6047 2135.36 29.0353 2107.65 32.0045C2066.18 36.419 2011.01 25.7339 1972.76 41.9405M2190.87 11.2909V20.5035L2163.22 26.6452L2166.29 17.4326L2178.58 20.5183L2190.87 11.2909ZM538.131 20.5478L541.203 29.7752L528.915 32.846V29.7752L538.131 20.5478ZM482.835 23.6334V29.7752H476.691V23.6334H482.835ZM578.067 23.6334L581.139 32.846H568.851V29.7752L578.067 23.6334ZM780.819 29.7752H771.603L774.676 23.6187L780.819 29.7752ZM854.548 23.6187L894.484 32.846V26.6895L897.555 32.846L912.915 26.6895V29.7752L836.115 35.9317L854.548 23.6187ZM2157.08 24.6669C2159.45 24.6669 2157.56 26.1694 2156.05 25.6856L2157.08 24.6669ZM442.899 29.8047V32.8903L421.395 35.976V32.8903H436.755L433.683 26.7486L442.899 29.8047ZM473.619 26.7486V29.8342L445.971 35.976C448.747 23.0228 462.425 26.7486 473.619 26.7486ZM599.572 26.7634L602.643 32.9051H596.499L599.572 26.7634ZM654.868 26.7634L645.651 32.9051V29.8195L654.868 26.7634ZM762.388 29.8195V32.9051H750.099L762.388 29.8195ZM814.612 26.7338L823.827 32.8756V35.9612L814.612 26.7338ZM922.132 26.7486L928.275 35.9612C921.361 34.5099 918.697 33.3038 922.132 26.7486ZM104.979 42.1177L206.356 48.2594V57.472C180.698 58.5605 123.006 64.5167 104.979 42.1177L52.7555 45.2033L49.6828 35.9907C64.6431 29.4536 93.599 28.596 104.979 42.1177ZM335.379 29.8342V39.0616C319.577 39.6663 296.683 47.7598 286.227 32.9199L335.379 29.8342ZM366.099 29.8342V32.9199H356.883L366.099 29.8342ZM396.819 32.9199V35.9907L369.171 39.0763V35.9907C375.194 33.9951 377.017 32.9199 369.171 32.9199H396.819ZM402.963 29.8342H415.251L412.18 39.0468L402.963 29.8342ZM565.779 29.8342V32.9199H550.419L565.779 29.8342ZM977.428 32.9199V35.9907L968.211 39.0763L977.428 32.9199ZM2279.96 33.9681C2282.33 33.9681 2280.44 35.4706 2278.93 34.9868L2279.96 33.9681ZM261.651 48.3332L252.436 42.1767L243.219 48.3332C245.977 35.4587 256.396 38.6214 261.651 48.3332ZM1155.6 39.1059L1152.53 48.3332H1143.32L1155.6 39.1059ZM1232.4 39.1059C1230.52 47.8623 1228.4 47.8869 1220.12 45.2624L1232.4 39.1059ZM1017.36 43.225C1019.74 43.225 1017.85 44.7422 1016.34 44.2584L1017.36 43.225ZM1241.62 42.1915L1235.48 48.3332V42.1915H1241.62ZM1309.2 42.1915L1324.56 45.2771V48.3628V51.4484L1309.2 54.534V42.1915ZM1333.78 42.2506L1352.21 48.3923L1330.71 51.4779L1333.78 42.2506ZM1376.79 54.5488H1364.5L1367.57 48.4071H1364.5L1358.36 51.4779C1360.63 38.4824 1372.53 47.2921 1376.79 54.5488ZM1398.29 45.351L1386 54.5636L1382.93 48.4218L1398.29 45.351ZM1413.65 42.2506V48.4071L1407.51 42.2506H1413.65ZM1041.94 46.3697C1044.32 46.3697 1042.42 47.8869 1040.92 47.4031L1041.94 46.3697ZM1736.21 46.3697C1738.59 46.3697 1736.7 47.8869 1735.19 47.4031L1736.21 46.3697ZM1803.79 45.3362V48.4218H1794.58L1803.79 45.3362ZM2083.35 45.3362L2086.42 51.4779H2080.28L2083.35 45.3362ZM1668.62 49.6915C1671 49.6915 1669.11 51.2087 1667.6 50.725L1668.62 49.6915ZM2286.09 48.6728V60.9563L2276.88 57.8706L2279.95 48.658L2286.09 48.6728ZM1957.39 54.8293V57.9002H1945.1L1957.39 54.8293ZM2286.09 64.1895V70.3313H2279.95V64.1895H2286.09ZM851.47 73.4317C867.898 81.2145 898.288 91.333 912.911 76.5173H915.983C928.099 85.697 948.562 85.7348 962.062 79.6029H965.135L1014.29 82.6885C1014.29 93.3438 1056.23 95.1035 1060.37 82.6885H1069.58L1066.51 91.9011L1078.8 85.7594C1078.8 100.188 1100.99 89.5676 1106.45 82.6738H1109.52L1106.45 91.8864L1112.59 85.7447H1115.66H1118.73C1130.6 94.7369 1142.64 91.2476 1155.6 85.7447C1155.6 98.4197 1166.65 88.1015 1170.96 82.659H1174.03V91.8716H1189.39L1186.32 82.659H1189.39C1201.08 93.6952 1212.46 93.0981 1226.25 85.7447H1241.61L1269.26 91.8864H1272.33L1275.41 85.7447H1290.77H1293.84L1296.91 91.8864C1305.63 85.2828 1316.82 83.0393 1324.56 91.8864H1327.63C1334.25 80.3966 1348.97 85.3811 1355.28 94.972C1365.09 81.3718 1408.54 78.8485 1419.79 91.8864H1422.86L1429.01 85.7447L1425.93 94.9572H1472.01L1468.94 85.7447H1490.45H1493.52L1490.45 94.9572L1628.69 93.9238L1677.84 88.786H1680.91H1683.98C1693.7 97.6512 1699.96 90.2951 1711.64 92.0488C1738.77 96.1004 1788.65 113.389 1813.01 94.9572H1816.08L1896.47 102.28L2064.91 112.068L2141.71 110.312V101.099C2154.99 106.179 2178.1 101.707 2188.43 110.179C2196.63 116.921 2193.47 134.715 2194.87 144.106C2200.04 178.769 2180.64 237.71 2200.08 266.985V300.779V303.865C2183.54 342.573 2197.42 411.749 2196.67 454.116C2195.66 510.93 2185.13 566.872 2182.28 623.353C2179.39 680.669 2183.04 737.793 2180.82 795.38C2179.23 836.671 2175.48 877.404 2170 918.259C2168.08 932.543 2173.35 954.46 2161.48 965.563C2141.36 984.394 2081.29 977.51 2055.7 976.621V979.706L2061.84 992.004L2055.7 982.777L2046.48 992.004H2043.41V976.635L2003.47 985.863H2000.4C1990.83 978.618 1975.91 977.348 1966.61 985.863H1948.18V988.934L1942.03 992.019L1938.96 985.877H1935.89C1926.69 992.542 1921 990.415 1917.46 979.736H1908.24V988.948H1905.17C1894.17 978.329 1880.68 976.296 1868.3 985.863H1865.23L1856.02 979.721L1862.16 988.934L1837.58 982.792L1809.94 973.579L1813.01 982.792H1809.94L1794.58 973.579H1776.14V985.863H1773.07V973.579L1760.78 976.665L1757.71 985.877H1754.64L1757.71 973.594L1705.49 970.508V973.594H1711.63V976.68H1656.34L1634.83 973.594L1564.18 970.508V973.594L1567.25 982.807H1564.18V973.594L1554.96 976.68L1558.03 970.538H1554.96C1543.81 973.501 1520.35 967.147 1518.1 982.821H1515.02C1495.29 963.192 1444.77 969.892 1422.86 982.821L1429.01 973.609L1407.5 979.75H1419.79V982.836H1398.29L1395.22 970.538L1382.93 982.836H1376.78L1361.42 973.609L1364.5 982.836H1352.21L1355.28 970.538L1330.7 973.624V976.709L1336.85 982.851H1315.34V970.567L1293.84 973.653V982.866L1278.48 976.724L1263.12 982.866L1266.19 973.653H1253.9L1260.05 979.795V982.88L1244.69 976.739L1223.18 979.824L1170.96 976.739L1146.38 967.526C1135.95 981.743 1116.19 957.472 1112.59 976.739H1100.3V973.653L1106.45 967.511L1084.94 973.653H1051.15L1054.22 964.441H1038.86V973.653L1011.22 970.567L1002 964.426L1005.07 973.638L998.928 976.724L958.992 964.441V967.526C966.76 969.098 966.759 969.039 958.992 970.612V973.683H968.209V976.768L955.92 979.854L952.849 967.57H949.776L940.561 979.854L946.704 973.712V970.626L937.488 976.768V979.854H925.201L934.416 970.641V967.556L866.832 976.768L845.329 967.556L848.4 976.768L829.968 970.626L786.96 976.768L793.105 967.556L765.457 973.697V976.783L774.672 979.869V982.954C767.583 981.805 733.177 958.29 737.809 976.812L713.232 970.671V973.756L722.448 982.969L697.873 973.756L704.016 976.827V973.756L694.8 970.671V982.954C662.338 987.066 630.661 982.949 598.264 985.065C584.08 985.912 567.953 989.546 562.705 973.727H559.632V986.01L547.344 973.727H501.264L507.408 982.939L498.193 986.025V973.742L430.609 982.954C417.006 971.749 402.649 976.783 396.816 992.167H393.744L396.816 982.954L381.456 976.812L375.313 992.167L378.384 982.954L356.88 979.869L359.952 992.152H335.377L341.52 982.939L320.016 979.854L323.089 992.152L313.872 982.925L301.584 979.839V992.137L280.08 985.996H277.008C267.356 997.074 249.554 991.799 240.145 982.91C227.228 1000.82 183.83 991.01 163.344 992.123V989.037L172.56 985.951L154.129 979.81L157.2 992.093C142.763 991.488 105.722 997.724 96.0115 984.239C90.696 976.861 99.796 948.727 101.9 939.874L92.686 936.788V930.646L104.973 927.561L101.9 899.908L95.7569 872.27L108.046 875.341V813.909L98.8296 816.995L104.973 823.136L98.8296 829.278H95.7569L89.6133 813.924V810.838L92.686 804.696H95.7569V813.909L108.046 804.696L92.686 801.611V773.958H95.7569L101.9 798.54L111.117 795.454V755.518L98.8296 752.433L101.9 743.22L89.6133 740.134V647.979L95.7569 614.185V611.099C81.0403 598.436 86.4247 564.447 86.5516 546.596C86.9145 492.552 96.8408 427.346 86.5406 374.554L101.9 380.695L98.8296 362.27H95.7569L92.686 371.483H89.6133C86.3478 360.235 83.3732 343.114 92.686 334.618V331.532C84.8584 324.191 88.3259 315.81 92.686 306.95L86.5406 310.036V306.95L92.686 300.809C79.4099 287.783 83.3887 265.606 86.5406 248.589L101.9 263.943L92.686 270.085H101.9C99.3485 280.196 97.3301 284.564 108.046 288.525C105.748 275.318 113.886 215.355 95.7569 220.937L83.4697 217.851L80.397 187.142H83.4697L89.6133 190.213L92.686 214.795L104.973 211.709L101.9 180.986L95.7569 190.213H92.686L80.397 180.986C79.9737 161.75 64.1718 113.003 77.4461 96.8027C86.6748 85.5428 126.301 102.413 138.767 104.79C184.892 113.613 228.356 95.5893 273.814 90.2919C289.123 88.4777 316.89 82.2551 329.231 91.9307L338.448 85.7889V98.0724H347.664L356.88 85.7889L353.807 95.0015L375.312 91.9159L396.816 95.0015C396.816 84.4431 409.578 78.0534 415.248 88.8598H418.32C428.284 82.0748 435.551 83.4778 445.968 88.8598C448.544 73.0886 496.846 77.0877 510.48 76.5616L507.408 88.8598L516.623 76.5616C527.59 76.5616 545.983 74.5774 547.344 85.7889H550.416L553.487 76.5616L562.704 82.7181H565.776L596.495 76.5616L608.783 85.7889L605.712 76.5616H614.928C626.443 88.2751 639.623 83.5451 654.864 84.4159C687.916 86.2906 749.852 95.6709 777.744 76.5616C787.701 86.2311 798.378 86.0195 808.463 76.5616C824.119 82.7116 840.938 90.3881 851.47 73.4317ZM571.92 79.6472V85.7889H578.064V79.6472H571.92ZM1143.31 82.7328L1140.24 88.8746H1137.17L1134.1 82.7328H1143.31ZM1450.51 86.8519C1452.89 86.8519 1450.99 88.3544 1449.49 87.8706L1450.51 86.8519ZM2181.65 88.8746L2197.01 104.244L2178.58 91.9454L2181.65 88.8746ZM2058.77 95.0311L2061.84 101.188H2055.7L2058.77 95.0311ZM2114.06 98.1167V101.202H2104.85L2114.06 98.1167ZM89.6151 101.202L86.5443 107.344H92.6878L89.6151 101.202ZM2071.06 101.202L2077.2 110.415H2074.13L2067.98 107.329V104.258L2071.06 101.202ZM2061.84 105.336C2064.22 105.336 2062.32 106.853 2060.82 106.37L2061.84 105.336ZM2283.02 110.474H2292.24L2289.17 125.843L2283.02 110.474ZM31.2465 141.242L37.3901 291.758C24.6637 288.977 27.8393 266.438 28.3454 254.997C29.9963 217.715 25.5807 178.825 25.103 141.242H31.2465ZM86.5443 153.525L98.8314 156.611V159.696L95.7606 165.838L80.3988 159.696V162.782L92.6878 175.066L98.8314 178.151H101.904V144.357L86.5443 153.525ZM2286.1 147.428L2289.17 153.569H2283.02L2286.1 147.428ZM455.184 162.797L458.256 156.655L421.391 165.868V168.953L430.608 175.095C421.227 182.219 416.831 184.94 409.103 175.095L412.176 162.812C370.472 178.607 377.46 260.501 375.203 301.06C369.658 400.724 368.453 499.507 366.117 599.081C365.458 627.128 375.803 690.135 359.952 712.703L378.384 814.071H381.455L387.6 807.93L396.816 820.228L393.743 829.441L402.96 823.299C400.039 845.553 417.962 867.9 439.824 872.447C437.877 885.667 450.986 903.803 461.327 887.802L525.84 872.447L541.199 795.646L550.416 798.732L553.487 764.938C545.543 760.523 542.652 757.795 547.344 749.583L553.487 755.725L544.272 721.931L550.416 728.072H553.487L550.416 703.491H541.199V700.42L547.344 666.626H550.416V654.327C539.76 653.118 536.893 649.495 538.128 638.973V635.887L535.056 620.533L544.272 623.619C551.246 609.063 551.058 596.539 531.984 599.037L535.056 589.824C553.378 592.606 552.118 571.364 541.199 562.172V559.086L550.416 546.803L538.128 543.717L535.056 519.135L544.272 522.221L550.416 509.938L538.128 500.725L550.416 497.639L531.984 485.356L535.056 460.774L544.272 482.27H547.344V460.774L535.056 445.42L538.128 442.334H547.344L544.272 423.894L538.128 430.036H535.056C524.76 414.567 519.381 375.876 528.911 359.391V356.306L519.696 294.859L522.768 288.717C540.666 284.847 539.566 270.192 535.056 254.923L519.696 258.008L522.768 233.427L531.984 236.512V233.427L525.84 224.214C516.311 224.22 519.696 213.88 519.696 205.789L531.984 208.875L519.696 187.364H522.768L525.84 193.505L531.984 172.009L519.696 178.151L516.623 153.569L455.184 162.797ZM1398.29 168.998L1392.4 251.955L1389.42 420.853L1382.93 890.917L1395.22 881.704L1429.01 897.059L1472.02 881.704C1484.51 889.65 1494.05 866.841 1496.59 857.123L1521.17 860.208L1524.24 857.123L1530.38 850.981L1536.53 832.541L1535.31 794.199L1539.6 703.52L1533.46 678.953L1538.75 632.359L1539.72 525.351L1536.53 473.117C1549.67 456.215 1544.89 425.886 1545.31 405.543C1546.26 359.034 1547.88 313.732 1545.85 267.295C1544.96 246.819 1549.01 222.385 1540.85 202.925C1533.91 186.367 1506.28 180.21 1490.44 184.352L1496.58 178.21V175.125L1481.22 168.983H1465.86V175.125L1398.29 168.998ZM958.979 184.337C949.928 174.861 931.196 188.747 924.783 197.654C915.556 210.468 919.442 254.489 931.331 264.194V267.28C917.472 287.575 925.11 332.747 926.046 357.118C928.295 415.867 919.395 475.61 919.198 534.504C919.139 552.356 912.446 603.288 925.191 614.421C921.206 630.978 913.361 660.713 922.119 675.868V678.953C913.766 683.973 913.965 689.61 922.119 691.237L919.047 725.031V740.385C935.959 757.789 927.851 794.444 919.047 814.116L925.191 807.974H928.263L919.047 838.683L928.263 832.541C915.468 874.775 950.882 856.359 969.154 877.349C973.968 882.852 973.164 893.236 974.343 900.129H980.487L983.559 890.917L1005.06 897.059C1002.58 888 1000.73 872.837 1014.28 878.619H1035.78L1029.64 893.988L1054.21 866.335L1060.36 807.974L1063.43 786.463L1057.29 774.18C1080.52 753.776 1051.95 694.757 1069.57 666.655L1063.43 611.365V608.279C1078.9 592.423 1067.49 542.131 1063.43 522.265H1066.5V528.407H1069.57L1072.65 387.088L1066.5 390.174V387.088L1072.65 380.946L1069.54 313.373L1069.57 172.054L1020.42 168.968L958.979 184.337ZM2292.23 168.968V175.11H2286.08L2292.23 168.968ZM519.684 178.225H525.828V181.311V184.396L516.612 181.311L519.684 178.225ZM2003.46 178.225L1969.67 212.019C1971.29 220.159 1970.98 223.1 1963.52 221.232L1957.48 457.762L1960.45 531.507C1955.95 543.856 1949.1 561.526 1960.45 571.443V574.529C1950.39 583.328 1954.85 597.702 1960.45 608.309C1951.67 609.82 1951.75 669.336 1960.45 675.897C1948.28 708.153 1942.13 766.913 1957.37 798.776H1951.23C1961.04 830.657 1950.75 865.04 1957.71 897C1960.24 908.586 1970.55 907.28 1972.73 897H1997.31H2000.38L2003.45 903.141L2021.89 897L2015.74 890.858C2043.98 855.137 2032.59 774.261 2032.08 731.114C2030.66 608.748 2033.97 486.064 2036.74 363.776C2037.7 321.397 2047.4 242.975 2021.89 208.875L2012.67 211.96L2021.89 205.804V202.733L2003.45 178.151M1244.67 181.237C1236.28 191.263 1219.49 205.004 1226.24 218.102L1217.02 270.321L1223.17 328.683C1211.2 335.189 1214.64 414.711 1223.17 414.711L1220.1 454.647H1213.95C1218.9 470.031 1223.41 499.444 1213.95 513.008L1217.02 531.448C1208.76 532.779 1211.37 539.626 1217.02 543.732L1207.81 595.951L1204.74 614.391V660.469L1205.78 771.065L1204.74 826.355V829.441L1210.88 918.525H1213.95C1213.95 898.829 1240.24 914.056 1244.67 903.171L1266.18 900.085L1256.96 854.007V850.922V847.836L1264.48 801.758L1261.27 657.369L1256.96 605.149V595.937C1271.16 585.88 1263.54 548.418 1266.18 531.419H1263.1V537.561H1260.03V519.135C1269.32 508.91 1266.35 499.884 1260.03 488.412L1269.25 485.326V436.178L1263.1 439.263C1272.55 421.122 1271.21 400.897 1260.03 383.958C1271.57 381.418 1266.68 375.177 1260.03 368.604C1269.35 356.231 1265.7 337.505 1265.71 322.526C1265.75 278.883 1264.2 220.592 1244.67 181.237ZM648.704 184.293L651.775 196.576C642.777 198.391 644.131 204.28 651.775 205.804L642.559 218.087L648.704 390.115C640.65 391.445 643.352 422.281 648.704 426.98C626.504 479.863 659.362 546.681 639.487 599.007C650.259 599.007 641.664 643.609 642.559 654.313C645.534 690.034 638.749 726.47 642.559 761.822C644.567 780.454 651.257 793.937 649.216 814.057C647.722 828.8 656.611 859.446 673.279 857.064C673.884 908.362 712.56 838.292 716.288 820.198L704 817.113L710.143 789.46C699.005 787.586 697.852 777.944 707.071 780.248L700.927 743.382H704L710.143 752.595L713.215 724.957H710.143V737.241L700.927 715.745L713.215 709.588L700.927 712.674L707.071 666.596L716.288 672.738L700.927 657.383L707.071 617.447L713.215 645.1H716.288L707.071 626.66V623.574C719.065 613.475 715.432 597.447 700.927 592.851V565.213L710.143 571.355L707.071 559.071C716.678 550.297 703.854 538.779 700.927 528.348L713.215 537.561H716.288L710.143 485.341V482.255C716.699 473.457 716.454 466.846 707.071 460.745L700.927 485.326V457.674H713.215L714.449 347.078L707.072 301.001L710.144 291.788L700.928 285.646L710.144 276.434L697.856 282.575L694.784 264.135L707.072 261.065V227.27H697.856V224.185L694.784 193.461L688.64 199.603L664.064 205.745C662.201 197.248 660.103 197.837 651.775 199.603L654.848 184.249L648.704 184.293ZM793.088 187.334L799.231 214.972L793.088 242.625L802.304 254.908L796.16 248.766H793.088L799.231 261.065L796.16 310.213L799.231 411.581L802.304 451.517L796.16 491.453L805.376 488.368L808.448 497.595L796.16 503.737H805.376V509.879L811.52 506.793L799.231 537.516L802.304 531.375H805.376L793.088 540.587V559.012H796.16L802.304 549.8V568.24L793.088 565.154L802.304 571.296V583.579L793.088 580.494V598.934L802.304 592.792L808.448 608.146V611.232L802.304 614.317V617.403L808.448 623.545L793.088 626.63L796.16 620.474H793.088C785.679 637.969 784.744 662.294 799.231 675.779V678.865L786.944 685.006V709.588H790.016L793.088 703.432L786.944 724.942L796.16 740.297L786.944 737.211V758.722H790.016L799.231 743.368L796.16 749.509L805.376 746.424C803.755 758.059 803.344 769.11 790.016 770.991L796.16 801.714L793.088 792.502H790.016V804.785L802.304 807.871C789.432 823.11 790.129 832.079 805.376 844.736L814.592 869.317H817.664L836.096 804.8L823.808 783.304V718.786V715.7L829.952 712.615C825.447 704.493 821.504 681.313 829.952 675.75C825.55 652.812 820.314 622.912 833.024 602.019C826.604 585.565 827.17 560.506 833.024 543.658L826.88 546.744V543.658L836.096 516.005C828.029 504.987 830.033 491.947 839.168 482.211L836.096 451.503H829.952V423.85L839.168 429.992C829.137 397.917 827.27 359.173 828.276 325.538C828.76 308.944 835.041 282.56 820.736 270.248L826.88 261.035V257.949L817.664 193.432L814.592 190.346L793.088 199.573V187.334ZM1711.62 187.275C1699.95 217.566 1699.47 263.547 1703.79 296.069C1705.21 306.719 1703.37 321.416 1711.62 328.594C1696.85 372.213 1706.49 424.683 1705.88 469.898C1705.39 505.395 1696.02 543.062 1708.54 577.423L1699.33 580.508V583.594C1710.96 605.733 1706.28 662.46 1696.26 684.962L1702.4 681.891L1696.26 688.033V691.119H1705.47V694.204L1696.26 700.346L1705.47 715.7V749.495L1696.26 746.409V749.495L1702.4 758.707L1696.26 755.622V758.707L1702.4 764.849L1699.33 850.863L1708.54 866.232L1705.47 881.586L1711.62 878.501L1705.47 884.642V896.941L1708.54 921.507L1717.76 927.664H1720.83L1742.34 915.366L1745.41 930.735H1748.48C1751.49 906.921 1759.01 863.787 1736.19 847.792L1739.26 838.565H1742.34V847.792H1745.41L1733.12 350.12L1723.9 356.261L1720.83 331.694H1723.9L1733.12 347.049C1732.16 300.654 1738.51 228.595 1717.76 187.305L1711.62 187.275ZM1834.5 190.39C1827.52 211.828 1834.56 233.15 1834.07 254.908C1832.66 315.707 1835.99 375.692 1834.56 436.207C1834.13 454.796 1841.96 506.09 1828.37 519.091C1834.69 527.521 1836.55 556.036 1834.51 568.24C1832.75 578.798 1844.89 596.184 1831.44 592.821V602.034L1837.59 598.948L1831.44 721.827L1840.66 724.913L1831.44 801.714H1837.59L1840.66 823.225C1834.42 830.028 1833.87 841.382 1840.66 847.792V872.374V875.459L1868.31 869.317C1868.85 857.707 1873.99 837.906 1859.09 835.523V832.438L1868.31 829.352L1856.02 774.062L1868.31 783.274C1868.29 757.235 1868.73 739.94 1852.95 718.756L1868.31 727.984C1868.31 715 1870.77 704.952 1859.09 697.26H1868.31C1867.16 680.304 1874.97 655.731 1856.02 648.112C1876.43 626.469 1863.19 586.171 1862.16 559.012L1852.95 562.098V537.531H1856.02L1859.09 555.956H1862.16L1859.09 436.148H1856.02V451.503L1849.87 430.006L1859.09 433.092C1859.09 402.336 1860.87 368.929 1846.8 340.937L1856.02 344.007L1852.95 276.434L1846.8 279.519C1852.36 254.562 1851.02 211.894 1834.5 190.39ZM1625.62 196.591C1607.55 235.693 1615.92 298.127 1617.02 340.863C1619.02 418.261 1614.36 496.815 1613.33 574.455L1622.55 568.299L1610.26 617.462H1616.4L1607.19 657.398V681.965H1613.33L1607.19 697.334V728.043V743.412V746.498L1613.33 752.639L1607.19 798.717V801.803V804.888H1613.33L1601.04 863.25H1597.97L1601.04 823.314C1582.84 827.244 1590.61 868.394 1604.12 875.548L1601.04 869.391H1604.12C1612.49 876.866 1637.44 889.898 1646.88 877.452C1653.73 868.436 1648.25 846.603 1649.18 835.73C1652.06 801.865 1646.62 767.936 1648.15 734.229C1648.95 716.619 1654.4 694.262 1644.05 678.939V675.853C1650.65 669.026 1645.89 659.076 1646.89 649.854C1649.89 622.303 1648.81 595.711 1649.15 568.063C1650.25 477.965 1647.42 388.062 1647.13 297.989C1647.01 266.682 1651.34 218.065 1625.62 196.591ZM261.657 218.131L221.721 239.642L227.865 436.252L218.649 433.166V436.252C230.259 448.552 227.865 463.185 227.865 479.258C227.865 513.661 235.299 557.795 221.721 589.839C241.302 607.431 204.766 674.651 224.792 678.939L221.721 691.222H218.649V685.08H215.576L227.865 709.647L215.576 706.576V728.072L224.792 755.725H215.576V758.811L227.865 783.378C223.438 803.497 224.357 826.398 234.009 844.824L227.865 841.739V844.824L240.152 854.037L237.081 869.391L270.873 863.25L286.233 897.044C285.567 905.389 291.5 924.035 299.919 908.796C306.686 896.556 306.799 882.822 307.737 869.391L320.025 875.548V872.462C309.565 858.233 322.927 826.038 325.298 809.716C330.014 777.273 320.95 730.887 319.469 697.349C315.822 614.774 319.347 531.307 315.671 448.52C311.982 364.754 295.912 282.762 289.301 199.692C275.228 200.78 267.816 205.384 261.657 218.131ZM1720.85 208.875L1723.92 215.031H1717.78L1720.85 208.875ZM89.6207 221.217L104.981 233.501V236.586L80.4044 233.501L89.6207 221.217ZM531.989 227.388L535.061 248.884H538.133L531.989 227.388ZM700.949 233.56V242.772H697.877L700.949 233.56ZM1607.19 239.716V252H1610.26L1607.19 239.716ZM482.837 245.873V252.014H476.693V245.873H482.837ZM1607.19 255.1V273.54H1610.26L1607.19 255.1ZM482.837 264.386L476.693 270.528V264.386H482.837ZM704.021 264.386V273.599H707.094L704.021 264.386ZM525.845 270.558L535.061 273.628V276.714V279.8L522.773 282.885L525.845 270.558ZM1232.41 270.602L1235.48 301.325C1226.21 293.488 1227.24 280.9 1232.41 270.602ZM2286.1 270.602L2292.25 285.956L2301.46 279.815L2295.32 285.956V301.325H2289.17L2286.1 298.24V270.602ZM1607.19 276.817V286.03H1610.26L1607.19 276.817ZM34.3248 295.302L37.3975 307.585L28.1812 295.302H34.3248ZM808.469 295.302V304.514L802.325 295.302H808.469ZM98.837 298.387C101.558 306.14 105.095 309.467 95.7642 310.671V313.756L104.981 326.04H108.053L111.126 310.686V307.6L98.837 298.387ZM1607.19 301.458V332.182H1610.26L1607.19 301.458ZM805.397 319.942L811.541 323.028V326.114L805.397 319.942ZM37.3975 326.143V350.71H34.3248L31.2539 326.143H37.3975ZM98.837 326.143L92.6934 338.427L101.91 335.341L98.837 353.766L111.126 347.625V335.341L104.981 338.427L108.053 329.214L98.837 326.143ZM1607.19 335.356L1604.12 356.852H1607.19V335.356ZM37.3993 359.997L31.2558 369.209V372.295L37.3993 412.231L28.183 409.145L34.3266 399.933C24.8742 387.457 26.9062 371.196 37.3993 359.997ZM1521.17 369.239V378.451L1515.03 375.38V372.295L1521.17 369.239ZM215.574 378.451V387.664H218.647L215.574 378.451ZM528.919 387.664L544.279 390.75V387.664L538.135 381.522L528.919 387.664ZM811.543 381.522V387.664L805.399 381.522H811.543ZM95.7661 387.693V390.779L111.128 399.992V384.637L95.7661 387.693ZM1232.41 390.794V409.234H1229.33L1232.41 390.794ZM1604.12 403.107V427.689H1607.19L1604.12 403.107ZM710.167 406.192V412.334H704.023V406.192H710.167ZM805.399 409.278V418.491H802.327L805.399 409.278ZM31.2558 412.364L34.3266 661.192C18.1793 650.719 27.1414 619.8 27.0259 602.831C26.7236 560.791 28.1812 518.958 28.1812 476.881C28.1812 457.161 23.5818 430.651 31.2558 412.364ZM1266.2 424.706V430.848L1260.05 424.706H1266.2ZM1852.95 425.725C1855.33 425.725 1853.43 427.242 1851.93 426.758L1852.95 425.725ZM2295.32 427.792V430.863L2286.1 433.948V424.736L2295.32 427.792ZM101.912 430.907L111.128 437.049V433.963L101.912 430.907ZM1232.41 437.049V446.261H1229.34L1232.41 437.049ZM1601.05 440.134V498.496H1607.19C1607.87 480.281 1614.03 455.017 1601.05 440.134ZM2301.46 446.306L2292.25 455.518L2298.39 470.873H2295.32L2286.1 458.589L2292.25 446.306H2301.46ZM101.912 452.477L111.128 467.831L101.912 464.746L104.984 473.958L114.199 461.675L101.912 452.477ZM1232.41 455.548V467.831H1229.34L1232.41 455.548ZM1733.14 461.704V464.79L1723.93 467.876V458.663L1733.14 461.704ZM1723.93 480.336L1727 492.62H1723.93V480.336ZM1232.41 483.422V492.634H1229.34L1232.41 483.422ZM1856.03 498.806L1859.1 504.947H1852.95L1856.03 498.806ZM1619.48 509.067C1621.86 509.067 1619.97 510.584 1618.46 510.1L1619.48 509.067ZM104.986 511.133L101.913 523.417L114.202 520.331L104.986 511.133ZM811.546 517.231L808.474 551.01L805.402 541.798H811.546V517.231ZM2286.11 523.314V541.754C2279.09 535.549 2280.75 530.419 2286.11 523.314ZM108.059 529.485L98.8425 535.627L111.13 547.925L108.059 529.485ZM1229.34 541.827V551.04H1223.19V541.827H1229.34ZM1601.05 544.913V572.551H1604.12L1601.05 544.913ZM1226.27 555.189C1228.64 555.189 1226.75 556.706 1225.24 556.222L1226.27 555.189ZM811.546 560.326L808.474 581.837H805.402L811.546 560.326ZM1229.34 560.326L1226.27 578.766H1223.19V560.326H1229.34ZM541.21 563.412L544.282 572.625L538.138 581.852H535.066L531.994 572.625L541.21 563.412ZM2206.23 578.84V588.053H2203.16L2206.23 578.84ZM544.282 581.911V588.067H538.138L544.282 581.911ZM108.059 588.067L104.986 603.437H108.059L114.202 591.153L108.059 588.067ZM2230.81 591.153L2227.74 612.649H2221.59L2230.81 591.153ZM704.026 597.31V606.537H700.954L704.026 597.31ZM1859.1 597.31V606.537L1852.95 597.31H1859.1ZM790.042 603.466V615.764L796.186 603.466H790.042ZM2276.89 603.466L2270.75 612.693V603.466H2276.89ZM2206.23 606.552V612.693L2200.09 606.552H2206.23ZM1862.17 609.637L1859.1 618.85H1856.03L1862.17 609.637ZM1594.91 621.98V680.341H1597.98C1602.76 662.683 1604.54 638.06 1594.91 621.98ZM95.7698 634.308L108.059 643.52V640.449L95.7698 634.308ZM1226.27 640.464L1223.19 652.762H1220.12V640.464H1226.27ZM1727 640.464L1733.15 652.762V655.833L1723.93 658.919L1727 640.464ZM710.17 649.751V658.963H713.242L710.17 649.751ZM101.913 652.821V665.12H104.986L101.913 652.821ZM538.138 655.907V671.276H531.994L538.138 655.907ZM805.402 655.907V674.347H802.33L805.402 655.907ZM1223.19 655.907V668.205H1220.12L1223.19 655.907ZM34.3303 665.164V766.547L25.114 763.461V665.149L34.3303 665.164ZM1223.19 674.406V708.2H1220.12L1223.19 674.406ZM786.97 677.492V683.633L793.114 677.492H786.97ZM2203.16 677.492L2197.02 686.704L2193.95 677.492H2203.16ZM667.162 689.819V723.614H664.09L667.162 689.819ZM1727 699.076V717.516H1723.93L1727 699.076ZM2221.59 699.076V711.36L2212.38 708.274L2221.59 699.076ZM1733.15 703.181C1735.52 703.181 1733.63 704.683 1732.12 704.199L1733.15 703.181ZM541.21 708.318L538.138 717.531L547.354 714.445L535.066 729.815L541.21 708.318ZM101.913 711.389V723.673L111.13 714.46L101.913 711.389ZM1223.19 720.631V735.986H1220.12L1223.19 720.631ZM667.162 729.888V751.384H664.09L667.162 729.888ZM1723.93 729.888L1733.15 739.101L1720.86 732.959L1723.93 729.888ZM1856.03 732.959L1865.24 739.101L1856.03 748.314V732.959ZM802.33 737.064C804.707 737.064 802.813 738.581 801.308 738.097L802.33 737.064ZM1594.91 748.343V766.783H1597.98L1594.91 748.343ZM667.162 757.585V772.94H664.09L667.162 757.585ZM1862.17 757.585L1852.95 769.869L1856.03 757.585H1862.17ZM786.97 763.742V769.883H793.114L786.97 763.742ZM1723.93 763.742V772.969H1720.86L1723.93 763.742ZM704.026 766.827L710.17 772.969V766.827H704.026ZM1223.19 766.827V776.04H1220.12L1223.19 766.827ZM2267.67 766.827V782.196H2264.6L2261.53 766.827H2267.67ZM2215.45 772.969L2218.52 846.699H2215.45C2210.61 826.35 2207.26 792.484 2215.45 772.969ZM1594.91 776.055L1591.83 785.282H1594.91V776.055ZM547.354 779.14V791.424C538.597 789.549 538.585 787.437 541.21 779.14H547.354ZM34.3303 782.226L31.2576 812.949H37.4012V865.169C19.1337 860.089 27.0232 799.557 28.1867 782.226H34.3303ZM2200.09 788.397L2197.02 806.822H2193.95V788.397H2200.09ZM1223.19 791.483V800.695H1220.12L1223.19 791.483ZM2273.82 791.483V797.625H2267.67V791.483H2273.82ZM381.466 804.844C383.843 804.844 381.95 806.361 380.444 805.878L381.466 804.844ZM2261.53 803.811V816.109H2258.46L2261.53 803.811ZM808.474 816.153V825.366H805.402L808.474 816.153ZM1594.91 816.153L1591.83 822.295H1597.98L1594.91 816.153ZM1220.12 825.41L1223.19 846.906H1220.12V825.41ZM2264.6 831.552L2258.46 840.764V831.552H2264.6ZM104.986 837.723L92.6989 856.148L98.8425 846.936V843.85L92.6989 834.637L104.986 837.723ZM2197.02 837.723L2200.09 859.219C2191.03 852.67 2190.33 846.637 2197.02 837.723ZM1733.15 840.794V846.95L1727 840.794H1733.15ZM313.882 853.24V862.452H310.81L313.882 853.24ZM1487.39 865.567L1490.46 874.78H1487.39V865.567ZM34.3303 868.653L28.1867 880.937V868.653H34.3303ZM2197.02 874.824V887.108L2187.8 884.022V874.81L2197.02 874.824ZM2267.67 887.152L2261.53 911.719C2241.78 905.14 2259.69 892.081 2258.46 887.152H2267.67ZM1008.15 890.238L1011.23 902.521H1014.3L1008.15 890.238ZM1017.37 890.238L1026.59 899.45L1023.51 890.238H1017.37ZM2212.38 908.692L2209.31 924.062H2206.23L2212.38 908.692ZM2249.24 937.452C2251.62 937.452 2249.73 938.955 2248.22 938.471L2249.24 937.452ZM1094.17 967.231V970.302H1103.39L1094.17 967.231ZM879.132 970.302L872.988 973.387V976.473L879.132 970.302ZM897.564 973.417V976.502L909.852 973.417H897.564ZM1131.04 970.331V973.417H1140.25L1131.04 970.331ZM1201.69 973.417V976.502H1210.91L1201.69 973.417ZM1232.41 973.417V976.502L1241.63 979.588L1232.41 973.417ZM605.724 979.603V982.688H621.083V976.547L605.724 979.603ZM974.364 977.58C976.741 977.58 974.847 979.083 973.342 978.599L974.364 977.58ZM1674.78 976.547V982.688L1668.64 976.547H1674.78ZM1349.15 979.632L1343 985.774V979.632H1349.15ZM1604.12 979.632V985.774H1597.98L1604.12 979.632ZM1745.44 979.632V985.774H1739.29V979.632H1745.44ZM191.004 982.718L197.147 988.86V982.718H191.004ZM230.94 982.718L237.083 988.86V982.718H230.94ZM267.804 985.804V988.889H277.02L267.804 985.804ZM458.268 982.718V991.931H455.196L458.268 982.718ZM1475.1 982.718V985.804H1465.88L1475.1 982.718ZM1637.92 982.718V985.804H1628.7L1637.92 982.718ZM1736.22 982.718V985.804L1714.72 988.889L1736.22 982.718ZM108.061 985.818V988.904L120.348 991.99V988.904L108.061 985.818ZM1981.98 985.818V995.046H1978.91L1981.98 985.818ZM2252.32 985.818V988.904H2243.1L2252.32 985.818ZM2107.93 988.904L2111 995.061H2104.86L2107.93 988.904ZM980.508 1025.83L983.579 1028.9V1031.98L980.508 1035.07H977.436L974.364 1031.98V1028.9L980.508 1025.83ZM1045.02 1028.9L1023.52 1035.06V1025.83L1045.02 1028.9ZM1060.38 1025.83H1081.88L1078.81 1035.06H1054.24V1031.97L1060.38 1025.83ZM1158.68 1035.04L1170.97 1031.96C1159.42 1040.32 1149.43 1033.22 1137.18 1028.87L1158.68 1035.04ZM879.132 1028.87L876.059 1038.08L860.7 1028.87H879.132ZM891.419 1028.87H909.852V1031.96H903.707V1035.04H912.924V1038.13L900.636 1031.98C895.514 1033.62 888.462 1036.01 891.419 1028.87ZM842.268 1031.98V1038.13L836.123 1031.98H842.268ZM1247.77 1031.98L1250.84 1041.2H1238.56V1038.11L1247.77 1031.98ZM1653.28 1035.06L1644.06 1044.27L1640.99 1031.98L1653.28 1035.06ZM1665.56 1033C1667.94 1033 1666.05 1034.52 1664.54 1034.04L1665.56 1033ZM1690.14 1031.98L1696.28 1038.13L1705.5 1035.04V1038.13C1698.39 1039.82 1686.05 1042.85 1690.14 1031.98ZM1754.65 1031.98L1745.44 1038.13V1035.04L1754.65 1031.98ZM685.596 1044.24L608.795 1047.32C618.911 1033.3 675.924 1029.76 685.596 1044.24ZM707.1 1038.1L697.884 1044.24V1035.03L707.1 1038.1ZM743.963 1035.04V1038.13L731.676 1041.21L743.963 1035.04ZM823.835 1036.09C826.212 1036.09 824.32 1037.61 822.814 1037.12L823.835 1036.09ZM1217.05 1035.06V1041.21L1210.91 1035.06H1217.05ZM1336.86 1035.06V1044.28H1333.79L1336.86 1035.06ZM1481.24 1035.06V1044.28H1478.17L1481.24 1035.06ZM1576.48 1044.28L1567.26 1038.14L1561.12 1044.28L1558.04 1035.06L1576.48 1044.28ZM1680.92 1035.06L1674.78 1044.28V1041.2L1680.92 1035.06ZM559.644 1038.14V1041.21C550.687 1045.08 547.289 1046.06 541.211 1038.14H559.644ZM605.724 1047.35H584.22C590.645 1037.56 598.986 1037.85 605.724 1047.35ZM1610.27 1038.14L1613.34 1044.28H1607.2L1610.27 1038.14ZM1852.96 1038.14V1047.35H1849.88L1852.96 1038.14ZM2154.01 1038.14L2144.8 1044.28V1041.2L2154.01 1038.14ZM58.9083 1041.2C112.068 1049.77 171.056 1048.78 224.783 1046.76C241.165 1046.16 276.802 1041.98 286.235 1056.54H111.131C97.5651 1056.54 61.8285 1058.55 58.9083 1041.2ZM488.987 1041.18V1050.4L473.627 1047.31L488.987 1041.18ZM516.636 1042.2C519.013 1042.2 517.12 1043.7 515.614 1043.22L516.636 1042.2ZM762.396 1042.2C764.772 1042.2 762.879 1043.7 761.373 1043.22L762.396 1042.2ZM1819.16 1047.31H1809.95L1813.02 1041.17L1819.16 1047.31ZM1880.6 1041.17V1050.38H1877.53L1880.6 1041.17ZM1923.61 1041.17V1047.31L1917.47 1041.17H1923.61ZM1932.83 1042.2C1935.2 1042.2 1933.31 1043.7 1931.81 1043.22L1932.83 1042.2ZM1963.55 1041.17H1972.76H1975.84L1972.76 1050.38L1960.48 1044.24L1963.55 1041.17ZM2021.92 1041.15V1044.24L2006.56 1050.38L2021.92 1041.15ZM320.028 1044.25L323.1 1053.47H338.46V1056.55H301.596L320.028 1044.25ZM442.908 1050.41H452.124L449.052 1044.27L461.339 1047.35L430.62 1053.5C433.801 1047.63 442.98 1039.55 442.908 1050.41ZM369.18 1047.35L375.324 1056.57C368.409 1055.12 365.747 1053.91 369.18 1047.35ZM393.755 1056.57H381.467L384.54 1047.35L393.755 1056.57ZM495.132 1048.37C497.508 1048.37 495.615 1049.89 494.109 1049.41L495.132 1048.37ZM1892.89 1048.37C1895.27 1048.37 1893.37 1049.89 1891.87 1049.41L1892.89 1048.37Z" fill="#f2efe1"/>
</svg>
