<svg width="2793" height="3298" viewBox="0 0 2793 3298" fill="none" xmlns="http://www.w3.org/2000/svg">
<path d="M1121.24 2747.08L1127.38 2753.22V2747.08H1121.24Z" fill="#f2efe1"/>
<path d="M2740.22 2562.27L2743.3 2577.62H2746.38L2740.22 2562.27Z" fill="#f2efe1"/>
<path d="M2715.58 2515.88L2718.66 2525.09H2721.74V2515.88H2715.58Z" fill="#f2efe1"/>
<path d="M2706.28 2484.84V2506.37H2709.36L2712.44 2500.23L2709.36 2512.51C2718.09 2510.63 2720.85 2505.06 2712.44 2500.23L2694.01 2451.06C2676.07 2461.35 2693.14 2478.23 2706.28 2484.84Z" fill="#f2efe1"/>
<path d="M2681.72 2442.92L2682.75 2443.96C2681.23 2444.56 2679.36 2442.92 2681.72 2442.92Z" fill="#f2efe1"/>
<path d="M1618.88 2414.02C1602.96 2455.54 1610.96 2511.4 1608.8 2555.33C1608.02 2572.06 1601.67 2594.28 1612.73 2607.54C1606.14 2614.56 1598.85 2632.61 1609.65 2638.28L1606.57 2647.49H1612.71L1603.5 2665.92V2687.41L1612.71 2696.65L1603.5 2693.55V2696.65L1609.64 2699.72L1603.5 2708.94V2742.75H1606.58L1612.72 2736.57C1608.97 2743.72 1602.02 2753.45 1612.72 2755.03V2764.24L1606.58 2761.14V2794.95L1615.79 2798.02L1612.71 2810.3L1603.5 2807.23L1612.71 2819.52H1603.5V2837.94V2856.4L1609.64 2868.68C1601.22 2873.52 1603.95 2879.1 1612.72 2880.96L1606.58 2890.18C1618.96 2907.45 1617.71 2938.39 1609.66 2957.77L1612.75 2988.47V2991.57C1629.27 2982.12 1637.65 2959.86 1643.47 2942.41H1646.55L1649.64 2973.12L1643.49 2970.05V2973.12L1661.92 2979.26L1658.84 2994.65H1661.92C1665.91 2982.98 1667.06 2973.8 1652.71 2973.12V2963.91H1671.14L1668.05 2930.13C1661.94 2930.13 1661 2896.66 1661.4 2887.11C1663.4 2839.88 1654.74 2790.86 1654.74 2742.75C1654.74 2731.95 1656.92 2691.1 1643.48 2693.58C1651.46 2674.79 1655.59 2653.74 1643.48 2635.21L1649.62 2629.06L1646.54 2598.36L1640.39 2604.5H1628.11L1637.32 2598.36L1640.41 2533.84L1634.26 2503.13L1637.35 2481.6L1625.06 2475.46L1631.2 2478.56L1628.12 2472.42L1640.41 2466.25L1625.05 2469.35L1628.13 2460.14L1637.35 2463.21C1643.33 2442.91 1642.07 2420.63 1618.92 2414.07M1631.2 2563.31C1633.56 2563.31 1631.81 2564.82 1630.17 2564.34L1631.2 2563.31ZM1612.83 2623.72L1606.68 2629.86V2623.72H1612.83ZM1643.56 2632.99V2636.06L1634.34 2639.16L1643.56 2632.99ZM1643.55 2664.85C1645.91 2664.85 1644.16 2666.37 1642.52 2665.89L1643.55 2664.85ZM1640.41 2784.08V2790.23H1634.26V2784.08H1640.41ZM1643.5 2929.04H1646.58L1643.5 2938.25H1640.41L1643.5 2929.04ZM1661.93 2956.73V2962.87H1655.79V2956.73H1661.93Z" fill="#f2efe1"/>
<path d="M2263.91 2342.8L2270.06 2358.15H2273.14L2263.91 2342.8Z" fill="#f2efe1"/>
<path d="M2233.16 2277.98L2242.37 2290.27L2245.45 2287.2L2233.16 2277.98Z" fill="#f2efe1"/>
<path d="M2220.92 2244.08L2230.13 2268.65H2233.22L2220.92 2244.08Z" fill="#f2efe1"/>
<path d="M2104.1 1898.84L2107.18 1908.06H2110.27L2104.1 1898.84Z" fill="#f2efe1"/>
<path d="M1363.72 1898.84L1366.81 1908.06H1369.89V1898.84H1363.72Z" fill="#f2efe1"/>
<path d="M2003.02 1716.98C2006.35 1757.51 2032.41 1800.15 2049.1 1836.78C2092.47 1931.94 2157 2029.59 2181.2 2131.7C2167.76 2134 2190.03 2176.07 2199.63 2180.86L2193.49 2168.58L2205.78 2187L2196.56 2183.9L2205.78 2211.57H2208.86L2205.78 2187C2210.74 2196.63 2218.96 2206.93 2208.86 2214.64V2217.71L2224.22 2239.21L2218.08 2217.71H2221.16L2233.45 2236.14L2254.95 2297.58L2242.67 2291.44L2261.1 2334.46H2264.18L2254.95 2297.58H2258.05L2294.91 2380.53L2273.41 2359.03L2291.84 2395.88H2294.92L2294.91 2380.53H2298.01L2313.37 2417.41L2294.94 2402.02C2299.96 2419.18 2311 2454.33 2328.73 2460.4C2324.8 2483.14 2351.38 2540.81 2371.74 2552.56V2567.94H2377.88L2380.96 2558.7H2384.05C2381.27 2568.42 2378.78 2573.64 2387.13 2580.22L2384.05 2567.94L2399.4 2595.58L2384.05 2586.36L2431.67 2687.73L2457.77 2724.61C2455.42 2738.27 2462.13 2760.88 2479.28 2752.25L2500.78 2795.24L2473.14 2767.6C2512.55 2868.27 2566.86 2966.86 2611.78 3065.6C2624.32 3093.17 2640.06 3156.2 2666.67 3170.04L2700.46 3148.54L2697.38 3142.4C2704.4 3141.61 2717.6 3143.3 2722.61 3137.38C2732.05 3126.18 2712.92 3098.95 2703.52 3093.26C2706.49 3068.12 2681.28 3039.27 2671.51 3016.46C2646.87 2958.95 2616 2904.57 2589.27 2848.01C2578.01 2824.19 2562.97 2782.76 2540.71 2767.6C2542.28 2754.05 2537.32 2743.68 2525.35 2736.9L2513.06 2718.47C2517.11 2684.26 2479.78 2639.7 2463.66 2610.81C2456.67 2598.3 2452.13 2584.41 2439.33 2577.15C2441.15 2564.59 2438.24 2555.98 2427.04 2549.51C2427.65 2536.84 2416 2502.13 2402.47 2500.35C2403.38 2481.2 2385.7 2444.76 2368.67 2435.83C2369.28 2423.51 2363.17 2401.63 2350.24 2398.98L2353.33 2389.77H2347.19C2349.12 2370.04 2324.5 2323.24 2307.25 2312.97C2308.7 2288.99 2272.02 2210.92 2251.95 2196.22C2257.64 2168.57 2221.27 2122.71 2209.29 2097.83C2204.09 2087.06 2203.54 2073.07 2190.51 2070.28L2193.6 2082.57L2187.45 2067.21L2175.17 2051.86L2193.6 2064.14L2190.51 2048.76H2172.08L2162.87 2021.12L2178.22 2045.69H2181.31L2172.09 2018.05H2156.73L2165.95 2011.91L2159.8 1999.62H2156.72V2011.91L2147.51 1993.48L2156.72 1996.55L2144.43 1971.98H2141.35L2147.49 1984.27C2138.63 1979.01 2138.59 1975.63 2141.35 1965.84L2132.13 1971.98L2125.99 1947.42H2129.07L2125.99 1935.1L2113.7 1938.2L2110.62 1925.92L2122.9 1932.06V1919.78C2100.64 1920.38 2084.28 1881.45 2082.97 1861.4L2049.18 1803.03H2058.39V1799.96L2046.1 1796.86V1793.79C2056.96 1783.37 2038.27 1756.89 2033.82 1744.62L2027.67 1747.72L2024.59 1732.37L2009.23 1716.98H2003.09M2196.43 2087.05V2093.19L2190.29 2087.05H2196.43ZM2202.55 2100.4C2204.91 2100.4 2203.16 2101.92 2201.53 2101.43L2202.55 2100.4ZM2187.18 2139.44L2190.26 2154.79H2187.18V2139.44ZM2270.1 2250.25V2259.46L2263.96 2256.39V2253.29L2270.1 2250.25ZM2297.68 2311.82L2294.6 2314.92L2288.46 2305.7L2297.68 2311.82ZM2316.26 2420.24L2325.48 2432.53L2359.27 2521.61L2365.42 2530.82H2362.33C2347.71 2509.6 2306.16 2444.59 2316.26 2420.24ZM2359.17 2442.92L2360.19 2443.92C2358.68 2444.53 2356.81 2442.92 2359.17 2442.92ZM2374.52 2472.57H2371.44L2365.29 2463.35C2373.48 2461.42 2374.77 2464.8 2374.52 2472.57ZM2392.95 2494.3L2386.8 2500.44V2494.3H2392.95ZM2402.23 2515.85V2518.95H2393.01L2402.23 2515.85ZM2371.57 2540.69V2552.97H2368.48L2371.57 2540.69ZM2383.88 2553.03L2377.73 2562.24L2374.65 2553.03H2383.88ZM2405.41 2602.13V2620.56H2402.32L2399.24 2602.13H2405.41ZM2411.56 2620.62L2420.78 2639.04C2411.23 2635.72 2408.18 2630.36 2411.56 2620.62ZM2420.75 2642.23L2433.04 2666.8H2429.96L2417.67 2651.44L2420.75 2642.23ZM2442.28 2679.23L2454.56 2694.61L2451.48 2709.97H2448.4L2442.28 2679.23ZM2457.61 2716.23L2466.83 2722.37L2479.11 2753.11L2476.03 2756.18H2469.89L2466.8 2753.11L2460.66 2737.75L2457.61 2716.23ZM2509.79 2731.67V2737.81L2503.64 2731.67H2509.79ZM2546.72 2796.36V2805.58H2540.58V2796.36H2546.72ZM2503.71 2799.46L2512.92 2824.03L2522.14 2827.1L2528.29 2851.7L2512.92 2845.56C2514.56 2837.57 2515.89 2831.55 2506.78 2830.2L2503.71 2799.46ZM2555.91 2814.88L2562.06 2827.16L2549.77 2817.95L2555.91 2814.88ZM2558.96 2831.3C2561.32 2831.3 2559.56 2832.81 2557.93 2832.33L2558.96 2831.3ZM2531.35 2859.05C2533.71 2859.05 2531.95 2860.54 2530.32 2860.06L2531.35 2859.05ZM2540.5 2870.36L2537.42 2873.43L2528.2 2864.22L2540.5 2870.36ZM2543.57 2876.53L2546.66 2885.74L2537.44 2879.6L2543.57 2876.53ZM2546.67 2888.9L2558.96 2916.54C2548.7 2910.23 2542.03 2900.84 2546.67 2888.9ZM2562.09 2919.79V2935.17L2571.31 2944.39L2555.95 2935.17L2562.09 2919.79ZM2598.97 3004.09C2601.33 3004.09 2599.58 3005.61 2597.95 3005.12L2598.97 3004.09Z" fill="#f2efe1"/>
<path d="M2267.2 1710.75L2288.71 1738.42L2285.62 1729.2L2291.77 1732.28V1729.2L2279.48 1723.06C2279.48 1713.12 2277.07 1711.16 2267.2 1710.75Z" fill="#f2efe1"/>
<path d="M1333.29 1377.93C1315.77 1408.77 1313.61 1465.74 1315.48 1500.79C1316.14 1513.33 1313.91 1527.1 1320.98 1537.67C1300.94 1568.76 1322.13 1627.97 1311.77 1663.6C1323.04 1684.32 1325.74 1754.49 1317.91 1777.29L1327.13 1811.07H1320.98L1324.07 1940.1L1330.21 1937L1332.33 2032.34L1334.14 2259.56L1334.18 2339.43L1339.38 2370.17L1338.6 2471.54L1345.15 2643.57L1351.68 2744.93C1339.49 2746.99 1350.77 2769.73 1351.07 2778.74C1352.47 2815.68 1354.46 2855.9 1348.59 2892.39H1354.74L1348.59 2898.54L1357.93 3042.93L1354.72 3119.73V3122.8C1366.52 3144.9 1368.43 3215.05 1354.72 3236.48V3239.55V3291.78L1363.94 3288.68L1357.8 3297.93H1373.16L1367.01 3291.78V3288.68L1394.66 3291.78L1397.75 3279.47L1400.83 3288.68L1419.26 3285.61L1422.35 3239.52V3218.02H1416.2C1421.34 3200.57 1428.22 3154.41 1413.12 3141.22V3138.15V3122.8V3119.7C1418.74 3110 1418.86 3093.63 1410.03 3085.92V3082.82C1417.9 3075.87 1418.53 3038.04 1410.03 3030.61L1416.18 3021.37L1410.03 3006.02C1427.25 2991.06 1415.84 2906.35 1403.89 2889.29C1409.15 2880.23 1409.03 2868.75 1400.81 2861.63V2858.56L1406.95 2840.13C1402.71 2834.51 1396.92 2828.41 1406.95 2830.92L1400.81 2797.11L1406.95 2800.21L1400.81 2787.93V2784.82V2775.61V2772.54V2769.44H1406.95V2732.59H1397.73V2729.49V2717.21V2698.78H1403.88L1394.66 2680.36C1403.38 2681.81 1404.38 2675.4 1394.66 2674.21V2671.11C1404.85 2669.06 1401.74 2660.25 1394.66 2658.83L1400.81 2640.41L1391.59 2643.48L1400.81 2634.26L1391.59 2631.19C1399.9 2622.79 1403.36 2594.24 1388.5 2594.31V2582.03H1391.59V2588.17H1394.67L1391.59 2569.75L1397.73 2560.53L1388.52 2526.72V2523.65C1400.94 2507.18 1390.94 2456.22 1391.12 2434.57C1391.12 2426.16 1394.63 2408.49 1385.43 2406.9L1391.58 2397.69L1382.36 2382.33L1388.5 2385.41L1382.36 2360.84L1388.5 2363.94V2360.84V2351.63L1382.36 2354.73V2351.63L1379.28 2317.85H1382.36V2327.06H1385.44V2290.18L1376.23 2293.28C1380.04 2280.88 1387.21 2271.08 1379.31 2259.47L1385.46 2256.4L1379.31 2253.3V2241.02V2237.95C1385.97 2228.18 1386.04 2220.47 1376.23 2213.38L1385.44 2210.28V2207.21H1376.23C1380.76 2193.93 1387.39 2161.75 1376.23 2151.9C1381.43 2136.89 1385.21 2120.98 1373.15 2108.88V2105.81L1379.29 2093.53H1376.21V2102.74H1373.12C1377.66 2060.72 1379.39 2025.95 1370.04 1983.95C1368.95 1979.17 1373.6 1987.04 1373.12 1986.02H1376.21V1964.52L1363.92 1958.38C1371.28 1960.13 1371.56 1959.8 1373.13 1952.21L1366.99 1955.31V1952.21C1372.79 1940.93 1374.93 1929.88 1363.9 1921.5V1918.43L1370.05 1912.29H1360.83V1887.69L1366.98 1890.79C1366.98 1878.2 1373.59 1857.3 1357.76 1853.91C1362.9 1839.45 1370.74 1824.58 1360.84 1810.92V1807.82L1366.99 1801.68L1357.77 1798.6C1361.7 1787.57 1365.51 1776.84 1351.63 1774.01L1348.55 1718.73L1354.69 1700.28V1678.78L1345.47 1684.92L1354.69 1675.71L1342.4 1666.5V1648.07L1351.62 1644.97L1348.53 1632.69V1605.05H1345.45L1342.36 1611.19L1345.45 1601.98H1348.53L1342.39 1549.75V1546.68L1348.53 1537.46H1336.24V1519.01V1512.87H1342.39L1345.47 1488.3L1336.26 1491.37V1479.09L1345.47 1482.19V1463.76L1336.26 1454.52L1345.47 1451.45C1334.02 1422.13 1338.46 1409.33 1348.56 1380.79L1333.2 1377.72M1339.38 1545.7C1341.74 1545.7 1339.98 1547.19 1338.35 1546.7L1339.38 1545.7ZM1342.45 1640.99C1344.81 1640.99 1343.06 1642.5 1341.42 1642.02L1342.45 1640.99ZM1348.58 1689.2V1698.45H1345.5L1348.58 1689.2ZM1372.91 2013L1375.99 2019.15H1369.85L1372.91 2013Z" fill="#f2efe1"/>
<path d="M534.596 1154.08C536.955 1154.08 535.203 1155.57 533.57 1155.08L534.596 1154.08Z" fill="#f2efe1"/>
<path d="M476.44 858.109C478.798 858.109 477.043 859.627 475.41 859.143L476.44 858.109Z" fill="#f2efe1"/>
<path d="M1053.27 52.3771L1040.98 67.7609L1034.83 64.6606L1028.69 70.8023L1031.78 64.6606H1028.69L994.899 98.4696L985.683 95.3692L973.395 110.724L979.541 101.511L970.325 104.611C968.752 118.484 958.742 122.305 945.747 123.037C943.993 136.207 930.918 145.94 918.098 147.603L908.885 153.745C909.49 165.991 853.219 218.263 841.3 218.263L829.013 233.617L804.435 279.71L801.349 273.568H798.268C795.849 287.471 794.518 296.973 779.835 301.206L785.98 310.418L776.764 328.844H767.548V331.944L761.402 338.086L752.186 350.369C752.791 366.715 736.166 382.727 731.963 399.533C721.084 443.061 717.834 490.336 711.575 534.68C709.216 551.473 696.685 585.835 712.239 596.127L703.023 599.227V602.298C725.452 616.026 728.252 695.539 721.455 719.05L733.742 740.546C718.316 734.384 705.696 737.268 690.736 743.617L693.817 737.475L687.676 734.405H684.59L687.676 743.617H669.243V749.759L660.027 746.688C662.143 757.198 655.369 752.983 656.941 746.688C637.203 753.515 625.442 759.179 604.718 752.83C603.992 767.93 592.752 766.172 580.144 765.113V774.326L573.998 768.184C564.94 771.208 562.877 772.764 564.782 765.084L549.424 777.397L512.559 780.468L515.644 789.68L497.212 783.538L487.996 798.893L469.563 789.68V798.893L457.276 795.822V801.964H432.698L426.556 814.247L414.269 808.105V820.389L392.762 814.247L383.546 826.531V817.318H380.464L340.531 841.885L343.602 832.672L325.173 844.956L328.244 835.743L300.595 854.168L291.379 844.956V857.269L279.092 851.098L257.588 869.552C257.83 863.305 254.257 863.305 254.517 869.552L245.301 866.452L239.156 881.806H236.085L226.869 872.594V881.806L214.581 878.735L217.652 887.948L208.436 894.09H205.365V887.948H202.291L193.074 897.161L190.003 884.877L174.645 887.948V891.048L180.787 897.19L168.5 891.048L171.571 897.19H168.5L156.213 894.119L153.138 906.403H150.067C142.005 899.291 134.648 907.185 131.635 915.615C120.698 913.922 118.061 917.183 116.277 927.899L107.061 921.757L21.0431 1007.77L17.9722 1056.93C0.931076 1058.99 7.54473 1079.16 11.8268 1090.71L21.0431 1084.57L17.9722 1090.71H21.0431L24.1176 1084.57L17.9722 1075.36L30.2594 1081.5L27.1885 1093.78L51.7628 1118.35L42.5465 1124.49L27.1885 1112.21L11.8268 1093.78H8.75592L11.8268 1112.21L21.0431 1109.14C21.7567 1124.94 33.3664 1133.12 48.6919 1130.63C59.2057 1151.59 103.4 1165.46 125.493 1161.34C128.541 1167.09 133.816 1170.67 137.78 1164.44C174.823 1189.04 240.752 1167.72 282.163 1170.38C302.601 1171.65 333.398 1175.58 349.744 1161.4L352.826 1170.62L374.333 1161.4L411.194 1167.54L408.112 1161.4H411.194C423.434 1166.3 444.683 1168.98 454.201 1158.3L472.634 1155.23L484.925 1161.37H488.007L512.585 1158.27L518.726 1149.06V1155.2L601.673 1149.06L641.609 1133.71H644.691C664.641 1148.55 703.415 1127.65 727.634 1130.63V1121.42H730.72L739.936 1130.63H743.018C750.819 1125.43 785.361 1114.88 782.954 1124.49L816.748 1112.18H841.322H844.408L841.322 1102.97C862.3 1107.56 877.518 1104.48 893.549 1090.68V1099.9L945.772 1093.75L1037.93 1069.19C1036.66 1130.04 1041.74 1189.72 1041.74 1250.78C1041.74 1278.78 1033.76 1317.45 1047.18 1342.58C1035.68 1355.5 1035.03 1411.46 1044.1 1425.53V1428.63L1037.96 1471.62L1044.1 1468.55V1471.62V1487C1029.61 1503.02 1040.84 1522.94 1041.02 1542.28H1031.8L1041.02 1554.56V1557.66H1031.8L1041.02 1597.58H1031.8L1028.72 1622.18L1037.93 1634.46H1034.85V1625.25H1031.76C1019.13 1668.01 1021.96 1741.51 1031.76 1785H1025.62L1028.7 1846.41H1034.85L1025.63 1855.65L1028.72 1941.67V1975.45H1034.86L1031.78 1996.94H1034.86V1990.8H1037.94L1028.73 2030.75L1037.94 2033.82L1031.8 2049.18L1041.02 2076.85L1031.8 2092.2H1034.88V2082.99H1037.97L1031.82 2122.91L1041.04 2119.84L1034.89 2132.12V2135.19L1041.04 2150.58C1032.04 2152.39 1033.4 2158.26 1041.04 2159.79L1031.82 2184.36C1040.74 2184.36 1039.16 2197.59 1039.5 2205.85C1040.23 2222.68 1047.76 2272.17 1034.91 2282.65V2291.87C1047.29 2291.87 1038.17 2306.47 1034.91 2313.39L1044.13 2316.46V2347.2L1034.91 2344.1V2356.38H1037.99L1044.14 2350.24C1036.63 2387.09 1042.38 2442.48 1050.28 2479.28L1041.07 2476.18C1041.07 2509.11 1059.97 2545.18 1047.21 2577.57C1055.3 2593.76 1060.96 2622.46 1047.21 2635.92V2642.06L1059.5 2654.38L1047.21 2648.2L1053.35 2678.94C1063.72 2678.94 1057.7 2688.15 1050.27 2688.15L1056.41 2697.37C1051.7 2705.62 1052.06 2712.58 1059.5 2718.86C1041.67 2761.32 1075.69 2748.61 1102.5 2746.53L1105.59 2780.31H1114.8L1124.02 2728.08C1113.46 2728.08 1120.15 2700.5 1121.48 2691.23C1125.65 2661.12 1127.23 2607.47 1118.94 2577.57C1109.95 2545.21 1120.57 2505.91 1116.88 2472.1C1106.39 2375.85 1102.55 2278.78 1102.55 2181.28C1102.55 2147.84 1100.73 2112.53 1106.66 2079.89C1108.53 2069.58 1101.7 2059.97 1108.71 2052.25C1094.98 1997.41 1106.3 1930.46 1105.63 1874.08C1103.7 1718.8 1113.76 1565.07 1114.87 1410.2C1115.47 1359.48 1117.71 1307.05 1113.9 1256.6C1111.66 1227.34 1099.41 1179.49 1108.76 1152.16L1096.47 1053.86L1148.7 1047.69L1145.61 1053.86H1148.7L1151.78 1044.62C1164.18 1050.7 1174.25 1050.25 1182.5 1038.48C1202.89 1052.2 1251.4 1031.97 1274.78 1027.76C1284.61 1026.01 1293.18 1018.63 1302.31 1023.1H1305.4L1326.9 1010.81L1339.19 1013.91L1348.4 1004.7L1345.32 1010.84H1348.4L1376.05 1004.7C1376.05 989.533 1419.34 1009.94 1422.13 986.245H1425.22C1441.01 1002.78 1503.79 971.326 1526.59 970.891L1529.68 958.607L1551.18 955.536H1554.26C1561.69 962.733 1572.71 957.643 1581.91 954.68C1604.45 947.436 1646.75 944.088 1661.78 924.828C1674.72 929.363 1709.7 909.267 1710.93 927.899L1714.02 940.182L1726.31 958.637L1735.52 973.991L1753.96 986.275L1750.87 1001.63C1760.18 1001.63 1760.31 1008.62 1760.09 1016.98L1772.37 1020.08L1766.23 1029.3L1778.52 1047.72L1787.74 1044.65L1793.88 1072.29L1800.03 1084.57L1818.45 1115.31L1864.54 1179.8C1862.78 1187.16 1863.08 1187.44 1870.68 1189.01V1192.11L1864.54 1195.18L1876.82 1204.39L1873.74 1213.64L1886.03 1228.99H1892.17L1895.25 1247.42L1901.4 1244.35L1898.32 1253.56L1907.53 1265.84H1913.68V1268.91L1910.59 1272.01L1919.81 1268.91L1968.96 1373.38H1978.17L1981.26 1391.81C1991.74 1397.79 1994.23 1404.47 1993.55 1416.37L2002.76 1419.47L2042.7 1496.27C2053.84 1499.48 2057.01 1506.6 2058.06 1517.77L2076.49 1548.48L2112.05 1600.71L2147.91 1671.37L2199.37 1757.39C2214.62 1775.44 2237.16 1807.41 2239.31 1831.12L2248.52 1843.4L2257.74 1846.47C2256.89 1857.5 2259.31 1864.15 2270.02 1868C2271.35 1885.57 2281.85 1905.79 2297.68 1914.06L2294.59 1923.27L2297.68 1929.41L2313.04 1957.08H2319.18L2316.09 1963.22C2342.06 1984.78 2347.61 2037.89 2380.61 2049.24C2378.73 2061.02 2393.23 2088.78 2405.19 2092.23C2404.1 2102.47 2403.91 2107.71 2414.4 2110.68L2420.54 2132.18H2429.76L2475.84 2227.41L2515.77 2288.85C2520.37 2307.14 2534.12 2339.46 2549.57 2350.3L2546.48 2356.44L2567.99 2377.94L2564.9 2387.15L2595.62 2442.46H2601.77C2600.86 2449.97 2600.43 2451.76 2607.91 2451.67L2632.49 2510.04H2638.63L2635.55 2516.19L2660.12 2568.39L2669.34 2586.85L2706.21 2642.12C2695.93 2660.66 2735.86 2684.95 2746.14 2700.5L2752.28 2694.36C2779.1 2698.29 2765.39 2652.33 2761.5 2635.98C2772.04 2644.02 2778.63 2651.4 2792.22 2648.26V2645.19L2770.72 2635.98V2626.77C2753.1 2626.04 2746.1 2609.3 2736.92 2596.03V2580.67C2727.57 2579.46 2727.49 2574.15 2727.71 2565.32L2718.49 2562.22L2721.57 2546.87C2709.34 2547.47 2707.39 2531.56 2703.14 2522.3L2709.28 2525.37L2690.86 2497.73L2703.14 2500.8L2687.78 2473.16L2678.57 2476.26L2684.71 2470.12V2467.02L2672.43 2442.46H2666.28L2650.92 2393.29H2654C2659.26 2412.63 2667 2433.48 2687.8 2439.38C2685.92 2422.12 2678.6 2407.97 2663.22 2399.43C2666.3 2382.96 2655.95 2370.38 2648.01 2356.44C2630.02 2324.82 2611.8 2261.82 2580.28 2242.76C2581.31 2225.19 2552.38 2162.35 2534.19 2159.82L2518.84 2138.32L2515.75 2150.61L2521.89 2159.82L2531.11 2156.75L2534.19 2159.82L2537.28 2190.56L2546.5 2205.91L2555.71 2202.81L2549.57 2218.19L2534.21 2199.74L2537.29 2193.6L2528.07 2190.53L2531.16 2181.31L2528.07 2175.17L2518.86 2178.24L2515.77 2175.17L2518.86 2165.93L2478.92 2107.58V2086.06L2472.78 2089.16V2086.06L2488.14 2079.92C2480.65 2100.94 2502.4 2121.21 2512.72 2138.29L2525 2132.15H2515.79C2516.76 2118.86 2513.73 2111.32 2500.43 2107.58L2506.57 2098.37L2488.14 2086.06V2082.99C2494.78 2074.79 2485.72 2063.68 2481.28 2055.35C2470.76 2035.73 2451.31 1992 2429.77 1984.69C2431.95 1965.54 2416.69 1948.83 2408.06 1932.46C2384.71 1888.17 2363.76 1839.84 2328.39 1803.45H2325.31L2316.09 1812.66V1815.73L2331.46 1812.66L2328.37 1828.02L2349.87 1861.8L2328.37 1855.65L2331.46 1846.44L2322.24 1828.02C2309.69 1824.27 2302.04 1809.97 2300.73 1797.28C2285.35 1783.61 2268.34 1760.09 2266.95 1738.93C2256.25 1738.93 2238.68 1703.75 2245.44 1695.91V1692.84C2224.42 1682.59 2199.13 1649.91 2227.01 1634.46L2236.22 1665.17L2257.73 1698.98L2263.87 1702.05H2266.95C2267.68 1691.83 2268.89 1684.88 2257.74 1683.63L2248.52 1652.92L2242.38 1659.06L2239.29 1637.53L2217.79 1603.75L2208.58 1591.47C2211.48 1576.68 2204.59 1554.13 2187.07 1554.59C2188.16 1539.87 2185.86 1532.77 2171.71 1526.95C2182.19 1506.16 2154.37 1479.48 2140.99 1465.51L2147.14 1468.61V1465.51L2125.63 1440.94C2126.6 1415.96 2094.17 1360.74 2070.34 1351.86C2076.77 1338.48 2071.91 1331.31 2058.05 1327.29L2051.9 1308.83L2042.68 1296.55L2024.25 1247.42H2011.97C2010.58 1223.38 2000.88 1191.7 1978.17 1179.83L1968.96 1149.09H1956.67C1958.42 1138.74 1958.06 1133.64 1947.46 1130.66L1953.6 1124.52V1121.45L1947.46 1106.07H1935.17V1103L1941.31 1099.93L1913.66 1066.12L1916.75 1056.9L1895.25 1026.2L1886.03 1029.27C1890.98 1016.18 1887.48 1006.19 1873.74 1001.63C1875.13 989.649 1871.62 983.473 1861.45 977.033C1862.42 948.296 1823.32 904.453 1806.15 881.806L1833.81 872.594L1846.09 863.381C1861.79 864.651 1894.44 863.388 1898.32 844.956L1944.45 829.867L2036.56 805.005L2064.2 795.792C2085.77 771.083 2149.53 754.46 2180.94 742.613C2198.1 736.143 2217.34 732.568 2227.02 715.92C2249.85 718.097 2315.22 692.249 2328.39 672.928L2343.75 663.686C2356.66 662.658 2367.81 656.515 2374.48 645.261L2386.76 639.119L2445.13 614.552C2445.13 604.834 2454.82 603.194 2463.56 602.269L2472.78 596.127L2518.86 562.318L2574.16 510.113L2595.66 479.375L2598.74 473.233C2596.08 434.682 2550.32 432.733 2546.52 399.503L2534.23 402.603L2537.32 393.391L2525.02 399.533H2521.95L2518.86 387.22L2500.43 381.078L2503.51 390.29C2491.65 387.932 2484.19 384.25 2482.01 371.865L2463.58 374.966H2460.49H2457.41L2442.04 371.865L2426.69 365.724L2432.83 374.936L2420.54 365.724H2414.4L2399.04 381.078L2392.9 365.724L2383.68 374.936L2386.76 368.794H2377.55V381.078H2374.46L2359.1 371.865V384.149L2352.96 371.865L2254.66 387.485L2217.79 396.462C2196.16 390.288 2125.03 394.823 2110.27 411.816C2088.27 405.696 2067.27 414.941 2045.76 419.434C2006.1 427.743 1965.44 430.857 1925.95 440.605C1907.31 445.201 1884.08 448.398 1872.48 465.881C1865.18 476.869 1877.38 495.902 1873.75 510.113L1849.18 516.255V522.397C1924.31 537.678 2011.44 503.331 2085.72 492.101C2104.78 489.199 2153.29 490.297 2165.59 476.334L2230.1 470.163L2242.39 467.092C2258.99 471.809 2302.82 469.273 2313.05 454.808H2316.13H2362.21L2356.07 448.666V445.566H2368.36L2365.27 454.779H2368.36L2417.51 445.566L2420.59 454.779H2432.88H2435.96L2451.32 448.637L2491.26 464.021L2478.97 476.304L2405.25 540.822H2392.96L2386.81 556.176H2383.73C2374.74 548.454 2364.1 560.284 2359.15 568.46L2349.93 565.359C2271.43 633.609 2149.89 635.993 2073.45 703.607C2071.4 691.876 2012.74 720.715 2008.94 734.346C1997.1 728.359 1961.82 734.945 1959.79 749.7L1929.07 752.771L1925.98 768.125H1919.84L1916.76 758.912L1910.61 765.054L1904.47 761.983L1901.39 774.267L1889.1 777.338L1895.25 765.054L1882.96 774.267L1870.66 771.196L1864.52 783.479C1857.63 777.674 1852.19 776.566 1852.24 786.58C1836.22 786.58 1826.91 784.218 1824.59 795.792H1800.01L1796.93 805.005C1782.72 802.344 1765.67 805 1756.99 817.288C1738.07 812.511 1693.4 821.573 1686.33 841.855H1683.25C1668.93 826.864 1605.39 859.153 1588.02 866.452L1594.16 872.594L1581.87 878.735L1584.96 872.594L1551.17 878.735L1548.08 887.948H1545V875.664C1472.24 889.785 1398.88 908.656 1326.89 926.422C1299.9 933.086 1259.15 933.901 1237.8 952.466H1200.93L1197.85 967.82C1184.16 958.084 1160.47 956.885 1148.7 970.891H1136.41V983.174L1121.05 977.033L1084.19 992.416L1071.9 980.103L1056.54 983.204L1062.68 989.346V992.416L1059.6 998.558L1038.09 989.346H1035.01L1038.09 1001.66H1035.01L1028.87 992.416L1016.58 1004.73L1001.22 995.487L992.001 1007.8C990.429 1000.25 987.163 996.965 982.785 1004.7C943.823 994.226 879.928 1012.97 841.474 1023.57C829.718 1026.83 804.144 1029.44 801.538 1041.58H798.456L795.37 1032.34L776.938 1044.65L749.292 1041.55L758.505 1047.69V1050.79L737.002 1053.86C724.689 1034.87 694.502 1052.73 675.562 1050.79V1056.93L666.346 1050.79L644.842 1063.08C636.806 1058.12 633.279 1059.86 626.41 1066.15C616.311 1058.76 561.068 1061.18 558.825 1075.36C538.307 1064.7 495.391 1073.56 472.811 1078.46L475.893 1087.67C451.722 1074.33 419.178 1085.19 392.171 1085.37C381.316 1085.37 369.922 1081.91 362.23 1090.74C327.372 1078.99 284.372 1093 248.571 1093.84L251.642 1099.99C240.229 1094.06 231.782 1092.38 220.923 1099.99C211.954 1093.32 207.633 1096.53 199.419 1103.06L202.49 1093.84L168.699 1096.94H165.628L144.125 1087.73L153.338 1100.01V1103.09L125.692 1096.94L122.618 1084.66L131.834 1090.8L91.8981 1069.31V1047.81L101.114 1050.88C104.827 1036.94 114.585 1021.79 128.763 1017.1C142.96 991.975 180.401 969.276 208.635 964.867L205.564 955.655H230.139L233.21 943.371C248.684 953.307 320.69 921.089 331.514 906.491L343.805 900.349C356.88 902.285 396.894 892.659 399.095 878.853C411.468 885.04 422.418 875.954 423.67 869.641L439.032 872.712V863.499L445.173 869.641L485.109 848.145C497.923 849.354 532.302 844.221 534.262 829.72L558.84 823.578H561.922V829.72H565.007L571.153 826.619C580.302 818.776 602.918 809.643 614.16 814.336H617.241L644.89 798.981L654.107 802.052L737.05 771.344H740.135L749.351 780.556C747.537 806.838 763.416 845.956 792.358 848.145C790.06 840.344 784.648 832.641 783.142 845.044H780.06L764.698 811.265L773.915 817.407L777 808.194L789.287 829.69L804.645 835.832L807.731 829.69H810.817L813.899 845.044C835.336 828.203 847.14 842.047 866.122 854.286L863.04 841.974L890.689 845.074V848.145H884.543V851.245L906.047 845.103L902.965 857.387H906.047L912.192 845.103L921.409 854.316V845.103H924.49L930.636 851.245L939.852 845.103L945.994 857.387H921.42C887.458 861.318 849.165 860.837 816.97 848.174V854.316C805.879 847.567 797.18 845.698 789.324 857.387L816.97 866.599L869.196 869.7C877.409 879.049 891.508 874.098 902.998 875.428C935.454 879.178 971.689 875.453 1004.36 871.885C1122.43 857.982 1235.54 842.103 1351.5 815.901C1378.52 809.799 1445.69 813.31 1462.09 789.798L1468.24 792.899L1523.53 765.231L1581.9 750.911L1720.14 697.643L1772.36 657.722V654.621L1784.65 657.722L1778.51 648.509C1799.29 645.304 1827.22 627.608 1830.73 605.487H1833.81L1836.9 611.629L1846.11 590.133L1833.83 587.062L1843.04 568.607C1838.81 533.509 1822.65 497.446 1810.92 464.168C1788.89 401.712 1765.86 332.953 1729.96 276.787C1703.27 235.024 1667.92 199.088 1634.47 163.046C1597.12 122.79 1550.68 65.0282 1489.76 58.6665V52.5247L1483.62 55.5956C1473.22 41.0701 1433.82 28.5251 1416.04 31.0287C1407.98 18.4564 1392.79 19.898 1379.17 17.3279C1351.04 12.0063 1290.97 -10.1803 1265.51 6.46174C1247.04 -6.46727 1209.6 3.1941 1189.59 10.3298C1164.66 19.183 1137.2 21.3217 1112.03 30.32C1092.99 37.1232 1074.05 51.0666 1053.54 52.5543M1434.55 66.2255L1435.58 67.2295C1434.07 67.8342 1432.19 66.2255 1434.55 66.2255ZM1459.14 74.4342L1468.35 77.5346L1453 83.6763L1459.14 74.4342ZM1477.61 80.6054L1480.69 89.818L1492.98 86.7472C1492.98 96.1869 1503.59 93.2621 1511.41 96.9932C1525.82 103.863 1552.94 117.492 1557.49 132.81L1523.7 108.243L1508.34 111.314V99.0306L1474.55 92.8889L1477.61 80.6054ZM1277.91 105.29L1280.99 111.432H1274.85L1277.91 105.29ZM1179.62 117.603V120.674H1167.34L1179.62 117.603ZM1201.13 114.533V117.603H1188.84L1201.13 114.533ZM1327.08 114.533L1320.93 126.816C1334.85 126.816 1364.55 138.447 1360.87 123.716L1382.38 139.07C1410.45 132.206 1480.43 158.266 1496.04 182.092C1508.11 182.092 1514.81 186.863 1520.61 197.446C1539.65 199.26 1555.4 223.7 1567.57 237.397C1584.58 256.518 1606.05 274.913 1620.58 295.891C1633.27 314.202 1642.05 335.936 1658.86 351.048C1664 374.85 1689.09 418.274 1708.01 433.991L1704.93 443.204L1735.65 504.651V492.367H1738.73V526.147L1747.94 523.076L1757.16 538.43V541.501L1747.94 538.43C1771.36 581.299 1747.94 577.784 1720.3 606.019C1707.06 607.591 1695.97 612.549 1689.58 624.444L1677.29 627.544L1621.99 642.013L1505.26 676.678L1508.34 688.962L1492.98 679.749L1499.13 698.174L1416.18 716.629L1419.27 701.245H1416.18C1413.64 712.904 1409.51 715.698 1397.75 716.629L1400.83 707.416C1367.52 702.458 1328.56 711.581 1296.39 720.113C1283.12 723.621 1270.3 722.47 1262.59 735.054L1271.81 731.954V735.054L1259.52 741.196L1256.44 731.983L1244.15 738.125H1207.28L1213.43 750.409L1198.07 744.267V756.55H1191.93V744.267H1188.84V756.55H1121.25L1053.67 768.834L1050.59 753.479L1013.72 762.692H1010.64C995.632 754.038 976.333 760.451 964.559 771.905L973.776 768.834C961.457 787.84 908.648 776.29 890.833 768.834V774.975L838.61 768.834L835.524 759.621L823.237 762.692L810.95 753.479V747.338H807.864L804.778 750.438C802.783 734.437 790.604 718.456 789.764 698.204C786.256 613.452 817.655 514.045 836.698 430.95C842.503 405.485 872.654 375.866 872.363 351.078L887.725 329.552C909.005 330.338 906.774 287.851 936.877 295.773L946.094 286.56L949.176 271.206L958.392 277.348L973.754 265.035V255.822H976.835L982.981 246.609L1001.41 234.326C1016.27 234.326 1069.88 200.232 1072.07 185.163L1087.43 182.092L1078.21 163.666H1075.13V172.879H1072.04L1065.9 163.666V172.879H1062.82V151.383L1068.96 145.241L1081.25 142.141L1078.16 157.495H1087.38C1086.77 169.051 1089.07 174.104 1099.67 179.021L1118.1 151.353H1121.18V160.566L1145.76 148.283C1159.19 152.999 1192.05 146.414 1197.99 132.928L1204.13 139.07L1271.71 117.574H1274.79C1283.31 122.654 1285.58 123.924 1293.23 117.574H1296.31L1299.39 126.787L1317.83 114.503L1327.08 114.533ZM1142.74 120.674V123.745H1136.59V126.846L1145.81 132.987L1121.23 129.887V126.816L1133.52 129.887L1136.61 120.674H1142.74ZM1173.47 124.779L1174.5 125.812C1172.98 126.417 1171.11 124.779 1173.47 124.779ZM1158.11 127.879C1160.47 127.879 1158.71 129.396 1157.08 128.913L1158.11 127.879ZM1130.41 136.147L1115.05 148.43L1118.14 139.218L1130.41 136.147ZM1102.79 139.218L1096.64 160.743L1081.29 151.531V148.43H1093.57L1102.79 139.218ZM1582.03 145.507V151.649L1575.89 145.507H1582.03ZM1259.55 228.479L1268.77 225.379L1256.48 262.259L1284.13 256.117C1284.13 238.967 1304.82 246.205 1314.85 241.265C1331.44 233.101 1357.47 209.94 1367.07 194.67C1339.41 181.542 1251.06 175.149 1259.55 228.479ZM1020.04 194.759L1007.75 207.072L1013.89 194.759H1020.04ZM1293.44 194.759V200.93L1287.3 194.759H1293.44ZM992.389 210.202L998.534 213.273V216.373L992.389 210.202ZM983.173 225.645C979.182 232.037 976.479 234.666 970.886 228.716L977.031 225.645H983.173ZM1100.03 244.129V253.342L1118.46 244.129H1100.03ZM946.455 247.2H952.601V250.3V253.371L943.384 250.3L946.455 247.2ZM1084.72 250.3L1087.8 259.513H1090.89L1093.97 250.3H1084.72ZM1118.55 262.584L1109.33 259.513L1057.11 296.363L1044.82 293.292L1050.96 302.505L1011.03 320.93L1014.11 330.143L1001.82 327.072C995.957 343.484 982.162 359.236 964.958 363.922L958.816 376.206C952.95 353.117 982.592 325.489 1004.89 324.001L1001.81 311.688L1011.03 314.789L1029.46 290.222C1018.04 294.999 1004.48 298.874 1001.81 311.688C990.764 314.591 981.73 318.048 980.309 330.143C958.206 336.42 930.993 361.386 931.156 385.448L915.795 406.944V459.178L903.507 453.037L906.593 471.462L915.806 462.249H918.891L909.675 499.099L931.178 569.759H934.264V575.901H937.346L986.498 517.525C1023.91 519.762 1023.51 482.981 1017.22 456.107L1004.93 459.178V419.257C1017.73 426.496 1014.67 436.692 1014.15 449.966H1017.23L1026.45 410.044L1017.23 400.802L1032.59 388.519C1053.45 384.83 1072.6 355.689 1078.67 336.314C1093.28 339.096 1134.51 303.642 1137.04 287.151C1153.5 288.783 1162.8 273.875 1167.76 259.513L1161.62 250.3C1145.7 252.901 1128.31 247.212 1118.61 262.584M928.156 253.401L943.517 256.472L925.085 271.826V256.472L928.156 253.401ZM1124.8 259.572V265.714H1118.66L1124.8 259.572ZM1057.18 262.584V277.938L1066.4 265.655L1057.18 262.584ZM909.723 265.655L925.085 287.151L915.868 281.009H912.783L903.567 308.676C868.777 318.872 861.756 377.256 832.911 394.69L835.996 382.407H826.78V379.306L851.354 348.598C852.866 321.294 876.656 302.501 891.29 281.009L900.507 287.151L897.425 277.938L909.723 265.655ZM1041.81 271.826L1038.73 290.251L1047.94 287.151L1051.02 281.009V277.938L1041.81 271.826ZM857.474 299.552V305.694H851.332L857.474 299.552ZM851.354 308.853L808.348 373.371C812.52 350.434 830.727 320.271 851.354 308.853ZM1011.15 348.804C1001.91 366.625 981.561 394.737 961.998 401.039L965.08 413.322L955.864 410.222L952.782 425.605C953.689 408.873 960.979 385.352 980.427 385.655L974.285 376.442L995.788 367.229L1011.15 348.804ZM958.949 376.501V379.572H949.733L958.949 376.501ZM952.804 382.643L946.662 394.956H943.576L952.804 382.643ZM2461.14 383.676L2462.18 384.71C2460.66 385.314 2458.78 383.676 2461.14 383.676ZM833.01 398.145L829.925 410.428L820.708 398.145L823.794 395.044L833.01 398.145ZM747.004 404.316L750.09 413.529H747.004V404.316ZM952.815 429.001L946.673 450.497H943.587L946.673 429.001H952.815ZM2504.18 450.527V456.698H2498.04V450.527H2504.18ZM2322.93 454.661L2323.96 455.694C2322.44 456.299 2320.57 454.661 2322.93 454.661ZM2571.76 456.698V469.011L2568.67 459.769L2571.76 456.698ZM2571.77 478.312V481.383H2562.55L2571.77 478.312ZM903.677 490.596V496.767L909.819 490.596H903.677ZM1828.34 533.647L1831.42 549.001H1825.28L1828.34 533.647ZM1837.62 562.318C1839.98 562.318 1838.23 563.835 1836.6 563.351L1837.62 562.318ZM1813.06 576.787L1819.21 589.07L1806.91 585.999V582.899L1813.06 576.787ZM716.369 582.928L719.455 598.283H716.369V582.928ZM713.272 602.475C715.631 602.475 713.879 603.963 712.246 603.479L713.272 602.475ZM783.928 602.475C786.287 602.475 784.535 603.963 782.902 603.479L783.928 602.475ZM1727.05 611.659C1729.4 611.659 1727.65 613.176 1726.02 612.692L1727.05 611.659ZM762.425 629.198L765.51 650.694H762.425V629.198ZM780.857 632.298H783.943L780.857 647.653H777.772L780.857 632.298ZM2218.54 645.615L2219.57 646.649C2218.06 647.253 2216.18 645.615 2218.54 645.615ZM1524.24 675.438H1527.33V684.68H1524.24V675.438ZM1477.89 687.722V690.822L1490.18 687.722H1477.89ZM1158.39 746.275V755.487L1167.61 752.416V749.316L1158.39 746.275ZM1219.83 746.245L1232.12 749.316V752.416L1219.83 746.245ZM1484.02 755.487L1450.23 761.629C1457.46 750.145 1474.74 743.429 1484.02 755.487ZM1066.22 755.546L1057 767.83L1069.29 764.729L1066.22 755.546ZM1434.85 761.688V764.788H1419.49L1434.85 761.688ZM949.489 767.859L955.635 774.001V767.859H949.489ZM1477.87 770.93V774.031H1468.66L1477.87 770.93ZM1462.52 778.135L1463.54 779.168C1462.03 779.773 1460.16 778.135 1462.52 778.135ZM1170.72 801.757L1186.08 804.828V807.928C1178.7 810.045 1170.34 811.529 1170.72 801.757ZM1164.58 814.07H1124.64L1127.73 804.857C1140.93 805.825 1156.25 802.193 1164.58 814.07ZM1066.3 810.999C1068.05 818.365 1067.75 818.639 1060.15 820.212V817.141L1066.3 810.999ZM869.691 832.495L826.684 826.353L823.598 820.212C838.934 814.709 859.163 820.812 869.691 832.495ZM885.038 823.283L872.751 832.495L875.836 823.283H885.038ZM921.914 829.424L900.411 826.353L888.124 832.495L891.206 823.283L921.914 829.424ZM952.649 826.324V829.424L931.142 826.324H952.649ZM968.007 823.253L958.79 832.466L961.876 823.253H968.007ZM1170.77 826.324V838.607L1124.69 844.749L1118.55 835.536L1170.77 826.324ZM1183.06 826.324H1189.2V838.607H1173.84V835.536L1183.06 826.324ZM378.208 829.395L372.063 835.536V829.395H378.208ZM1047.88 842.771C1050.24 842.771 1048.49 844.288 1046.85 843.804L1047.88 842.771ZM1007.94 844.808V854.05H1004.86L1007.94 844.808ZM974.152 847.909L971.067 857.121L961.85 860.192H958.768L961.85 850.979L974.152 847.909ZM316.736 852.013C319.112 852.013 317.219 853.53 315.713 853.046L316.736 852.013ZM1610.04 866.393L1600.83 872.535V869.464L1610.04 866.393ZM1788.23 895.123L1789.26 896.157C1787.75 896.761 1785.87 895.123 1788.23 895.123ZM1803.59 906.432L1812.8 915.645L1806.66 924.857H1803.58L1794.36 906.432H1803.59ZM1822 924.946V928.017L1846.58 980.251L1831.22 977.151L1834.3 967.938L1812.8 940.3H1800.51L1815.87 921.875L1822 924.946ZM1112.44 974.227V983.44H1115.52L1112.44 974.227ZM1880.39 1038.77L1871.17 1032.63L1852.74 1029.53V1026.46H1861.96V1023.36H1852.74L1849.66 1014.15H1846.58L1840.43 1008.01V983.44C1861.74 989.82 1874.09 1019.01 1880.39 1038.77ZM1871.15 989.611V995.753L1865.01 989.611H1871.15ZM1877.13 1042.11L1889.42 1048.25L1901.71 1082.06L1917.07 1106.63L1895.56 1091.27L1901.71 1085.13L1895.56 1069.78L1880.2 1063.64V1060.54L1886.35 1054.39L1874.06 1060.54H1870.97L1867.89 1045.18L1877.11 1051.32L1877.13 1042.11ZM27.7311 1066.77V1079.05H24.6602L18.5148 1066.77H27.7311ZM1864.78 1069.84L1867.87 1079.05H1864.78V1069.84ZM513.138 1085.25V1091.39H506.997V1085.25H513.138ZM525.429 1085.25V1088.35L516.213 1091.42L525.429 1085.25ZM448.628 1089.38L449.654 1090.42C448.142 1091.02 446.27 1089.38 448.628 1089.38ZM67.6671 1103.79V1106.87H58.4508L67.6671 1103.79ZM208.979 1107.9C211.355 1107.9 209.466 1109.42 207.96 1108.93L208.979 1107.9ZM1929.3 1106.87L1920.08 1122.22L1916.99 1109.94L1929.3 1106.87ZM1913.92 1113.04V1125.32H1910.84L1913.92 1113.04ZM30.7909 1122.28L33.8654 1128.42H27.72L30.7909 1122.28ZM758.852 1122.28V1125.38H749.636L758.852 1122.28ZM55.3689 1125.38L61.5106 1134.59C70.5603 1132.29 74.757 1130.9 76.8723 1140.73L98.3758 1149.95H89.1595L86.0886 1140.73C75.0681 1148.2 54.9704 1139.65 55.3689 1125.38ZM92.2303 1125.38L107.592 1134.59C100.447 1133.99 89.0138 1133.99 92.2303 1125.38ZM1944.65 1137.66C1931.92 1137.66 1939.74 1147.67 1947.72 1149.95L1956.94 1159.16L1960.03 1189.87H1963.11L1966.19 1183.73L1972.34 1196.01L1956.98 1205.25L1963.12 1196.01L1947.76 1189.87L1956.98 1177.58L1947.76 1174.51H1944.68L1941.6 1156.06L1929.31 1159.16V1156.06L1935.46 1146.85L1923.16 1128.42L1926.25 1125.35L1944.65 1137.66ZM129.143 1134.59V1140.73L123.002 1134.59H129.143ZM116.83 1146.9V1149.98H107.618L116.83 1146.9ZM565.339 1147.91C567.698 1147.91 565.942 1149.43 564.31 1148.94L565.339 1147.91ZM589.914 1147.91C592.272 1147.91 590.52 1149.43 588.888 1148.94L589.914 1147.91ZM1972.39 1199.38L1996.96 1242.37H1981.61L1984.68 1230.08H1969.33L1960.11 1211.66L1972.39 1199.38ZM2009.21 1248.66C2007.64 1258.04 2013.39 1275.25 2021.51 1273.22L2018.42 1288.58V1291.68L2033.78 1294.75L2018.42 1303.96L2003.06 1285.54V1264.04L1990.77 1260.94L2009.21 1248.66ZM2030.72 1267.11V1273.25L2024.58 1267.11H2030.72ZM2006.14 1273.28L2015.36 1279.42V1276.32L2006.14 1273.28ZM2033.8 1304.05V1325.58L2036.89 1319.43L2027.67 1322.5L2033.8 1304.05ZM2046.07 1325.61L2067.57 1356.34L2073.72 1377.84H2055.29C2056.74 1362.84 2050.87 1353.92 2039.92 1344.06L2046.07 1325.61ZM2073.57 1380.79H2076.66L2095.09 1420.74H2101.23L2098.14 1426.88L2119.65 1442.24L2113.51 1448.38H2122.72L2135.01 1469.91C2136.76 1488.36 2145.33 1501.42 2159.58 1512.9L2168.8 1528.25L2165.72 1540.54L2184.15 1555.92C2181.13 1564.99 2179.62 1567.04 2187.24 1565.13L2221.02 1638.86L2205.67 1645L2199.52 1614.27H2187.24L2196.45 1601.98V1598.91L2174.95 1592.77L2187.24 1574.32L2168.8 1577.42L2181.09 1571.27V1568.17L2159.58 1562.03L2162.67 1552.82C2155.18 1552.86 2152.58 1547.99 2159.58 1543.61V1540.54H2147.3L2150.39 1528.25L2138.1 1525.15L2144.24 1515.94C2136.41 1511.47 2134.25 1508.94 2138.1 1500.59L2122.73 1497.49L2125.82 1485.2H2122.73L2119.65 1491.34L2113.51 1479.06H2119.65L2107.36 1466.78L2104.28 1448.35V1442.21H2110.42V1439.11C2097.35 1436.33 2092.75 1430.19 2088.92 1417.61H2076.63L2073.55 1380.73M2165.87 1511.78L2166.89 1512.81C2165.38 1513.41 2163.51 1511.78 2165.87 1511.78ZM2248.84 1668.69L2249.86 1669.72C2248.35 1670.32 2246.48 1668.69 2248.84 1668.69ZM2245.84 1735.51L2255.05 1753.93H2251.97L2245.84 1735.51ZM2285.76 1741.68L2291.9 1766.25L2325.7 1806.2V1787.74L2319.56 1790.84H2316.47L2319.56 1781.63C2308.33 1774.37 2303.61 1767.51 2304.2 1753.96L2294.98 1741.68H2285.76ZM2258.12 1757.06L2261.2 1766.27H2258.12V1757.06ZM1032.39 1793.97L1035.47 1821.64H1032.39V1793.97ZM2353.31 1867.85L2362.52 1877.06L2371.74 1904.7L2356.38 1895.49L2344.09 1873.99L2347.17 1880.13H2344.09L2353.31 1867.85ZM2374.46 1908.1V1917.31H2371.38L2368.29 1908.1H2374.46ZM2383.67 1920.41L2389.81 1951.12L2399.03 1948.05C2404.23 1964.68 2445.79 2014.81 2432.82 2027.92L2435.9 2018.71L2420.54 2006.39L2411.33 2009.49C2413.63 1999.81 2400.25 1965.32 2389.83 1972.61V1960.33L2380.61 1957.26V1954.16L2389.83 1957.26L2383.68 1938.83L2374.46 1941.9L2380.61 1932.69L2371.39 1929.59L2377.53 1920.38L2383.67 1920.41ZM2445.26 2028.45L2454.47 2053.05L2439.11 2046.9L2445.26 2028.45ZM2543.48 2223.51L2544.51 2224.54C2542.99 2225.15 2541.12 2223.51 2543.48 2223.51ZM2558.81 2225.58V2231.72H2552.67V2225.58H2558.81ZM2564.98 2234.82L2568.07 2253.27L2552.71 2237.89L2564.98 2234.82ZM2571.18 2256.37L2589.61 2290.15V2293.25H2577.32L2571.18 2256.37ZM2592.61 2297.45L2593.63 2298.48C2592.12 2299.08 2590.25 2297.45 2592.61 2297.45ZM2598.75 2302.58V2308.73L2592.61 2302.58H2598.75ZM2607.93 2311.86V2330.28L2598.71 2327.18V2311.83L2607.93 2311.86ZM2629.52 2361.34L2635.66 2376.7L2623.37 2379.8L2629.52 2361.34ZM1035.22 2383.08V2389.22L1041.37 2383.08H1035.22Z" fill="#f2efe1"/>
</svg>
