<svg width="2428" height="1808" viewBox="0 0 2428 1808" fill="none" xmlns="http://www.w3.org/2000/svg">
<path d="M316.656 1510.12L325.873 1516.26V1507.05L316.656 1510.12Z" fill="#f2efe1"/>
<path d="M301.293 1482.33V1485.41H313.581V1482.33H301.293Z" fill="#f2efe1"/>
<path d="M55.5312 946.062L58.603 964.502L67.8193 955.275L61.6748 946.062H55.5312Z" fill="#f2efe1"/>
<path d="M0.234375 841.281L3.30616 853.579H6.37795L9.44974 841.281H0.234375Z" fill="#f2efe1"/>
<path d="M0.234375 825.859V838.143H3.30616L0.234375 825.859Z" fill="#f2efe1"/>
<path d="M1972.44 0.9375C1970.08 22.381 1946.42 22.6328 1929.43 26.9808C1878.38 40.0489 1842.91 70.2647 1797.34 93.093L1745.11 139.186C1724.21 137.129 1702.56 163.696 1686.79 175.918C1644.75 208.512 1602.9 241.78 1557.72 269.978C1538.71 281.843 1508.96 294.393 1502.42 317.355H1499.35L1496.28 311.213C1465.33 332.082 1431.64 349.895 1397.1 364.082C1377.92 371.962 1350.53 378.027 1339.61 397.227L1305.82 403.369C1285.38 423.627 1230.03 434.357 1201.37 437.163L1198.3 446.375L1186.01 440.234V452.517H1182.94V443.305L1167.58 446.39L1161.43 458.674C1161.47 450.685 1156.75 447.917 1152.22 455.603H1127.64L1130.71 464.815L1118.42 455.603V464.815H1115.35C1106.5 458.708 1101.76 461.128 1093.85 467.901L1075.42 464.815L1066.2 477.099L1069.27 467.886C1048.6 469.035 1033.11 473.08 1017.05 486.311C1013.57 470.177 984.407 481.657 970.967 480.17L974.039 486.311L967.896 480.17L940.248 489.382H937.175C930.609 482.398 927.712 487.823 927.96 495.539L918.743 483.241H875.736L878.807 498.61L866.519 492.453L869.591 483.241L857.303 495.539L851.159 486.311H857.303L854.231 477.099H835.8L851.159 495.539H835.8L832.728 477.099C813.384 477.704 759.846 460.207 746.711 474.013H743.639L725.208 464.801L712.92 477.084C711.456 471.521 708.85 460.288 703.703 467.872C673.642 446.797 613.654 459.26 577.752 452.517L574.679 461.73C553.066 443.219 488.804 453.716 461.015 456.474C448.545 457.744 436.891 456.471 427.223 464.786C408.76 451.948 374.253 463.941 353.495 467.872L356.567 477.084L368.855 470.942L328.919 474.028V477.114L341.207 474.028C333.188 485.935 330.375 482.248 319.703 477.114V489.397H298.2C287.203 500.058 276.035 502.498 261.335 498.61V510.893L206.039 536.582L61.6553 676.794L25.0752 750.509L6.35938 796.587V818.098L15.5757 808.885H18.6475C19.6392 825.158 26.2264 848.746 6.35938 854.963L15.5757 870.317L21.7192 861.105L18.6475 851.892H27.8637V867.247L37.0791 864.161L40.1518 876.459L27.8637 885.672C37.1275 882.588 42.3185 880.11 40.1518 888.757L46.2954 897.97H43.2236L34.0073 885.686L37.0791 910.253H43.2236L46.2954 901.041H49.3672L52.439 922.552L43.2236 913.324L46.2954 934.835L55.5117 931.749V919.466L61.6553 937.891C73.3603 937.891 72.3332 950.144 70.8716 959.402H73.9433V953.26H77.0151L67.7998 977.827L80.0878 1014.69L89.3032 1011.61L95.4477 1002.39L98.5195 1033.12L89.3032 1030.03L104.663 1063.83H107.736L104.663 1048.46L110.808 1054.6H113.879L120.024 1048.46L116.951 1057.68H123.096L110.808 1069.97C117.59 1094.45 147.508 1156.99 172.247 1165.19C170.282 1179.48 176.547 1193.98 190.68 1198.99V1223.57C200.209 1223.57 196.823 1233.91 196.823 1242L221.399 1251.21V1272.72L206.039 1257.36C211.549 1276.16 216.62 1282.87 236.759 1281.93V1294.22L221.399 1297.3L224.471 1306.53L233.687 1300.37L230.616 1315.74L245.976 1306.53V1334.17L258.264 1352.61L245.976 1355.69L239.831 1346.46L242.904 1358.76L261.335 1361.85V1364.93H245.976L273.623 1429.44H276.695C273.859 1418.22 269.547 1408.56 282.84 1404.87L279.767 1417.15H282.84V1407.94H285.912L282.84 1438.65H279.767V1432.51H276.695L288.983 1460.16H292.055C289.334 1450.74 286.801 1444.78 295.128 1438.65C293.138 1447.61 291.215 1452.42 301.271 1454.02L298.2 1444.81H301.271L341.207 1540.03L353.495 1558.46H359.639L356.567 1564.61C367.028 1572.29 390.165 1630.63 378.072 1632.19V1635.27C393.091 1643.35 398.249 1663.09 404.697 1678.28C417.281 1707.92 430.417 1738.55 444.918 1767.36C452.225 1781.89 460.123 1802.19 476.375 1807.3L504.023 1773.52L516.311 1782.73C515.598 1773.71 508.557 1765.69 519.383 1764.29V1761.21L513.24 1758.14L540.888 1733.56H543.959C545.06 1711.97 588.703 1689.13 605.456 1676.64C643.344 1648.41 682.747 1618.19 728.151 1603.28C758.684 1593.25 791.941 1592.41 823.326 1587.1C848.095 1582.93 875.452 1585.22 900.326 1587.7C908.603 1588.49 923.29 1592.79 924.887 1583.23L955.608 1595.51L952.536 1586.3L958.679 1592.44H974.039V1601.66L1136.86 1605.05L1182.94 1601.66C1224.24 1613.87 1282.32 1605.34 1324.13 1598.51C1401.23 1585.95 1475.43 1569.69 1551.58 1554.03C1580.46 1548.1 1608.83 1541.08 1637.59 1534.7C1651.54 1531.62 1668.56 1530.84 1677.53 1518.7C1699.46 1522.93 1759.06 1509.65 1772.76 1491.05C1796.85 1492.68 1819.59 1478.56 1840.07 1467.44C1877.75 1446.98 1915.01 1426.3 1951.81 1404C1970.84 1392.47 1992.02 1382.09 2003.16 1362.03L2012.38 1368.17L2015.45 1355.88C2043.13 1354.79 2082.17 1312.38 2098.39 1291.37L2092.25 1294.45V1291.37L2104.54 1288.28V1272.93H2119.89L2141.4 1251.41C2153.09 1210.77 2226.12 1196.95 2233.56 1153.12C2258.65 1145.83 2317.83 1101.87 2325.72 1076.32C2337.6 1079.22 2347.45 1077.77 2347.22 1064.03L2362.58 1067.12L2387.16 1051.75L2381.01 1039.47L2393.3 1036.38L2390.23 1042.52H2393.3C2410.95 1032.64 2410.81 1006.05 2399.45 990.303L2427.1 974.934V968.792L2396.38 965.706L2387.16 941.139L2347.22 885.834L2338.01 867.409L2331.86 873.551V858.196L2322.65 855.111L2313.43 842.812C2316.36 824.822 2297.47 789.815 2279.64 784.451C2283.08 765.263 2266.7 742.144 2256.85 726.046C2237.82 694.945 2212.33 655.653 2208.98 618.565L2186.97 572.488L2135.77 456.267L2113.75 412.744C2114.5 396.41 2096.33 345.963 2083.03 335.942L2086.1 329.801C2074.64 319.968 2074.71 303.64 2069.55 289.865C2056.98 256.357 2046.18 222.354 2038.74 187.286C2035.65 172.718 2038.5 139.873 2021.59 136.262L2027.74 127.05L2018.52 111.681V108.595L2024.66 96.3115L2009.3 53.3046V31.7938C1981.66 34.6965 1979.87 25.6551 1978.58 1.08514H1972.44M1963.22 28.7525L1966.3 34.8942H1960.15L1963.22 28.7525ZM1954.01 44.1068C1953.58 74.1555 1940.75 118.522 1957.08 145.475C1950.15 174.647 1956.47 238.217 1975.51 262.212L1987.8 302.148C1978.12 309.411 2005.86 380.387 2018.52 382.02L2027.74 406.602L2061.53 495.686L2067.67 492.601L2079.96 535.608L2107.61 572.473L2113.75 600.125C2127.11 601.758 2131.45 622.448 2136.65 633.92C2149.65 662.626 2159.99 705.478 2184.41 726.075L2181.34 732.217L2193.62 753.728L2199.77 759.87C2222.98 772.944 2230.27 805.226 2244.02 826.572C2277.63 878.748 2315.7 925.68 2344.15 981.06L2334.93 987.202C2274.92 986.295 2227.26 1060.22 2178.26 1085.5L2181.34 1094.71L2116.82 1156.16L2095.32 1199.17L2067.67 1223.75C2066.27 1234.4 2062.59 1238.83 2052.31 1242.17L2043.1 1269.83L2040.02 1263.68H2036.95C2031.76 1289.17 2000.65 1297.46 1984.73 1315.9L1975.51 1325.12L1966.3 1322.03L1963.22 1331.24C1957.19 1330.03 1914.96 1347.07 1917.14 1355.82C1887.17 1357.7 1826.74 1392.09 1806.55 1414.2C1789.83 1412.33 1769.56 1418 1757.4 1429.55L1748.18 1426.47V1432.61L1705.18 1441.82L1689.81 1447.98L1668.31 1444.89L1625.3 1460.25C1594.35 1452.9 1508.95 1467.45 1483.99 1487.9C1472.95 1486.09 1453.71 1483.54 1456.34 1494.04C1437.95 1490.17 1413.74 1492.83 1397.98 1503.26H1336.54L1333.46 1515.54H1330.39V1506.33L1262.81 1518.62L1136.86 1512.47L1090.78 1518.62L1032.41 1515.54L970.967 1507.15L841.422 1501.29L795.864 1509.37L780.504 1503.23C777.649 1509.15 775.387 1512.35 771.287 1506.31L749.783 1509.4L737.496 1512.48C735.821 1526.04 720.792 1521.65 709.847 1524.1C693.501 1527.79 666.493 1540.86 654.551 1552.42L617.688 1567.77L620.76 1573.91L528.599 1641.5C523.344 1660.12 502.63 1682.03 485.592 1690.65C467.495 1656 446.418 1610.52 445.656 1570.84L421.079 1527.84L414.935 1497.11C402.941 1495.42 398.859 1477.28 399.575 1466.4L390.36 1447.97L368.855 1417.24L365.784 1411.1L344.279 1358.88L347.351 1349.67L330.68 1314.57L292.055 1220.63L270.552 1165.34L261.335 1143.85L264.407 1137.69L245.976 1116.19C245.734 1107.85 243.811 1093.74 233.687 1100.82C228.045 1070.06 205.484 1020.26 181.463 999.456C182.667 986.527 167.2 943.033 153.815 941.08L144.599 925.726L141.527 919.584L132.311 891.932L126.167 895.017L123.096 876.592H120.024V882.734H116.951L89.3032 827.429H77.0151L80.0878 809.003L86.2314 812.089L83.1596 802.876L123.096 738.359C133.683 738.963 144.599 727.27 144.599 716.863L172.247 695.352L178.392 679.998L187.608 667.699C201.311 668.304 235.568 636.66 242.904 624.692L249.047 627.778C273.189 594.808 334.192 574.932 371.927 569.417L365.784 566.331V563.246L381.143 566.331L433.368 563.246L430.296 554.033L448.727 563.246L445.656 554.033H448.727L457.944 563.246L461.015 550.962H464.087L461.015 560.175L553.176 550.962L550.104 560.175H568.535L565.464 550.962L583.895 554.033V550.962L593.112 557.104H596.183H599.255L605.4 550.962L611.543 563.246H614.615L611.543 550.962L617.688 560.175L626.903 554.033L636.119 560.175L633.048 554.033L642.263 563.246L697.56 566.331L712.92 557.119H715.991H719.063C723.472 564.466 737.161 571.129 734.423 560.189L765.144 566.346L762.071 560.189L768.216 569.417H783.575V563.26L866.519 575.559L881.879 566.346V575.559L888.024 563.26H891.095V572.488L903.384 566.346L906.455 575.559H909.527V563.26L915.672 572.488L924.887 563.26L952.536 569.417V566.331L946.391 563.246C953.051 561.069 955.703 559.256 955.608 566.331H977.111L1029.34 550.962L1035.48 557.119L1069.27 550.962L1072.34 541.749L1078.49 547.891C1098.33 537.974 1119.32 534.618 1139.93 529.466C1152.13 526.442 1170.39 528.443 1167.58 517.183C1191.55 518.755 1212.8 507.483 1235.16 500.559C1305.55 478.746 1365.69 440.676 1431.77 409.732C1462.35 395.412 1510.5 372.687 1527 342.069C1546.72 338.441 1559.95 321.34 1574.85 308.925C1599.84 288.086 1627.78 270.447 1652.95 249.663C1666.98 238.07 1678.97 229.335 1677.53 209.978L1692.89 216.12L1757.4 148.531C1769.52 146.656 1773.87 142.194 1775.83 130.106C1806.74 137.435 1828.87 89.0291 1858.78 84.028L1855.7 77.8863V74.8007L1954.01 44.1068ZM1809.62 108.595L1800.41 114.737V111.666L1809.62 108.595ZM1210.6 441.813L1211.63 442.847C1210.11 443.452 1208.23 441.813 1210.6 441.813ZM1158.38 456.208L1152.24 462.35V456.208H1158.38ZM473.323 459.294L476.396 468.506H473.323H470.251L473.323 459.294ZM436.46 462.379V468.521H430.315L436.46 462.379ZM507.115 462.379L497.899 471.592V468.506L507.115 462.379ZM390.379 468.506L387.307 477.734H378.091L390.379 468.506ZM673.003 475.741L674.025 476.759C672.508 477.364 670.626 475.741 673.003 475.741ZM725.227 478.811C727.604 478.811 725.711 480.329 724.206 479.845L725.227 478.811ZM903.404 490.121L912.619 496.277C905.753 497.97 900.281 498.321 903.404 490.121ZM934.124 490.121V496.277L927.979 490.121H934.124ZM504.044 551.789L507.115 557.945H500.972L504.044 551.789ZM1075.44 628.738C1077.73 672.653 1085.25 707.05 1100.01 748.546L1072.36 766.986L1078.51 779.269C1028.46 805.454 1040.57 875.591 1050.86 920.588H1047.79V914.432H1044.72L1096.94 994.304C1109.24 997.751 1114.95 1002.78 1115.37 1015.81L1139.95 1021.96L1136.88 1012.74L1158.38 1018.89V1021.97H1149.16L1152.24 1031.18H1133.8V1025.04C1126.25 1026.43 1121.51 1027.58 1121.52 1018.9L1103.08 1021.99C1123.62 1052.31 1164.9 1040.1 1195.24 1043.48V1037.34L1229.04 1071.13L1247.3 1114.67L1287.4 1209.37L1259.76 1212.45C1252.95 1203.78 1241.7 1204.55 1232.11 1199.39C1202.42 1183.42 1172.74 1164.73 1139.95 1184.82V1172.52H1136.88V1187.89L1149.16 1224.75L1170.67 1233.96L1176.81 1237.05L1192.17 1252.4L1204.46 1249.32V1258.53L1139.95 1237.03L1152.24 1246.25V1249.33L1146.09 1252.42C1206.89 1276 1257.06 1298.44 1321.2 1270.84L1416.43 1409.09L1422.57 1402.95L1428.72 1409.09L1459.44 1353.79L1465.58 1347.65C1455.7 1309.56 1415.38 1268.29 1391.85 1237.06L1413.35 1224.77L1410.28 1215.55L1431.79 1209.41L1459.44 1166.4L1468.65 1163.32L1471.72 1154.11L1468.65 1141.81C1481.75 1139.03 1486.41 1108.57 1474.8 1101.87V1098.79C1485.83 1081.03 1469.88 1050.09 1450.22 1046.57L1422.57 1012.77H1407.21L1404.14 1000.49L1373.42 978.979L1299.69 960.554L1275.12 966.695V954.412H1272.04H1268.97L1272.04 966.695H1256.68L1232.11 914.476L1219.82 905.263L1213.68 868.398H1210.6L1213.68 883.752H1210.6V856.1L1192.17 837.675L1198.31 831.533L1189.1 806.951C1213.2 806.044 1240.41 804.358 1253.61 828.462C1267.95 822.215 1273.52 813.147 1275.12 797.739L1290.48 806.951C1289.56 781.317 1283.15 744.536 1244.4 754.732C1237.64 744.917 1230.53 744.472 1219.82 748.59C1211.11 735.401 1197.63 736.485 1182.96 736.292V739.377H1189.1V742.463H1176.81L1179.88 736.321H1152.24L1149.16 733.236C1150.91 722.677 1149.11 717.533 1139.95 711.74C1144.62 671.931 1104.56 644.902 1075.44 628.738ZM129.26 699.722L126.188 708.935H123.115L129.26 699.722ZM120.043 712.005L70.8909 798.034L61.6756 801.105L67.8191 804.19V807.276C53.0052 804.131 61.1247 789.241 66.8816 779.638C81.1441 755.854 99.1858 735.332 113.901 712.05L120.043 712.005ZM1164.52 746.951L1165.55 747.985C1164.03 748.589 1162.15 746.951 1164.52 746.951ZM1096.94 755.16V761.302H1090.8L1096.94 755.16ZM1063.15 776.671V782.812L1069.29 776.671H1063.15ZM1195.24 776.671V782.812H1189.1L1195.24 776.671ZM1225.96 792.055V798.196H1219.82L1225.96 792.055ZM1244.4 792.055L1256.68 819.707L1229.04 795.125L1244.4 792.055ZM61.6765 810.509V819.737H58.6047L55.5329 810.509H61.6765ZM1136.88 850.534L1170.67 948.846C1143.56 938.584 1126.06 876.307 1136.88 850.534ZM1106.16 856.705C1112.6 866.145 1115.47 879.289 1106.16 887.429V890.514L1118.44 896.656L1130.73 939.663C1122.73 934.341 1111.04 924.6 1118.44 915.081C1105.73 899.558 1095.77 876.008 1106.16 856.705ZM86.2526 869.048L89.3244 878.275H86.2526V869.048ZM92.3962 881.39L95.4689 893.674H92.3962V881.39ZM107.757 909.117L110.829 918.344L101.613 912.187L107.757 909.117ZM123.117 936.873L126.189 961.439H123.117V936.873ZM153.837 964.599V973.811H150.765L153.837 964.599ZM80.1081 967.685L89.3244 983.039L80.1081 986.124L86.2526 1004.56H83.1809L80.1081 967.685ZM135.405 973.871L147.693 998.437H144.62L135.405 973.871ZM92.3962 999.545C94.7728 999.545 92.8805 1001.05 91.3748 1000.56L92.3962 999.545ZM1164.52 998.511H1189.1L1182.96 1010.79C1174.04 1009.59 1164.27 1008.92 1164.52 998.511ZM1072.36 1001.6V1004.68L1081.58 1020.04H1084.65C1086.31 1008.75 1083.23 1004.9 1072.36 1001.6ZM1281.26 1001.61V1007.75H1268.97V1001.61H1281.26ZM1290.48 1001.61L1302.76 1004.7V1007.78C1295.96 1009.42 1288.47 1010.36 1290.48 1001.61ZM1173.74 1026.21H1176.81L1201.39 1020.07L1204.46 1032.36L1158.38 1026.21H1173.74ZM1186.03 1023.14L1179.88 1026.21V1029.29L1186.03 1023.14ZM1330.41 1029.32V1044.68H1336.56L1333.48 1053.9H1330.41C1330.41 1038.2 1297.88 1038.74 1287.4 1032.39L1330.41 1029.32ZM2402.54 1029.31V1038.52H2399.47L2402.54 1029.31ZM1351.92 1041.61L1354.99 1044.69L1348.84 1056.98L1339.63 1047.76L1351.92 1041.61ZM1308.91 1047.78L1327.34 1063.15L1324.27 1057.01H1336.56L1333.48 1069.29L1404.14 1115.37L1382.64 1179.88L1376.49 1173.74H1373.42L1361.13 1182.96C1353.87 1160.28 1348.42 1135.08 1330.41 1118.44C1331.98 1110.61 1327.35 1091.57 1318.12 1093.87C1319.64 1079.21 1313.05 1067.17 1302.76 1057.01L1305.84 1063.15L1293.55 1050.86L1302.76 1057.01L1308.91 1047.78ZM1376.49 1057.01V1069.29L1388.78 1084.64L1398 1093.87L1376.49 1069.29L1370.35 1075.43L1358.06 1060.08L1376.49 1057.01ZM141.549 1093.94L129.26 1097.03L126.189 1081.68L141.549 1093.94ZM147.693 1106.29V1112.43L141.549 1106.29H147.693ZM153.837 1124.77L156.908 1137.05H153.837V1124.77ZM227.564 1150.4C229.941 1150.4 228.048 1151.9 226.543 1151.42L227.564 1150.4ZM233.709 1158.62V1164.77L227.564 1158.62H233.709ZM187.629 1180.21L184.556 1189.42H181.485L187.629 1180.21ZM196.844 1208.04V1217.25L190.701 1208.04H196.844ZM273.645 1208.04L279.788 1226.46H276.716L273.645 1208.04ZM1293.55 1220.35L1290.48 1223.44L1284.33 1214.21L1293.55 1220.35ZM206.061 1223.47L215.277 1232.68V1235.77L209.132 1244.99H206.061V1223.47ZM1143.02 1229.62L1149.16 1235.77V1229.62H1143.02ZM2092.27 1229.62L2083.05 1235.77V1232.68L2092.27 1229.62ZM1284.33 1255.28C1286.71 1255.28 1284.82 1256.79 1283.31 1256.3L1284.33 1255.28ZM1210.6 1260.42L1225.96 1263.51V1266.59L1207.53 1263.51L1210.6 1260.42ZM1241.32 1266.59V1272.73H1235.18L1241.32 1266.59ZM1275.12 1266.59V1275.8H1272.04L1275.12 1266.59ZM301.293 1278.92L307.436 1288.13C300.496 1286.74 297.571 1285.54 301.293 1278.92ZM2052.33 1279.95C2054.71 1279.95 2052.82 1281.46 2051.31 1280.97L2052.33 1279.95ZM285.933 1282.01L276.716 1291.22L279.788 1282.01H285.933ZM310.509 1291.26L328.941 1352.69C312.761 1342.9 303.296 1309.46 304.364 1291.26H310.509ZM2083.05 1300.5L2076.91 1315.87C2064.26 1310.73 2076.97 1305.05 2083.05 1300.5ZM292.076 1303.59L301.293 1331.24L289.005 1328.16L292.076 1303.59ZM2033.9 1303.59V1306.66L2021.61 1312.82L2024.69 1303.59H2033.9ZM2012.4 1309.64C2011.76 1323.21 2004.08 1328.07 1990.9 1328.07L2012.4 1309.64ZM2046.19 1331.23V1337.37H2040.05L2046.19 1331.23ZM304.368 1337.41L310.513 1355.84L304.368 1349.7C296.825 1345.22 297.338 1342.24 304.368 1337.41ZM1984.75 1337.41L1978.61 1343.56V1337.41H1984.75ZM2036.98 1341.52C2039.35 1341.52 2037.46 1343.04 2035.95 1342.55L2036.98 1341.52ZM1954.03 1352.83V1362.05L1947.89 1358.97V1355.88L1954.03 1352.83ZM332.016 1355.88L325.872 1362.03V1355.88H332.016ZM267.504 1374.4V1377.48H255.216L267.504 1374.4ZM316.656 1377.48V1386.7H313.584L316.656 1377.48ZM267.504 1380.63L279.792 1402.12L264.432 1399.04L270.577 1392.9L267.504 1380.63ZM1911.02 1380.61V1386.75H1904.88V1380.61H1911.02ZM1901.81 1383.68L1889.52 1395.97V1383.68H1901.81ZM1886.45 1386.77V1399.05L1871.09 1402.14V1399.05L1886.45 1386.77ZM1861.87 1402.18L1868.02 1408.34V1411.42L1852.66 1408.34L1861.87 1402.18ZM1846.51 1408.29L1849.58 1411.38C1840.93 1422.24 1833.06 1428.71 1818.86 1426.73L1806.58 1439.03V1426.73H1818.86L1840.37 1417.52L1846.51 1408.29ZM332.016 1411.34V1420.55H328.944L325.872 1411.34H332.016ZM356.592 1460.68L362.736 1472.96H353.52L356.592 1460.68ZM1720.56 1460.68V1463.76L1711.34 1466.85L1720.56 1460.68ZM378.097 1463.79L393.456 1497.59C383.418 1490.48 375.953 1476.09 378.097 1463.79ZM1662.19 1474.07C1664.57 1474.07 1662.68 1475.58 1661.17 1475.1L1662.19 1474.07ZM359.664 1476.12C373.099 1484.89 380.735 1503.44 381.168 1519.13L396.528 1555.99L422.671 1614.37L464.112 1731.1L440.245 1685.01L389.068 1546.78L359.664 1476.12ZM1613.04 1482.29V1488.43L1606.9 1482.29H1613.04ZM396.528 1500.8L402.672 1516.17L390.385 1503.88L396.528 1500.8ZM1517.81 1503.88V1506.96L1505.52 1513.1L1517.81 1503.88ZM1468.66 1517.33L1469.68 1518.36C1468.16 1518.96 1466.28 1517.33 1468.66 1517.33ZM405.745 1522.46L414.96 1534.76L418.033 1540.9L436.464 1586.98L424.176 1590.07L421.104 1562.41C410.478 1554.6 402.169 1535.36 405.745 1522.46ZM777.456 1534.81L768.24 1540.96V1537.88L777.456 1534.81ZM712.945 1550.19L706.8 1559.42V1550.19H712.945ZM703.728 1553.28V1562.5L660.721 1580.93L663.792 1568.64L673.009 1565.56V1571.7L682.224 1568.61L676.08 1565.53V1562.44H691.44L703.728 1553.28ZM657.648 1574.84L648.432 1590.2L651.504 1574.84H657.648ZM639.216 1596.34L614.64 1605.55C609.101 1624.88 587.647 1637.61 571.632 1648.56L568.56 1636.28H583.92C583.678 1620.75 594.238 1616.79 608.496 1617.85L602.352 1608.62L617.712 1596.34C626.677 1596.35 637.072 1578.12 639.216 1596.34ZM436.464 1590.21C446.784 1615.37 451.755 1642.48 462.91 1667.13C470.637 1684.21 483.064 1693.61 476.4 1713.09H470.256C460.435 1687.48 415.69 1613.37 436.464 1590.21ZM562.416 1645.67L565.489 1657.95L494.832 1719.4C499.555 1698.82 513.962 1679.15 534.768 1673.3L547.056 1661.02C546.996 1653.54 548.762 1653.95 556.272 1654.88L562.416 1645.67Z" fill="#f2efe1"/>
</svg>
