<svg width="2206" height="1625" viewBox="0 0 2206 1625" fill="none" xmlns="http://www.w3.org/2000/svg">
<path d="M377.269 650.954V641.741L371.127 650.954L355.773 647.883L352.687 657.095L340.389 653.995L346.546 657.095V660.166L328.106 663.267C293.02 659.154 247.982 689.924 217.51 705.048C206.867 710.309 189.561 720.742 188.219 733.956C186.586 749.818 214.595 762.807 226.738 767.706V779.989L242.092 776.918L254.375 795.343H278.957V798.414L269.744 795.343C273.01 805.17 282.714 814.213 291.24 804.556L306.61 813.769L294.311 810.698V813.769L309.68 819.91L242.092 896.711L218.514 924.231L149.936 991.938C150.541 1005.22 128.054 1016.16 119.715 1025.75C89.4787 1060.52 61.7378 1098.07 29.0948 1130.72C19.8667 1139.95 -8.21575 1164.96 2.9777 1179.35C11.3168 1190.08 26.032 1187.56 36.27 1195.21C42.2568 1199.68 47.1966 1211.01 54.6952 1212.63C71.174 1216.19 86.9626 1197.55 103.859 1210.09H106.929L113.086 1203.95V1210.09L140.724 1197.8L159.164 1182.45L162.249 1194.73L159.164 1185.52L168.376 1179.38H171.462L183.745 1188.59L177.604 1176.31L202.185 1179.38L205.271 1167.1L220.625 1176.31H223.711L220.625 1164.02L239.051 1160.92V1157.85L254.42 1163.99H257.505L282.072 1145.57L315.866 1148.64L322.008 1139.43L318.923 1145.57L328.15 1142.5L321.993 1136.36L343.504 1130.22C343.504 1194.55 274.85 1262.75 248.75 1320.4C242.764 1333.59 233.028 1348.51 235.876 1363.63C239.323 1382.12 283.746 1394.16 300.497 1392.1C317.792 1389.98 335.73 1380.51 352.717 1375.97C356.889 1428.83 367.716 1507.62 346.575 1557.21L343.489 1600.21L368.071 1612.52V1606.35C378.412 1612.41 412.05 1613.41 398.795 1624.8L414.149 1621.7L411.063 1612.49C425.093 1605.77 441.34 1591.11 457.141 1597.13V1584.85H472.51L484.794 1575.64L478.652 1581.78V1584.85L506.29 1569.5L503.219 1578.71H506.29H509.375L506.29 1566.43L527.801 1560.28C517.393 1540.27 498.33 1540.13 478.652 1544.93L512.446 1514.19L500.148 1511.12L481.723 1517.26L417.205 1554.11L426.418 1342.16L414.134 1329.88C403.914 1328.55 407.224 1320.11 407.992 1311.43H426.418V1302.21H423.347H404.907L334.247 1329.88L337.333 1314.5L346.546 1323.74H349.631C343.306 1293.21 369.605 1271.93 383.278 1247.44C412.002 1196.01 439.521 1149.23 444.872 1090.26L435.645 1077.95L432.574 1062.6H450.999V1056.46L374.198 1059.56C351.551 1077.47 292.224 1094.58 263.603 1093.34L232.894 1108.69C217.709 1109.72 163.983 1119.67 159.164 1133.29L143.795 1130.19L177.589 1071.81C193.269 1068.79 229.562 1032.3 232.894 1016.53L277.303 977.115L398.78 847.578L407.476 822.981L395.709 804.556L401.851 786.131L392.638 783.03V779.96H407.992V776.859L395.709 770.717L411.063 773.818L407.978 789.172H411.063C432.543 757.188 350 743.04 325.05 736.938L328.135 721.584L343.489 718.513L355.773 721.584L352.702 712.371H364.986H368.071L389.567 697.017H408.007L429.503 638.641L411.078 644.782C399.098 638.239 387.422 642.935 377.269 650.954ZM322.067 724.92V731.062H315.926L322.067 724.92ZM318.967 746.446V758.729H315.881L318.967 746.446ZM337.407 749.517L343.549 764.9L331.265 761.8L337.407 749.517ZM380.428 774.113L355.862 767.971L358.947 758.759L380.428 774.113ZM288.288 762.863L289.321 763.897C287.809 764.501 285.929 762.863 288.288 762.863ZM306.698 768.001V771.101H297.486L306.698 768.001ZM358.918 777.243L365.059 783.385V786.485H352.776L358.918 777.243ZM315.793 811.111L312.707 820.324H309.621L315.793 811.111ZM404.803 1079.01V1082.09H395.591L404.803 1079.01ZM364.838 1162.11L361.752 1171.35H358.667L364.838 1162.11ZM281.865 1303.66C276.121 1322.27 268.41 1354.84 251.157 1365.11C253.878 1344.31 267.57 1318.92 281.865 1303.66ZM380.148 1383.74V1491.28C367.763 1488.62 371.141 1474.59 370.935 1463.61C370.331 1436.65 370.331 1410.54 370.935 1383.74H380.148ZM380.148 1494.7V1497.77V1500.87L367.864 1503.95L380.148 1494.7ZM374.006 1513.22L377.092 1534.71H374.006V1513.22ZM367.85 1547.2L373.991 1584.05L367.85 1580.98L361.708 1593.27L367.85 1547.2Z" fill="#cfe94e"/>
<path d="M1922.73 200.937L1910.45 213.221L1852.07 231.646C1858.68 254.226 1892.59 285.183 1913.52 259.313L1944.24 253.171L2011.81 234.717C1988.7 284.225 1952.14 332.001 1916.59 372.965L1941.17 428.27C1990.82 464.94 2039.47 516.47 2097.84 538.85L2009.16 607.443L2021.19 646.36L2073.26 753.9H2088.62L2091.7 707.807H2094.79L2104 723.161C2107.14 696.293 2076.1 667.234 2082.28 640.868C2088.58 614.067 2151.63 593.184 2170.61 573.9C2180.4 563.952 2178.54 547.463 2186.94 535.78C2194.68 541.343 2200.34 532.941 2205.38 526.567C2172.84 508.189 2116.41 454.492 2079.43 455.907C2071.87 431.325 2022.57 399.404 1999.56 388.319L2014.91 363.752L2011.83 357.61C2033.58 344.778 2044.37 313.807 2058.39 293.506C2078.77 264.001 2106.3 241.11 2128.55 213.221C2135.98 203.908 2170.23 172.293 2152.63 162.581C2092.75 129.539 2017.83 167.964 1959.57 184.963C1946.16 188.893 1936.92 200.562 1922.73 200.937ZM2024.1 260.671L2025.13 261.705C2023.62 262.309 2021.74 260.671 2024.1 260.671ZM1990.26 300.799C1992.62 300.799 1990.86 302.316 1989.23 301.833L1990.26 300.799ZM1996.37 309.037L1993.29 318.25H1990.21V309.037H1996.37ZM1984.06 312.108V327.492H1980.97L1984.06 312.108ZM1974.85 327.492L1971.76 336.705H1968.67L1974.85 327.492ZM1944.12 364.461V376.744H1941.04L1944.12 364.461ZM2069.98 644.795L2091.48 709.313L2082.27 706.213L2063.84 657.079L2069.98 644.795Z" fill="#cfe94e"/>
<path d="M1707.71 81.0312L1723.07 117.911H1726.15C1724.82 102.878 1721.37 88.8261 1707.71 81.0312Z" fill="#cfe94e"/>
<path d="M1471.32 59.3709H1468.24L1465.15 53.2292C1454.96 64.4106 1449.63 69.9453 1434.43 65.5127C1429.35 74.644 1410.65 85.8436 1419.07 96.2509V99.3217C1398.79 98.6565 1384.91 120.55 1382.21 139.273H1373L1376.08 148.485L1363.78 151.556L1360.7 169.981L1354.56 166.91L1339.2 191.477L1302.34 262.137L1299.25 289.774C1277.8 282.627 1288.64 342.433 1274.67 338.938L1277.76 351.221C1267.6 352.915 1266.64 381.823 1268.54 391.172L1250.12 375.818L1240.89 369.647C1216.89 368.195 1197.88 348.08 1176.39 339.233C1119.02 315.631 1056.37 288.926 995.133 278.259C972.824 274.388 931.771 263.655 912.19 277.491H909.104C893.218 265.614 815.191 268.077 810.807 289.774L798.523 292.845L804.665 283.633L792.367 289.774L783.154 286.704L777.012 298.987L767.8 295.887C740.388 319.241 701.491 325.555 677.254 354.558C665.135 369.065 663.638 385.895 658.976 403.426C646.174 451.61 640.201 526.334 669.488 569.312C638.834 580.941 620.885 603.381 617.268 636.9C605.337 636.9 600.861 641.672 595.758 652.255L601.914 661.467L608.056 658.396V661.467L604.97 670.68H601.885L595.743 655.326L589.601 676.822C581.081 681.478 588.203 687.828 584.877 695.956C577.741 713.36 565.631 793.574 595.728 793.574L592.642 811.999L598.784 808.898L595.699 818.141L604.911 821.211L623.351 861.162L617.195 867.304L611.053 864.204L604.911 894.942H601.825L598.74 888.77L586.456 898.013L574.173 925.65L592.598 1039.3H601.811L623.322 1103.82L614.109 1109.96C586.298 1115.52 589.136 1194.39 583.386 1217.5L592.598 1242.07L635.605 1309.66H641.747L638.676 1315.8C665.804 1336.36 700.357 1377.22 736.973 1374.17V1377.24L730.831 1383.39L740.044 1377.24H743.13L767.711 1392.6L770.782 1380.32C830.372 1406.48 898.716 1371 958.179 1371.1C988.088 1347.39 1028.67 1407.65 1062.63 1404.88C1075.08 1424.13 1106.7 1430.11 1127.14 1438.28C1180.1 1459.45 1252.33 1497.62 1311.46 1484.75C1321.14 1498.32 1344.25 1496.21 1359.34 1497.13C1404.86 1499.91 1463.57 1500.32 1507.69 1489.48C1520.62 1486.27 1558.14 1480.81 1560.29 1466.33L1569.5 1469.43L1572.59 1460.19L1713.63 1529.37L1763.06 1558.51L1790.71 1564.66L1809.13 1546.23L1815.28 1552.37L1833.72 1533.92L1842.93 1537.02L1852.14 1515.52L1858.28 1518.59C1905.49 1436.28 1927.29 1347.72 1962.78 1260.55C1977.34 1224.8 2011.21 1174.26 2005.74 1134.59C2023.65 1131.99 2029.3 1071.44 2030.32 1054.72H2033.41L2036.5 1060.86L2067.66 956.418L2074.1 913.544L2033.42 878.731L1993.49 858.121L1990.4 845.837C1975.15 847.289 1958.65 831.152 1946.88 822.274C1919.67 801.756 1889.41 782.228 1861.37 762.363C1843.5 749.706 1808.42 752.485 1794.3 737.796C1772.76 715.373 1770.25 653.685 1761.54 624.145C1752.11 592.209 1741.32 560.594 1731.33 528.387C1722.98 501.501 1705.22 477.046 1706.75 447.481C1709.65 390.812 1726.81 334.45 1732.35 277.491C1733.98 260.674 1733.44 201.281 1732.35 203.79H1729.26L1726.84 133.131L1692.4 71.6839L1704.68 74.7548C1658.32 18.6848 1580.45 -27.0178 1510.92 18.7115C1494.75 29.3486 1474.41 38.8157 1471.21 59.4005M1655.43 157.904V176.33L1634.02 265.414L1597.41 434.371L1590.92 544.981H1594.01L1597.1 535.739C1616.27 554.921 1622.51 585.667 1627.8 609.469C1635.33 643.322 1667.15 681.325 1686.18 713.938C1693.84 727.072 1713.91 766.126 1726.12 763.072C1728.6 799.488 1782.56 820.368 1778.03 861.398C1774.52 893.019 1754.95 923.535 1745.53 953.554C1724.01 1022.09 1703.23 1090.94 1681.09 1159.36C1671.51 1188.96 1648.46 1226.85 1649.32 1257.66L1643.17 1254.59V1257.66L1633.96 1312.96H1630.88V1303.75L1624.73 1340.63L1615.51 1337.53L1609.36 1362.1C1575.36 1353.11 1541.01 1408.53 1508 1405.12L1504.91 1414.33L1492.61 1411.26L1495.7 1420.47C1484.4 1415.03 1468.3 1410.81 1464.99 1426.62H1452.69V1420.47L1394.33 1429.69L1385.12 1420.47L1357.47 1426.62L1354.38 1417.4H1348.24V1432.76L1342.1 1423.54H1339.01V1432.76C1327.16 1428.83 1330.93 1419.91 1322.16 1413.71C1310.81 1405.68 1264.07 1396.92 1253 1405.12L1216.13 1398.95L1219.22 1389.74H1216.13L1213.05 1402.02H1209.96L1213.05 1389.74L1191.54 1386.66L1120.88 1355.93L1117.8 1365.17L1099.36 1355.93L1102.45 1343.64L1080.94 1337.5L1062.51 1328.29V1325.22L1068.66 1322.12L1053.3 1319.05H1050.22V1306.76H1028.71V1303.66H1037.93V1300.59L1028.54 1257.57L1011.51 1201.76L1001.35 1172.35L1037.93 1103.97C1048.47 1094.59 1054.59 1084.51 1053.29 1070.19C1069.79 1051.44 1078.24 992.467 1053.29 978.032V1021.02C1063.89 1033.07 1056.8 1062.41 1044.07 1070.19L1047.16 990.316L1022.58 981.103V993.387L985.713 987.245C992.891 979.021 1006.1 980.144 1016.44 976.969C1044.04 968.485 1075.68 957.708 1087.1 928.869L1096.31 931.969C1116.17 884.184 1134.42 835.083 1093.22 796.792L1096.31 787.58C1110.43 789.878 1119.74 788.671 1130.1 778.367C1157.01 781.33 1166.18 747.625 1163.9 726.133L1177.2 680.04L1173.63 590.956L1160.84 526.438L1105.54 458.879L1133.19 465.021C1116.72 452.424 1104.23 449.142 1087.11 461.92H1084.03L1080.94 455.778L1068.66 464.991L1071.74 477.274L1031.81 474.204L1028.72 492.629L1059.44 514.154L1065.59 511.054C1109.54 580.107 1115.45 630.599 1096.29 710.749C1087.14 707.362 1084.38 707.602 1080.94 716.891C1034.97 711.871 986.742 719.489 942.706 699.085C915.687 686.574 886.742 669.555 863.587 650.778C848.608 638.636 838.568 621.885 819.827 615.493L816.742 597.068L807.514 603.209C802.677 593.582 795.81 563.142 782.948 566.359C782.222 552.795 779.794 542.593 767.578 535.621C768.183 522.553 767.583 514.52 755.295 507.983L753.789 468.062L764.522 415.828L779.891 400.473C789.246 402.046 794.158 402.29 792.175 394.332L807.529 397.402V388.19L850.536 382.048C850.536 392.461 894.92 390.294 905.841 388.19L902.756 375.906H905.841L908.927 391.261H961.146L951.934 385.119L955.019 372.836L982.657 388.19V378.977H985.743C1021.46 392.674 1079.98 419.25 1117.83 415.828L1142.42 440.424L1139.33 428.111L1197.71 446.566V449.637H1188.48C1196.6 460.274 1202.72 464.109 1216.13 461.92C1216.13 475.768 1236.72 462.541 1246.85 465.021L1225.34 526.438L1219.2 615.552V621.694H1225.34L1219.2 652.402L1222.29 643.19H1225.37V658.544C1211.68 674.448 1216.41 717.905 1225.37 735.345V738.446L1219.23 756.871L1234.59 790.65C1236.16 836.73 1279.86 914.893 1314.46 944.253C1313.85 959.25 1340.59 984.538 1350.29 996.487C1386.6 1041.24 1437.02 1063.72 1486.49 1089.14C1502.2 1097.22 1514.16 1111.76 1532.58 1113.21L1529.49 1094.78L1538.71 1104L1550.99 1100.93L1544.85 1116.28L1554.06 1097.86L1563.29 1073.26H1535.63C1534.3 1063.18 1512.33 1048.51 1501.84 1048.69L1483.41 1032.3L1412.76 978.032C1383.81 932.618 1319.3 853.933 1326.74 796.792C1308.24 788.622 1314.47 774.082 1313.26 756.841C1311.39 730.161 1310.13 689.955 1289.88 670.828V667.757L1299.09 670.828H1302.17V655.473H1299.09V661.615H1296L1299.09 618.623L1302.17 587.885L1308.32 590.985L1314.46 498.83C1330.27 498.104 1332.79 484.865 1335.97 471.162H1332.88L1320.6 495.759C1321.69 481.403 1322.77 472.719 1335.95 465.021C1330.09 443.377 1347.8 403.215 1366.68 391.29C1364.56 362.711 1381.18 341.32 1394.77 317.56C1429.04 257.668 1470.91 198.764 1523.35 153.446C1545.73 134.107 1570.71 101.643 1603.22 108.682V105.582L1575.57 102.511C1618.17 73.5746 1644.7 127.417 1655.44 157.786M1391.27 157.934L1378.99 170.217L1385.13 157.934H1391.27ZM1372.85 182.619L1363.64 191.832L1366.72 182.619H1372.85ZM1363.65 194.961L1354.44 207.245L1357.52 194.961H1363.65ZM1342.11 225.788L1335.97 238.072L1348.25 235.001L1326.74 268.78L1317.53 265.71L1335.97 225.759L1342.11 225.788ZM1332.9 238.072V244.213H1339.04L1332.9 238.072ZM1326.74 275.099L1323.66 278.17L1317.51 268.958L1326.74 275.099ZM1305.2 302.885L1302.13 312.097H1299.04V302.885H1305.2ZM1093.16 331.615C1095.52 331.615 1093.78 333.132 1092.15 332.648L1093.16 331.615ZM1295.91 336.753L1292.83 349.036H1289.76V336.753H1295.91ZM1120.79 343.958L1121.82 344.961C1120.31 345.566 1118.43 343.958 1120.79 343.958ZM1286.67 353.2C1289.03 353.2 1287.29 354.717 1285.65 354.233L1286.67 353.2ZM1283.6 358.337L1286.69 370.621L1277.48 367.55L1283.6 358.337ZM1163.81 362.442C1166.17 362.442 1164.42 363.959 1162.79 363.475L1163.81 362.442ZM1176.11 364.509L1188.39 373.721H1173.02L1176.11 364.509ZM1262.12 398.288V419.814H1265.21V404.43L1274.43 413.672L1268.28 422.885L1216.06 392.147L1212.97 379.863H1209.89V389.076H1206.8L1194.52 379.863V373.721C1216.75 369.125 1243.69 386.665 1262.12 398.288ZM1277.46 373.721V398.288L1268.25 395.217L1274.39 376.792L1277.46 373.721ZM828.981 379.863V386.005H822.839V379.863H828.981ZM1157.7 379.863L1154.61 386.005H1157.7L1179.19 395.217C1198.36 391.952 1242.64 408.405 1246.78 429.026L1265.21 425.926L1259.06 438.21L1237.57 425.926L1163.84 386.005H1160.75L1157.67 392.147L1148.45 386.005L1157.7 379.863ZM964.129 386.034L961.043 392.176V395.247L970.27 386.034H964.129ZM696.86 392.176L699.946 404.46H696.86H693.774L696.86 392.176ZM976.412 392.176V395.276H985.625V392.176H976.412ZM1102.33 435.257L1108.47 429.115L1114.63 438.328H1117.7L1120.79 426.044L1102.33 435.257ZM1212.96 454.834L1213.98 455.837C1212.46 456.442 1210.6 454.834 1212.96 454.834ZM1133.09 466.143L1160.72 490.709V487.609L1148.44 481.467L1151.53 475.326L1133.09 466.143ZM755.251 487.698V490.769L752.165 496.91H749.079H745.994V490.769L755.251 487.698ZM684.562 490.769V496.91H678.405L684.562 490.769ZM684.562 500.04V506.182H678.405L684.562 500.04ZM1160.71 500.04L1157.64 521.536L1166.85 530.749C1176.84 521.654 1168.24 508.512 1160.71 500.04ZM1265.15 500.04L1252.86 546.103H1249.78L1265.15 500.04ZM684.503 509.282V524.637H681.417L684.503 509.282ZM761.304 512.383V518.524H755.162V512.383H761.304ZM745.949 518.524L752.091 521.625L767.446 573.859L804.311 607.639L801.225 622.993L792.012 619.922L795.098 626.064L792.012 610.709L773.587 601.467L770.502 583.042L764.36 589.184L748.991 564.617L755.133 552.333C744.762 544.859 743.035 530.637 745.949 518.524ZM1301.95 521.625L1298.87 555.404H1295.78L1301.95 521.625ZM687.559 546.251V552.393L681.417 546.251H687.559ZM1301.94 567.835L1295.8 573.977V567.835H1301.94ZM1298.91 598.662L1295.84 607.875H1292.76L1298.91 598.662ZM810.452 623.288L825.807 632.501L822.721 641.713L853.445 672.452L804.296 632.501L810.452 623.288ZM1172.95 644.873V657.156L1166.81 644.873H1172.95ZM727.51 669.499L804.296 724.774V737.058L813.523 733.987C824.293 746.892 835.922 757.328 853.459 755.483L896.466 783.15V773.938H899.552C905.176 786.202 910.899 789.13 924.119 786.221L921.033 795.434L936.402 786.221V798.505C946.525 796.812 985.709 808.358 982.48 795.404H991.693C991.693 806.991 1007.45 801.806 1016.27 801.546C1036.43 800.941 1072.48 792.136 1077.71 816.93L1068.49 813.83L1071.58 835.326H1068.49L1053.14 816.9L1059.28 872.206L1053.14 869.105L1056.23 878.347C1038.38 882.883 1024.86 899.262 1007.06 905.66C972.967 917.906 934.977 913.578 899.552 912.127V915.198L905.694 918.298L893.41 924.44C891.233 917.782 889.406 915.136 896.481 915.227L874.985 912.127L878.071 921.369H874.985L850.403 905.985L831.978 915.198V905.985L822.765 909.085V899.873L835.049 902.944C822.543 891.115 806.369 881.986 788.971 881.448L764.389 860.129L702.957 801.576C704.53 792.221 704.759 787.309 696.801 789.292C698.434 755.162 688.844 721.801 698.144 687.895C701.954 674.04 718.046 638.446 727.51 669.499ZM595.462 672.599L604.69 675.67V694.125H601.604V681.812L592.377 675.67L595.462 672.599ZM875.014 678.741V681.812V684.912L856.589 672.629L875.014 678.741ZM914.936 703.396V706.497H905.708L914.936 703.396ZM601.589 743.347L604.675 734.135C598.289 732.744 582.888 717.413 596.186 713.761C610.022 709.951 609.384 737.645 601.589 743.347ZM595.492 743.406L610.846 749.548V752.619L604.704 758.761L613.917 755.69L610.831 774.115L598.548 777.215H595.462L595.492 743.406ZM604.719 777.304L626.215 804.942H620.074L629.286 820.296L626.2 826.438L635.428 829.538L641.57 851.034H629.271L616.988 823.396H613.902V829.538H610.817L604.675 789.587H595.462L604.719 777.304ZM924.163 777.304V783.446H918.021L924.163 777.304ZM1317.35 780.404L1314.27 786.546H1320.41L1317.35 780.404ZM967.111 787.58L968.144 788.613C966.633 789.218 964.752 787.58 967.111 787.58ZM1025.49 789.646L1022.4 798.859H1019.32V789.646H1025.49ZM1046.97 789.646V792.717H1037.74L1046.97 789.646ZM1074.61 789.646V795.788H1068.46L1074.61 789.646ZM1105.33 860.424L1099.19 866.566V860.424H1105.33ZM1861.04 869.666L1904.05 885.05L1922.47 903.475L1916.33 900.375V903.475C1926.68 903.475 1936.27 899.723 1937.84 912.688L1943.99 906.546H1947.07L1953.21 909.617L1947.07 915.759L1956.28 918.859V909.646L1971.64 928.072H1990.08H1993.16L1968.58 1023.3L1940.21 1093.96L1901.39 1204.54L1867.21 1299.79C1853.25 1315.31 1840.55 1346.5 1839.56 1367.35C1816.82 1388.4 1821.76 1453.48 1790.41 1462.61V1474.89L1762.76 1468.75V1456.44H1771.97L1768.89 1462.61H1771.97L1784.27 1459.51V1456.44C1753.33 1449.83 1674.64 1427.76 1670.6 1391.92L1682.89 1361.18L1689.03 1364.28V1361.18L1685.94 1348.9C1697.4 1348.9 1696.13 1333.43 1695.17 1324.33L1710.53 1299.76L1719.74 1278.24H1713.6L1728.95 1265.96L1722.81 1259.81V1256.74L1738.18 1235.22L1732.02 1238.32V1235.22C1757.8 1210.23 1762.94 1169.92 1774.62 1136.92C1797.38 1072.56 1819.96 1007.96 1842.38 943.396C1850.34 920.477 1849.79 890.39 1861.04 869.666ZM1096.13 878.908V885.05H1089.98V878.908H1096.13ZM727.48 900.493L739.778 915.877H736.693L727.48 900.493ZM865.713 925.119L850.359 918.948C858.511 912.822 863.04 915.588 865.713 925.119ZM696.727 925.148C710.037 940.908 749.431 961.207 770.457 961.999C795.221 983.291 828.042 990.55 859.542 986.595C859.542 1000.4 882.585 989.438 890.265 986.595L899.478 995.808V986.595L911.761 983.495L914.847 986.595L908.705 992.737L933.287 986.595C964.588 993.084 969.159 990.879 991.648 1014.23C990.318 1039.17 997.157 1062.44 986.998 1087.08C970.235 1127.68 909.25 1165.33 865.728 1152.48L862.642 1161.69H859.557V1152.48L838.061 1149.38L831.919 1155.52V1146.31L752.047 1109.46L739.749 1087.96C727.437 1085.48 724.976 1074.65 721.323 1063.37L715.182 1066.47H712.096V1044.94L696.742 1029.59L693.656 992.737H687.5V1008.09V1011.16L662.933 989.666L669.074 983.524L659.862 968.17L666.004 958.958H669.089V974.312H675.231L672.145 983.524L681.358 980.454L678.272 995.808L687.5 992.737C686.472 973.731 678.464 935.229 696.727 925.148ZM785.797 937.432L782.711 940.503L779.626 934.361L773.484 937.461L770.398 934.361L785.797 937.432ZM798.051 940.532L804.193 943.603V946.704L798.051 940.532ZM583.016 946.704V949.774H573.789L583.016 946.704ZM586.087 971.33V977.471H579.946V971.33H586.087ZM1003.87 1003.13C1006.23 1003.13 1004.47 1004.65 1002.84 1004.16L1003.87 1003.13ZM684.385 1014.44L687.47 1023.65H684.385V1014.44ZM724.335 1109.81L733.548 1106.74L739.69 1119.03L699.754 1082.15C714.424 1086.26 722.001 1094.73 724.335 1109.81ZM2023.78 1085.25L2020.71 1097.53H2017.63L2023.78 1085.25ZM994.631 1104.76L995.664 1105.77C994.152 1106.37 992.272 1104.76 994.631 1104.76ZM1535.32 1106.8L1532.25 1119.09H1535.32V1106.8ZM610.654 1112.94L613.74 1137.54L601.456 1134.44L610.654 1112.94ZM991.604 1112.94V1122.16H988.518L985.433 1112.94H991.604ZM669.015 1134.5L684.37 1159.07L705.881 1165.24C708.179 1172.7 712.605 1182.02 721.235 1177.52H724.321L733.533 1183.66L742.761 1186.73L748.902 1202.09C760.7 1194.63 774.726 1200.45 782.697 1211.3H813.405L807.263 1217.47V1220.54V1223.61L813.405 1229.78H816.491L819.576 1214.4H822.662V1226.71H825.748L828.833 1217.47L847.259 1220.57V1232.86L868.769 1220.57L871.855 1229.78H877.997L881.082 1220.57L890.295 1214.43H893.381C915.284 1231.59 949.676 1206.83 970.182 1199.08L976.323 1217.5L967.111 1263.56H964.025V1242.07C955.71 1254.51 964.023 1269.58 955.551 1280.07C947.871 1289.48 934.539 1290.98 924.089 1295.48C898.437 1306.53 876.106 1317.48 847.17 1316.62C820.435 1315.84 790.046 1303.67 764.345 1306.59L690.615 1229.78L669.606 1192.9L669.015 1134.5ZM607.583 1156.05L604.498 1174.48H601.412L607.583 1156.05ZM678.213 1159.12V1165.27H684.355V1159.12H678.213ZM604.453 1177.61V1208.35H601.383L604.453 1177.61ZM724.247 1196.06V1199.13L736.53 1205.28L724.247 1196.06ZM754.97 1199.16L748.814 1205.31L770.324 1217.59V1205.31L758.041 1211.45L754.955 1208.35L754.97 1199.16ZM957.706 1208.38V1217.59H960.792L957.706 1208.38ZM604.424 1215.55C606.782 1215.55 605.023 1217.07 603.39 1216.59L604.424 1215.55ZM951.565 1214.55L954.65 1245.26H957.721L963.878 1223.76L951.565 1214.55ZM794.906 1217.62V1223.76H801.063V1217.62H794.906ZM874.778 1217.62L877.864 1223.76H871.722L874.778 1217.62ZM1009.97 1297.55L1016.13 1306.76L997.687 1315.98L1009.97 1297.55ZM856.368 1334.49V1337.56L773.425 1331.42L856.368 1334.49ZM874.808 1328.35V1340.66H871.722L874.808 1328.35ZM868.651 1331.45V1334.52H859.439L868.651 1331.45ZM1025.31 1375.62L1026.33 1376.65C1024.82 1377.26 1022.95 1375.62 1025.31 1375.62ZM1185.05 1386.9L1188.14 1393.04V1396.11C1181.51 1393.09 1180.45 1392.49 1185.05 1386.9ZM1117.44 1414.66V1420.8H1111.29L1117.44 1414.66ZM1310.93 1417.61C1310.93 1425.1 1313.35 1422.58 1320.14 1420.71C1313.91 1429.43 1307.41 1429.49 1298.65 1423.78L1310.93 1417.61ZM1329.35 1423.78V1426.88H1338.58L1329.35 1423.78ZM1476.82 1424.81C1479.17 1424.81 1477.41 1426.33 1475.78 1425.85L1476.82 1424.81ZM1151.19 1427.88L1152.22 1428.92C1150.71 1429.52 1148.83 1427.88 1151.19 1427.88ZM1427.62 1430.99C1429.98 1430.99 1428.24 1432.5 1426.6 1432.02L1427.62 1430.99ZM1562.8 1439.16L1553.59 1433.02L1556.66 1442.24L1547.45 1429.95L1562.8 1439.16ZM1157.3 1433.02L1163.45 1436.12V1439.19L1157.3 1433.02ZM1360.06 1434.09L1361.08 1435.12C1359.57 1435.72 1357.71 1434.09 1360.06 1434.09ZM1529.04 1439.22V1442.32L1519.81 1445.39L1529.04 1439.22ZM1759.42 1454.61L1750.21 1460.75V1457.68L1759.42 1454.61ZM1240.26 1457.68V1460.75H1231.04L1240.26 1457.68ZM1630.4 1471.02L1631.44 1472.06C1629.92 1472.66 1628.04 1471.02 1630.4 1471.02ZM1338.57 1476.19V1479.26L1326.28 1482.33L1338.57 1476.19ZM1725.6 1513.22L1734.83 1516.32V1519.39V1522.49L1725.6 1513.22ZM1771.69 1547.21L1780.92 1553.35V1556.42L1771.69 1547.21Z" fill="#cfe94e"/>
</svg>
