<?xml version="1.0" encoding="UTF-8" standalone="no"?>
<!-- Created with Inkscape (http://www.inkscape.org/) -->

<svg
   width="1941.3105"
   height="1926.9707"
   viewBox="0 0 513.63843 509.84435"
   version="1.1"
   id="svg1"
   xmlns="http://www.w3.org/2000/svg"
   xmlns:svg="http://www.w3.org/2000/svg">
  <defs
     id="defs1" />
  <g
     id="layer1"
     transform="translate(14487.39,-7728.9413)">
    <path
       id="path12971"
       style="fill:#cfe94e;fill-opacity:1;stroke-width:1"
       d="m -14234.416,7728.9953 c -0.112,0 -0.256,0.16 -0.454,0.48 -0.615,0.96 -6.016,1.91 -10.137,1.91 -1.451,0 -2.241,0.384 -2.241,1.168 0,1.504 -2.491,2.885 -5.226,2.885 -1.31,0 -2.083,-0.448 -2.083,-1.216 0,-0.88 -0.903,-1.216 -3.208,-1.216 -1.762,0 -3.405,0.336 -3.655,0.736 -0.251,0.464 -1.188,0.544 -2.083,0.304 -0.895,-0.24 -1.621,-0.16 -1.621,0.336 0,0.4 -1.114,0.592 -2.472,0.4 -1.434,-0.208 -3.055,0.16 -3.862,0.784 -0.764,0.624 -3.146,1.184 -5.291,1.344 -4.524,0.24 -8.176,1.44 -7.533,2.472 0.247,0.4 -0.38,1.008 -1.38,1.344 -2.712,0.88 -6.284,0.896 -6.284,0 0,-0.448 -0.762,0 -1.695,1.024 -0.933,1.008 -1.51,2.32 -1.273,2.944 0.337,0.816 -0.37,1.056 -3.266,0.816 -3.121,-0.24 -3.762,0 -4.11,1.28 -0.227,0.864 -1.014,1.584 -1.744,1.584 -0.73,0 -2.323,0.512 -3.539,1.152 -2.597,1.36 -5.347,1.728 -7.334,0.992 -3.162,-1.168 -3.923,-1.28 -3.448,-0.512 0.272,0.432 0.128,0.8 -0.323,0.8 -0.446,0 -1.054,-0.4 -1.355,-0.88 -0.389,-0.688 -0.815,-0.672 -1.472,0 -0.693,0.704 -0.568,1.216 0.504,1.994 1.748,1.296 0.641,2.429 -3.051,3.133 -4.228,0.8 -6.912,2.118 -6.912,3.398 0,0.896 -0.868,1.232 -3.118,1.232 -1.713,0 -3.382,0.272 -3.712,0.608 -0.33,0.336 -1.762,1.04 -3.183,1.568 -1.867,0.688 -2.135,1.04 -0.96,1.04 1.568,0.16 1.576,0.16 0.112,0.976 -1.152,0.672 -1.691,0.624 -2.216,-0.224 -0.559,-0.944 -1,-0.976 -2.307,-0.16 -0.89,0.576 -2.114,0.8 -2.72,0.576 -0.607,-0.224 -2.048,0.464 -3.208,1.536 -1.16,1.072 -3.033,2.184 -4.159,2.472 -1.298,0.32 -2.142,1.184 -2.307,2.331 -0.16,1.088 -0.918,1.907 -1.885,2.067 -4.188,0.624 -5.322,1.088 -4.787,1.952 0.347,0.56 0.2,0.704 -0.381,0.336 -0.544,-0.336 -1.985,0.464 -3.382,1.852 -4.261,4.257 -11.818,7.112 -8.442,3.184 l 1.546,-1.804 -1.96,1.248 c -1.08,0.688 -2.062,1.903 -2.174,2.703 -0.112,0.8 -1.003,2 -1.96,2.672 -0.957,0.672 -1.557,1.672 -1.339,2.248 0.218,0.576 -0.477,1.44 -1.546,1.918 -1.588,0.72 -2.085,0.64 -2.72,-0.496 -0.427,-0.8 -1.043,-1.12 -1.365,-0.8 -0.321,0.32 -0.1,1.232 0.512,2.026 0.93,1.232 0.922,1.296 -0.05,0.432 -1.717,-1.52 -2.609,-1.216 -1.653,0.56 0.755,1.408 0.488,1.649 -2.547,2.241 -1.867,0.368 -3.565,1.184 -3.77,1.794 -0.226,0.704 0,0.88 0.545,0.544 1.266,-0.784 1.18,1.584 -0.1,2.538 -0.558,0.416 -1.806,0.848 -2.77,0.848 -2.253,0.16 -16.544,14.396 -22.704,22.696 -5.431,7.316 -7.712,11.022 -6.499,10.558 1.109,-0.416 1.179,-0.24 0.463,1.104 -0.474,0.88 -1.333,1.605 -1.919,1.605 -1.417,0 -3.123,2.059 -5.366,6.499 -1.017,2.011 -2.171,4.206 -2.563,4.878 -0.394,0.672 -1.09,2.103 -1.554,3.191 -0.464,1.072 -1.425,2.382 -2.141,2.91 -0.714,0.528 -1.117,1.472 -0.901,2.101 0.216,0.64 -1.387,4.554 -3.564,8.715 -2.176,4.162 -3.794,7.84 -3.588,8.176 0.206,0.336 -0.514,2.173 -1.604,4.093 -1.09,1.92 -1.984,3.93 -1.984,4.474 0,0.544 -0.682,1.724 -1.522,2.62 -0.838,0.896 -1.794,2.525 -2.117,3.613 -0.321,1.088 -1.44,3.811 -2.48,6.061 -1.042,2.25 -2.154,5.171 -2.481,6.499 -0.326,1.328 -1.449,3.69 -2.497,5.242 -1.048,1.552 -1.909,3.638 -1.909,4.63 0,0.992 -0.364,2.019 -0.81,2.291 -0.446,0.272 -0.81,1.296 -0.81,2.232 0,3.524 -3.608,12.567 -6.78,17 -0.844,1.184 -1.289,2.554 -0.984,3.05 0.306,0.496 -0.406,3.282 -1.571,6.194 -1.494,3.724 -1.969,6.076 -1.621,7.937 0.373,1.987 0.06,3.195 -1.224,4.837 -0.947,1.2 -2.04,4.12 -2.43,6.482 -0.391,2.361 -0.911,4.835 -1.157,5.507 -0.247,0.672 -1.224,6.525 -2.175,13.006 -1.491,10.162 -1.749,15.987 -1.893,42.267 -0.24,44.767 0.63,54.968 6.019,70.711 1.912,5.587 3.742,10.531 4.068,10.979 0.326,0.448 1.051,2.272 1.612,4.059 0.562,1.789 1.463,3.802 2.001,4.474 0.539,0.672 1.807,3.229 2.819,5.688 2.749,6.677 11.325,19.969 22.416,34.768 1.34,1.789 3.844,5.545 5.564,8.344 2.078,3.374 3.34,4.747 3.754,4.075 0.426,-0.688 1.424,0.192 3.142,2.73 1.386,2.052 2.179,3.728 1.761,3.728 -1.715,0 0.463,2.572 6.359,7.507 3.433,2.873 6.787,5.502 7.457,5.838 0.671,0.336 0.309,-0.16 -0.801,-1.024 -1.111,-0.912 -1.749,-1.912 -1.423,-2.232 0.791,-0.784 3.857,2.037 4.755,4.383 0.44,1.152 2.407,2.652 5.109,3.884 2.417,1.104 4.837,2.552 5.383,3.208 0.547,0.656 1.406,1.232 1.91,1.232 0.504,0 2.19,1.12 3.737,2.44 2.753,2.349 5.713,3.196 5.713,1.612 0,-0.512 0.74,-0.512 2.1,0 1.156,0.496 2.437,0.592 2.845,0.336 0.408,-0.256 1.497,0 2.414,0.704 1.559,1.088 1.575,1.264 0.306,2.529 -1.269,1.264 -1.258,1.44 0.164,2.514 0.837,0.64 2.668,1.168 4.068,1.184 1.807,0 2.664,0.464 2.952,1.568 0.294,1.12 1.651,1.816 4.985,2.504 2.518,0.528 4.398,1.232 4.184,1.584 -0.214,0.336 1.115,1.072 2.96,1.638 1.845,0.56 3.876,1.536 4.506,2.157 0.632,0.64 2.017,1.152 3.076,1.152 1.059,0 2.146,0.368 2.423,0.816 0.277,0.448 1.181,0.816 2.001,0.816 0.82,0 4.114,1.136 7.325,2.488 3.211,1.36 6.273,2.334 6.797,2.142 0.523,-0.192 2.48,0.544 4.357,1.637 4.381,2.544 10.815,3.399 10.815,1.456 0,-1.088 0.494,-1.232 2.638,-0.768 4.028,0.88 6.444,1.925 6.019,2.613 -0.211,0.336 0.1,1.264 0.678,2.066 1.259,1.723 5.292,1.104 5.292,-0.8 0,-2.772 4.249,-4.711 5.151,-2.357 0.328,0.8 -0.06,1.072 -1.538,0.8 -2.225,-0.4 -2.671,0.832 -0.694,1.942 0.71,0.4 1.272,0.96 1.224,1.264 -0.226,1.667 0.259,2.047 3.68,2.911 3.193,0.8 3.971,0.752 5.184,-0.352 1.286,-1.136 1.472,-1.136 1.91,0 0.67,1.748 4.607,3.187 5.705,2.083 1.368,-1.376 4.835,-1.072 4.283,0.368 -0.564,1.456 2.717,1.721 4.117,0.32 1.005,-1.008 6.196,-0.192 5.54,0.864 -0.434,0.704 3.825,1.758 8.525,2.126 4.283,0.336 12.23,1.12 15.436,1.52 1.565,0.192 6.584,0.608 11.154,0.928 7.301,0.496 8.379,0.416 8.83,-0.768 0.284,-0.736 1.109,-1.344 1.844,-1.328 1.125,0 1.156,0.16 0.164,0.752 -1.19,0.752 -0.523,1.04 4.424,1.885 v 0 c 2.645,0.448 30.641,-0.192 33.734,-0.784 1.565,-0.288 4.488,-0.544 6.499,-0.704 2.012,-0.16 5.306,-0.544 7.317,-1.024 2.012,-0.48 6.222,-1.392 9.352,-2.026 16.917,-3.472 19.1,-4.072 19.1,-5.192 0,-0.912 0.779,-1.04 3.563,-0.624 2.261,0.352 3.761,0.208 4.109,-0.352 0.303,-0.496 1.565,-0.896 2.812,-0.896 1.244,0 2.884,-0.688 3.638,-1.52 0.884,-0.976 2.969,-1.68 5.878,-1.984 2.48,-0.256 5.486,-1.136 6.681,-1.936 1.195,-0.8 2.718,-1.552 3.39,-1.552 1.499,-0.16 16.263,-6.54 20.729,-9.028 1.788,-0.992 4.832,-2.578 6.771,-3.522 1.939,-0.944 6.149,-3.581 9.351,-5.87 3.203,-2.292 7.052,-5.005 8.558,-6.029 1.506,-1.024 4.673,-3.616 7.036,-5.746 2.364,-2.129 5.071,-4.456 6.02,-5.176 2.57,-1.947 12.766,-11.173 17.04,-15.421 6.678,-6.636 9.836,-10.617 11.502,-14.502 0.736,-1.718 2.08,-3.477 7.656,-9.995 0.656,-0.768 2.07,-2.783 3.142,-4.482 1.072,-1.701 4.376,-6.342 7.342,-10.32 2.966,-3.977 5.391,-7.589 5.391,-8.037 0,-0.448 0.917,-2 2.034,-3.472 1.119,-1.472 2.034,-2.87 2.034,-3.142 0,-0.256 2.141,-4.952 4.763,-10.418 5.909,-12.318 6.939,-14.659 6.763,-15.411 -0.144,-0.592 1.48,-5.237 3.481,-9.973 1.213,-2.87 3.516,-9.548 4.481,-13.004 0.375,-1.344 1.415,-4.626 2.315,-7.309 4.668,-13.907 6.736,-22.119 6.64,-26.311 -0.03,-1.504 0.331,-3.926 0.809,-5.366 1.397,-4.234 1.765,-6.246 2.051,-11.178 0.144,-2.556 0.443,-4.931 0.653,-5.283 0.475,-0.784 1.337,-13.723 1.555,-23.275 0.128,-5.878 -0.08,-7.378 -1.174,-8.178 -0.738,-0.544 -1.594,-1.984 -1.902,-3.216 -0.464,-1.854 -0.26,-2.32 1.166,-2.688 1.03,-0.272 1.72,-1.104 1.72,-2.067 0,-1.008 -0.392,-1.472 -1.167,-1.168 -1.902,0.736 -1.971,-2.891 -0.1,-5.019 l 1.671,-1.894 -2.44,0.608 c -2.096,0.528 -2.3,0.448 -1.446,-0.592 0.79,-0.96 0.741,-1.568 -0.248,-2.978 -0.704,-1.008 -0.867,-1.778 -0.381,-1.778 0.472,0 0.859,-0.544 0.859,-1.2 0,-0.624 0.474,-1.008 1.058,-0.784 0.814,0.304 0.998,-0.56 0.786,-3.612 -0.541,-7.764 -1.42,-11.116 -2.902,-10.956 -0.76,0 -1.381,-0.4 -1.381,-1.024 0,-0.624 0.363,-1.136 0.809,-1.136 1.036,0 1.036,-3.276 0,-4.878 -0.611,-0.944 -0.804,-0.672 -0.884,1.216 -0.1,2.355 -0.144,2.325 -1.175,-0.816 -0.896,-2.704 -1.088,-2.912 -1.216,-1.216 -0.144,1.888 -0.201,1.856 -0.976,-0.56 -1.005,-3.122 -0.237,-6.763 1.423,-6.763 1.312,0 1.584,-2.197 0.488,-3.927 -0.378,-0.608 -1.018,-0.992 -1.415,-0.992 -0.397,0 -0.832,-0.624 -0.976,-1.504 -0.144,-0.896 -0.699,-1.44 -1.273,-1.216 -1.28,0.496 -3.224,-7.118 -2.01,-7.87 0.437,-0.272 0.541,-1.488 0.232,-2.722 -0.392,-1.552 -0.763,-1.926 -1.216,-1.184 -0.454,0.736 -0.811,0.384 -1.198,-1.152 -0.323,-1.296 -0.164,-2.668 0.389,-3.34 0.651,-0.784 0.675,-1.296 0.1,-1.661 -0.469,-0.288 -0.863,0 -0.877,0.544 -0.02,0.656 -0.349,0.512 -0.861,-0.368 -0.461,-0.8 -0.589,-2.207 -0.289,-3.151 0.355,-1.168 0.235,-1.52 -0.332,-1.168 -0.536,0.336 -1.526,-1.646 -2.596,-5.168 -0.954,-3.137 -2.374,-6.54 -3.15,-7.548 -0.778,-1.008 -1.654,-2.5 -1.951,-3.316 -0.392,-1.136 -1.043,-1.344 -2.373,-0.976 -1.749,0.48 -1.766,0.448 -0.314,-0.72 1.198,-0.96 1.411,-1.827 0.984,-4.1 -0.298,-1.584 -0.902,-2.887 -1.339,-2.887 -0.435,0 -1.211,-0.912 -1.72,-2.033 -0.509,-1.12 -1.587,-2.034 -2.398,-2.034 -1.988,0 -4.064,-4.064 -3.026,-5.92 0.523,-0.928 0.499,-1.392 -0.06,-1.392 -0.467,0 -1.619,-1.646 -2.563,-3.654 -0.944,-2.002 -2.015,-3.474 -2.373,-3.25 -0.359,0.176 -1.261,0.16 -2.001,-0.16 -1.075,-0.416 -1.234,-1.152 -0.802,-3.714 0.472,-2.795 0.327,-3.262 -1.158,-3.646 -0.933,-0.24 -1.493,-0.768 -1.248,-1.168 0.245,-0.4 -0.398,-1.056 -1.43,-1.456 -2.462,-0.976 -5.202,-4.142 -3.572,-4.142 0.931,0 0.972,-0.448 0.224,-2.439 -0.508,-1.328 -1.412,-2.44 -2.01,-2.44 -0.606,0 -0.892,-0.32 -0.652,-0.704 0.24,-0.384 -0.292,-1.36 -1.175,-2.158 -1.446,-1.36 -1.604,-1.376 -1.604,-0.16 0,0.736 0.354,1.344 0.786,1.344 0.432,0 0.707,1.742 0.611,3.862 -0.112,2.485 0.16,3.85 0.77,3.853 0.521,0 1.256,0.352 1.628,0.752 0.394,0.432 0.252,0.496 -0.339,0.16 -0.558,-0.32 -1.017,-0.176 -1.017,0.32 0,0.56 -0.364,0.672 -0.812,0.4 -0.446,-0.288 -0.819,-0.16 -0.819,0.352 0,0.464 -0.459,0.816 -1.017,0.656 -0.608,-0.16 -1.106,0.848 -1.266,2.44 -0.144,1.488 0.112,2.637 0.603,2.637 0.475,0 0.879,-0.64 0.893,-1.424 0.02,-1.328 0.128,-1.344 1.018,-0.16 0.544,0.72 1.35,1.36 1.786,1.36 1.577,0.16 1.238,1.552 -0.572,2.43 -1.017,0.48 -1.393,0.944 -0.835,0.944 0.559,0 1.018,0.576 1.018,1.232 0,0.72 -0.482,1.008 -1.224,0.72 -1.536,-0.592 -1.528,0.288 0,3.242 0.659,1.28 1.001,2.659 0.752,3.059 -0.25,0.4 0.363,2.376 1.365,4.382 1.312,2.626 2.314,3.647 3.572,3.647 1.462,0 1.69,0.384 1.396,2.381 -0.192,1.312 0.128,3.779 0.711,5.489 0.579,1.711 1.128,3.618 1.24,4.242 0.112,0.64 0.51,1.36 0.893,1.629 1.065,0.752 2.613,6.585 2.1,7.913 -0.25,0.656 0.196,1.664 0.992,2.24 0.803,0.592 1.187,1.488 0.868,1.994 -0.318,0.528 -0.23,0.944 0.19,0.944 0.421,0 0.949,0.736 1.183,1.629 0.233,0.896 0.03,1.628 -0.463,1.628 -0.489,0 -0.18,0.544 0.687,1.2 1.046,0.784 1.208,1.216 0.472,1.216 -0.879,0 -0.834,0.448 0.232,2.076 0.745,1.136 1.137,2.411 0.877,2.827 -0.261,0.416 0.08,1.838 0.769,3.166 0.683,1.328 1.423,5.247 1.646,8.715 0.461,7.189 1.972,15.605 2.902,16.181 0.352,0.208 0.429,1.136 0.19,2.051 -0.272,1.04 0.112,2.064 1.017,2.72 1.008,0.736 1.156,1.232 0.504,1.637 -0.515,0.32 -0.934,0.944 -0.934,1.392 0,0.448 0.4,0.576 0.885,0.272 0.589,-0.368 0.813,0.496 0.653,2.613 -0.128,1.738 0.03,3.573 0.339,4.085 0.32,0.512 0.355,1.504 0.08,2.206 -0.274,0.72 -0.128,1.296 0.321,1.296 0.466,0 0.688,1.376 0.512,3.216 -0.17,1.768 0.06,3.456 0.522,3.728 0.461,0.288 0.603,1.216 0.331,2.067 -0.277,0.864 -0.112,1.552 0.373,1.552 0.477,0 0.869,0.56 0.869,1.264 0,0.816 -0.378,1.04 -1.018,0.656 -0.773,-0.464 -0.8,-0.336 -0.128,0.56 1.875,2.466 1.829,37.495 -0.06,51.685 -1.667,12.479 -2.01,14.106 -2.977,14.106 -0.444,0 -0.612,-0.64 -0.38,-1.424 0.516,-1.736 1.36,-8.255 1.711,-13.205 0.144,-2.011 0.309,-3.662 0.389,-3.662 0.08,0 0.32,-4.661 0.546,-10.36 0.235,-5.964 0.1,-10.368 -0.332,-10.368 -0.846,0 -0.91,0.32 -1.48,6.912 -0.232,2.683 -0.55,5.972 -0.71,7.316 -1.165,9.823 -1.429,12.392 -1.397,13.816 0.08,3.74 -1.721,15.036 -3.241,20.325 -3.544,12.344 -13.595,40.847 -16.76,47.541 -1.161,2.459 -2.073,5.112 -2.009,5.912 0.06,0.88 -0.253,1.216 -0.793,0.88 -0.589,-0.368 -0.714,-0.16 -0.364,0.832 0.295,0.768 0.2,1.2 -0.206,0.944 -1.398,-0.864 -4.278,3.853 -3.803,6.226 0.505,2.526 -1.301,4.912 -3.175,4.192 -1.604,-0.608 -2.589,2.083 -1.117,3.059 0.934,0.624 0.853,0.96 -0.447,1.952 -1.801,1.36 -3.236,1.584 -2.488,0.384 0.278,-0.448 0.254,-0.816 -0.06,-0.816 -0.892,0 -2.722,2.709 -2.754,4.069 -0.02,0.672 -0.854,1.584 -1.86,2.033 -1.006,0.432 -2.191,1.931 -2.638,3.307 -0.448,1.376 -1.24,2.367 -1.761,2.191 -0.878,-0.288 -2.414,2.691 -2.067,4.019 0.08,0.32 -0.55,0.96 -1.406,1.424 -1.974,1.056 -6.851,8.154 -6.755,9.822 0.05,0.688 -0.683,1.602 -1.613,2.034 -0.929,0.432 -2.271,1.683 -2.976,2.803 -1.247,1.968 -1.24,2.003 0.313,0.816 0.882,-0.672 0.407,0.32 -1.057,2.191 -3.04,3.899 -14.622,14.499 -15.206,13.907 -0.212,-0.208 1.101,-1.584 2.919,-3.043 1.818,-1.456 3.082,-2.877 2.82,-3.133 -0.263,-0.256 -2.097,1.12 -4.077,3.059 -2.92,2.866 -3.444,3.81 -2.802,5.01 0.612,1.2 0.532,1.376 -0.364,1.04 -0.635,-0.24 -1.427,0 -1.752,0.512 -0.405,0.72 -0.751,0.752 -1.117,0.16 -0.323,-0.528 -2.051,0.432 -4.383,2.422 -2.112,1.806 -3.653,3.584 -3.431,3.936 0.221,0.352 -0.144,1.104 -0.801,1.645 -0.66,0.544 -0.997,1.312 -0.752,1.72 0.244,0.4 0.05,0.72 -0.421,0.72 -1.147,0 -1.091,-1.072 0.112,-2.274 0.763,-0.752 0.758,-0.976 -0.02,-0.976 -0.549,0 -1.351,0.928 -1.786,2.083 -0.435,1.152 -1.144,1.869 -1.571,1.6 -0.428,-0.272 -4.166,2.071 -8.31,5.192 -4.144,3.12 -8.272,6.016 -9.178,6.416 -1.784,0.8 -7.165,3.428 -9.781,4.772 -0.894,0.464 -4.069,2.059 -7.061,3.547 -2.992,1.488 -5.28,2.961 -5.085,3.281 0.664,1.088 -2.132,1.552 -3.63,0.608 -1.195,-0.736 -2.053,-0.576 -4.332,0.832 -1.563,0.976 -3.426,1.754 -4.143,1.754 -0.716,0 -2.568,0.72 -4.117,1.584 -1.551,0.88 -2.924,1.264 -3.068,0.864 -0.331,-0.928 -7.979,0.704 -7.979,1.688 0,0.416 0.364,0.752 0.81,0.752 0.446,0 0.81,0.336 0.81,0.768 0,0.416 -1.114,0.304 -2.506,-0.288 -3.649,-1.536 -15.37,0.72 -15.37,2.95 0,0.496 0.546,0.592 1.216,0.336 1.408,-0.544 1.613,0.384 0.363,1.637 -1.229,1.232 -5.031,0.352 -4.498,-1.04 0.303,-0.8 -0.227,-1.04 -1.786,-1.04 -3.948,0.16 -6.29,1.152 -6.036,2.613 0.16,0.928 -0.312,1.376 -1.422,1.376 -0.914,0 -1.662,-0.4 -1.662,-0.896 0,-0.592 -2.132,-0.8 -6.565,-0.592 -5.186,0.24 -6.725,0.592 -7.35,1.712 -0.436,0.768 -1.183,1.408 -1.662,1.408 -0.549,0 -0.495,-0.448 0.16,-1.232 0.916,-1.056 -1.452,-1.216 -22.01,-1.056 -21.212,0.176 -23.162,0.304 -24.549,1.694 -1.981,1.988 -5.637,1.568 -6.656,-0.752 -0.589,-1.344 -1.623,-1.817 -4.341,-2.041 -1.96,-0.16 -3.732,0 -3.944,0.336 -0.211,0.352 -1.281,0.624 -2.372,0.624 -1.092,0 -1.976,0.368 -1.976,0.816 0,0.976 -6.249,1.024 -6.88,0 -0.257,-0.416 -0.1,-0.992 0.373,-1.28 0.939,-0.576 0.325,-2.026 -0.859,-2.026 -0.421,0 -0.77,0.944 -0.77,2.117 0,1.626 -0.312,1.997 -1.281,1.629 -0.707,-0.272 -2.532,-0.496 -4.06,-0.496 -2.545,0 -2.787,-0.208 -2.787,-2.439 0,-1.742 -0.406,-2.547 -1.422,-2.547 -1.746,-0.16 -4.531,-0.512 -8.5,-1.184 -2.621,-0.448 -3.277,-0.208 -5.051,1.811 -2.026,2.296 -2.183,2.215 -2.423,-1.344 -0.05,-0.672 -0.629,-1.296 -1.298,-1.296 -0.668,0 -2.132,-0.304 -3.249,-0.608 -1.117,-0.288 -2.843,-0.624 -3.837,-0.784 -0.995,-0.16 -2.064,-0.496 -2.372,-0.8 -0.791,-0.784 -1.919,-0.688 -1.919,0.16 0,0.384 0.821,0.96 1.827,1.248 1.685,0.496 1.604,0.624 -1.017,1.536 -2.476,0.864 -3.05,0.8 -4.44,-0.464 -0.879,-0.8 -2.043,-1.28 -2.588,-1.072 -0.546,0.208 -1.171,0 -1.389,-0.592 -0.296,-0.672 -0.584,-0.64 -1.149,0.16 -0.616,0.88 -1.014,0.832 -2.1,-0.256 -0.736,-0.736 -1.341,-1.771 -1.347,-2.299 0,-0.608 -0.253,-0.56 -0.71,0.16 -0.975,1.552 -4.151,0.4 -4.151,-1.488 0,-0.832 0.357,-1.617 0.793,-1.777 0.439,-0.16 -0.518,-1.656 -2.124,-3.357 -1.606,-1.701 -3.143,-2.869 -3.415,-2.597 -0.271,0.272 0.05,0.864 0.702,1.328 0.909,0.624 0.701,0.72 -0.877,0.384 -1.448,-0.32 -2.494,0 -3.439,1.136 -0.767,0.896 -1.896,1.376 -2.597,1.104 -1.623,-0.624 -1.576,-1.858 0.1,-2.498 1.2,-0.464 1.189,-0.624 -0.16,-1.6 -1.739,-1.264 -5.242,-1.456 -5.242,-0.272 0,0.448 0.436,0.768 0.968,0.608 0.532,-0.16 1.103,0.432 1.274,1.216 0.17,0.784 -0.06,1.424 -0.504,1.424 -1.498,0 -3.302,-2.467 -2.786,-3.811 0.401,-1.04 0.128,-1.232 -1.256,-0.864 -2.103,0.544 -5.812,-0.992 -5.821,-2.43 0,-0.544 -0.893,-1.008 -1.985,-1.008 -2.211,0 -3.469,-1.264 -1.885,-1.893 0.664,-0.272 0.06,-1.28 -1.695,-2.886 -3.056,-2.853 -6.007,-4.023 -6.449,-2.695 -0.398,1.2 -2.203,0.432 -7.656,-3.233 -2.546,-1.704 -5.041,-3.109 -5.548,-3.109 -0.587,0 -0.744,-0.832 -0.431,-2.248 0.413,-1.879 -0.03,-2.749 -2.712,-5.285 -1.761,-1.674 -3.62,-3.034 -4.134,-3.034 -0.52,0 -0.733,-0.32 -0.488,-0.72 0.245,-0.4 -0.459,-0.896 -1.571,-1.104 -1.112,-0.224 -2.026,0 -2.026,0.368 0,0.416 -0.579,0.176 -1.281,-0.528 -0.703,-0.704 -1.601,-1.28 -2.001,-1.28 -0.399,0 -1.147,-0.784 -1.662,-1.745 -0.923,-1.688 -0.899,-1.688 1.695,0.16 l 2.621,1.867 -0.661,-1.95 c -0.366,-1.072 -0.602,-2.919 -0.538,-4.119 0.06,-1.2 -0.467,-2.657 -1.19,-3.249 -1.174,-0.976 -1.21,-0.896 -0.363,0.688 1.323,2.48 1.208,2.676 -1.018,1.62 -1.214,-0.576 -2.318,-2.124 -2.902,-4.075 -0.52,-1.729 -1.128,-3.745 -1.357,-4.481 -0.318,-1.024 -0.112,-0.976 0.869,0.24 0.706,0.864 1.282,1.184 1.282,0.704 0,-0.912 -1.599,-2.469 -2.638,-2.629 h -1.803 c -0.708,0 -1.014,-0.48 -0.744,-1.184 0.25,-0.656 -0.128,-2.019 -0.835,-3.027 -1.683,-2.416 -1.656,-3.599 0.06,-2.191 1.227,1.008 1.269,0.944 0.371,-0.736 -0.542,-1.008 -1.323,-1.645 -1.728,-1.392 -0.404,0.24 -1.336,-0.48 -2.075,-1.605 -0.739,-1.12 -1.677,-1.843 -2.075,-1.603 -0.397,0.24 -0.72,0 -0.72,-0.624 0,-0.576 -0.735,-1.536 -1.629,-2.091 -0.895,-0.56 -1.621,-1.568 -1.621,-2.258 0,-0.688 -0.734,-2.68 -1.628,-4.432 -1.898,-3.769 -2.156,-5.886 -0.431,-3.604 0.656,0.864 1.202,1.136 1.216,0.608 0.03,-1.232 -1.55,-2.308 -3.63,-2.308 -0.894,-0.02 -1.534,-0.48 -1.422,-1.008 0.112,-0.528 -0.581,-2.334 -1.522,-4.009 -0.941,-1.677 -2.044,-3.923 -2.455,-5.011 -0.658,-1.728 -0.596,-1.847 0.521,-0.912 1.123,0.928 1.181,0.816 0.455,-1.104 -1.076,-2.828 -3.255,-7.028 -3.647,-7.028 -0.178,0 -0.144,0.816 0.06,1.828 0.36,1.729 0.319,1.718 -0.859,-0.208 -1.442,-2.365 -1.641,-3.565 -0.48,-2.845 0.446,0.272 0.81,0 0.81,-0.72 0,-0.672 -0.364,-1.44 -0.81,-1.72 -0.446,-0.288 -0.819,-0.16 -0.819,0.4 0,0.512 -0.407,0.656 -0.901,0.352 -0.643,-0.4 -0.606,-0.736 0.112,-1.184 0.77,-0.48 0.221,-2.767 -2.265,-9.451 -1.805,-4.852 -3.53,-10.004 -3.837,-11.46 -0.307,-1.456 -0.808,-2.646 -1.107,-2.646 -0.299,0 -0.589,-0.816 -0.637,-1.827 -0.05,-1.008 -0.509,-3.661 -1.018,-5.896 -1.876,-8.242 -2.51,-36.557 -1.521,-67.866 0.389,-12.293 0.745,-22.901 0.777,-23.573 0.03,-0.672 -0.212,-2.232 -0.553,-3.464 -0.496,-1.795 -0.379,-2.153 0.579,-1.785 0.88,0.336 1.333,-0.352 1.712,-2.629 0.283,-1.699 0.896,-4.925 1.355,-7.16 0.459,-2.235 0.817,-4.517 0.785,-5.077 -0.32,-6.037 0.66,-9.824 2.944,-11.312 1.544,-1.008 1.89,-1.901 1.794,-4.531 -0.1,-2.392 0.294,-3.59 1.43,-4.422 1.341,-0.976 1.386,-1.248 0.34,-1.903 -0.668,-0.432 -0.808,-0.784 -0.306,-0.784 0.501,0 1.16,-1.52 1.456,-3.365 0.294,-1.844 1.072,-4.116 1.728,-5.06 0.656,-0.944 1.19,-2.677 1.19,-3.861 0,-1.184 0.517,-2.589 1.141,-3.101 0.623,-0.512 0.949,-1.624 0.728,-2.472 -0.256,-0.976 0.352,-2.189 1.679,-3.341 1.353,-1.184 2.427,-3.344 3.067,-6.208 0.602,-2.689 1.555,-4.713 2.464,-5.193 0.818,-0.432 1.488,-1.488 1.488,-2.34 0,-0.848 0.37,-1.779 0.819,-2.051 0.444,-0.272 0.589,-1.392 0.314,-2.496 -0.275,-1.088 -0.144,-2.441 0.29,-3.001 0.435,-0.56 1.03,-2.01 1.323,-3.242 0.294,-1.232 1.081,-2.232 1.745,-2.232 0.662,0 1.155,-0.272 1.107,-0.608 -0.05,-0.336 -0.05,-1.662 0,-2.942 0.08,-2.016 0.265,-2.194 1.365,-1.28 1.107,0.928 1.204,0.8 0.76,-0.976 -0.336,-1.344 -0.1,-2.38 0.736,-3.068 0.688,-0.576 1.494,-2.31 1.785,-3.862 0.291,-1.552 1.061,-3.026 1.712,-3.282 0.793,-0.304 0.894,-0.64 0.297,-1.008 -0.624,-0.384 -0.507,-1.328 0.397,-3.148 0.712,-1.424 1.631,-2.391 2.043,-2.135 0.659,0.4 1.076,-0.624 0.876,-2.182 -0.03,-0.288 0.834,-1.504 1.935,-2.687 1.103,-1.184 2.001,-2.649 2.001,-3.241 0,-0.592 0.554,-1.52 1.224,-2.083 0.67,-0.56 1.216,-1.344 1.216,-1.762 0,-1.152 5.831,-7.195 6.524,-6.763 0.336,0.208 0.568,-0.24 0.504,-0.992 -0.06,-0.752 0.742,-1.805 1.786,-2.333 1.043,-0.544 2.322,-1.44 2.844,-2 0.731,-0.784 0.713,-0.896 -0.06,-0.448 -1.628,0.912 -1.132,-0.56 1.008,-2.986 1.086,-1.232 2.436,-2.193 3.001,-2.033 0.565,0.16 1.155,-0.64 1.315,-1.663 0.16,-1.024 0.716,-1.729 1.24,-1.552 0.524,0.176 1.41,-0.768 1.968,-2.075 0.717,-1.697 1.396,-2.238 2.324,-1.886 0.936,0.368 1.18,0.16 0.843,-0.72 -0.288,-0.752 -0.02,-1.232 0.72,-1.232 0.656,0 1.19,-0.496 1.19,-1.088 0,-0.592 0.906,-1.568 2.009,-2.159 1.104,-0.592 2.93,-2.404 4.06,-4.035 1.133,-1.633 3.275,-3.4 4.779,-3.944 1.499,-0.544 3.889,-2.259 5.308,-3.827 1.419,-1.552 3.163,-2.837 3.87,-2.837 0.707,0 2.787,-1.184 4.622,-2.637 1.834,-1.456 3.529,-2.644 3.77,-2.646 0.242,0 1.9,-0.912 3.688,-2.01 1.788,-1.104 3.621,-2.198 4.068,-2.438 2.583,-1.344 7.722,-5.221 7.722,-5.813 0,-0.384 0.555,-0.704 1.24,-0.704 0.685,0 1.456,-0.544 1.712,-1.216 0.256,-0.672 3.443,-2.129 7.086,-3.265 9.689,-3.016 15.093,-5.316 15.891,-6.74 0.405,-0.736 2.083,-1.36 3.936,-1.52 1.777,-0.16 4.29,-0.816 5.581,-1.488 1.291,-0.672 3.334,-1.232 4.539,-1.232 1.205,0 6.877,-1.264 12.601,-2.819 5.724,-1.552 13.151,-3.544 16.503,-4.424 3.353,-0.88 11.947,-2.509 19.1,-3.597 16.236,-2.484 17.621,-2.614 23.159,-2.198 1.565,0.16 8.429,0 15.247,-0.384 7.429,-0.352 12.394,-0.288 12.394,0.16 0,0.416 1.738,0.8 3.861,0.8 5.881,0 19.252,1.376 22.961,2.264 1.118,0.272 3.858,0.656 6.094,0.864 2.235,0.208 5.529,0.736 7.317,1.184 4.363,1.088 5.161,1.008 3.407,-0.32 -0.925,-0.704 -1.152,-1.312 -0.612,-1.646 0.472,-0.304 1.26,0.352 1.754,1.44 0.921,2.022 4.986,3.844 9.103,4.084 1.208,0.16 2.199,0.384 2.199,0.704 0,0.32 1.366,0.8 3.043,1.072 3.156,0.512 19.559,5.039 28.459,7.855 2.797,0.88 8.934,3.597 13.634,6.019 4.701,2.421 9.088,4.4 9.749,4.4 1.462,0 1.589,-1.344 0.182,-1.902 -0.6,-0.24 -0.648,-0.48 -0.128,-0.48 0.491,0 2.407,1.024 4.258,2.374 3.768,2.736 5.407,3.048 6.127,1.168 0.267,-0.688 0.896,-1.008 1.396,-0.704 0.5,0.304 1.272,0 1.712,-0.56 0.629,-0.88 0.704,-0.832 0.363,0.24 -0.245,0.768 0.1,1.568 0.778,1.818 0.84,0.32 0.984,0.88 0.496,1.894 -0.839,1.717 -0.829,3.464 0.02,3.464 h 1.422 c 0.447,0 0.819,-0.56 0.819,-1.248 0,-1.056 0.287,-1.088 1.828,-0.24 1.58,0.88 1.635,1.056 0.404,1.312 -1.601,0.336 -1.986,2.762 -0.404,2.554 2.57,-0.336 3.953,0.256 6.73,2.878 1.642,1.552 3.588,3.01 4.324,3.25 1.567,0.512 3.374,4.046 3.374,6.614 0,0.992 1.233,3.275 2.745,5.085 2.701,3.237 4.107,3.705 3.166,1.056 -0.264,-0.736 0.386,-0.24 1.447,1.104 2.22,2.813 3.238,3.645 4.531,3.645 1.169,0.02 2.158,-3.543 1.091,-3.911 -0.435,-0.16 -0.794,-0.816 -0.794,-1.472 0,-0.704 -0.36,-0.976 -0.801,-0.704 -0.456,0.272 -0.597,0 -0.339,-0.704 0.676,-1.761 -1.1,-4.595 -2.53,-4.051 -0.81,0.32 -1.189,0 -1.141,-1.04 0.03,-0.864 0.245,-1.072 0.48,-0.496 0.227,0.56 0.739,0.816 1.149,0.56 1.435,-0.88 0.726,-2.715 -1.464,-3.771 -1.216,-0.592 -2.637,-1.911 -3.151,-2.935 -0.843,-1.692 -3.906,-5.035 -4.613,-5.035 -0.16,0 -2.213,-1.861 -4.573,-4.134 -2.359,-2.275 -5.517,-4.651 -7.011,-5.275 -1.494,-0.624 -2.935,-1.488 -3.208,-1.935 -0.274,-0.448 -1.857,-1.184 -3.514,-1.629 -1.888,-0.512 -3.346,-1.536 -3.903,-2.753 -0.769,-1.712 -0.697,-1.891 0.554,-1.552 2.038,0.528 1.099,-2.808 -0.976,-3.464 -0.847,-0.272 -1.538,-0.848 -1.538,-1.28 0,-0.432 0.695,-0.384 1.703,0.16 2.239,1.2 3.09,0.256 1.092,-1.2 -0.93,-0.672 -1.912,-0.848 -2.423,-0.432 -0.965,0.8 -4.432,0.16 -4.432,-0.864 0,-0.368 -0.75,-0.448 -1.67,-0.208 -1.025,0.256 -1.504,0.88 -1.232,1.584 0.242,0.64 0.172,1.008 -0.16,0.832 -0.329,-0.176 -1.285,-0.56 -2.116,-0.864 -1.232,-0.448 -1.331,-0.768 -0.522,-1.744 0.807,-0.96 0.73,-1.296 -0.397,-1.728 -0.811,-0.304 -1.677,0 -2.075,0.576 -0.378,0.64 -0.968,0.832 -1.315,0.48 -0.348,-0.352 -0.245,-0.896 0.232,-1.2 0.476,-0.304 1.12,-1.584 1.422,-2.811 0.469,-1.912 0.235,-2.364 -1.555,-3.052 -2.687,-1.008 -2.849,-1.008 -2.605,0.224 0.112,0.544 -0.342,1.008 -1.008,1.008 -0.71,0 -1.39,-1.024 -1.637,-2.44 -0.318,-1.836 -1.217,-2.827 -3.663,-4.059 -1.784,-0.896 -3.37,-1.905 -3.514,-2.241 -0.144,-0.336 -0.782,-0.608 -1.406,-0.608 -0.624,0 -3.898,-0.928 -7.276,-2.06 -3.378,-1.136 -6.462,-1.859 -6.854,-1.619 -0.394,0.24 -0.866,0.02 -1.042,-0.512 -0.176,-0.528 -1.082,-1.088 -2.017,-1.088 -1.111,-0.16 -1.559,0.256 -1.29,0.96 0.232,0.592 -0.128,1.072 -0.819,1.072 -0.781,0 -1.09,-0.528 -0.843,-1.472 0.433,-1.651 -3.347,-3.953 -4.209,-2.561 -0.742,1.2 -2.828,0.928 -2.828,-0.368 0,-0.64 -1.155,-1.376 -2.646,-1.687 -1.452,-0.288 -4.098,-1.184 -5.886,-2.001 -1.789,-0.816 -4.814,-1.93 -6.722,-2.506 -3.064,-0.928 -3.59,-0.88 -4.474,0.32 -0.646,0.88 -1.865,1.264 -3.439,1.104 -2.907,-0.304 -7.707,-3.029 -7.715,-4.373 0,-0.944 -1.443,-1.376 -7.73,-2.333 -2.412,-0.368 -2.93,-0.272 -2.026,0.368 0.987,0.704 0.808,0.864 -0.926,0.88 -1.464,0 -2.272,-0.512 -2.564,-1.612 -0.265,-1.008 -1.142,-1.687 -2.331,-1.687 -1.048,0 -2.548,-0.176 -3.332,-0.336 -0.784,-0.16 -1.221,0 -0.968,0.464 0.253,0.4 1.333,0.736 2.397,0.736 1.064,0 2.1,0.272 2.308,0.608 0.427,0.768 -4.107,0.704 -5.97,0 -0.671,-0.256 -2.314,-0.608 -3.655,-0.784 -2.084,-0.272 -1.969,-0.352 0.811,-0.512 6.298,-0.368 -6.535,-2.462 -17.785,-2.91 -9.291,-0.368 -10.357,-0.272 -9.45,0.816 0.837,1.008 0.793,1.232 -0.215,1.232 -0.678,0 -1.419,-0.496 -1.653,-1.104 -0.269,-0.688 -1.881,-1.072 -4.358,-1.232 -2.16,0 -4.472,-0.24 -5.143,-0.24 -4.361,-0.4 -8.127,0.24 -8.127,1.36 0,0.672 -0.533,1.216 -1.183,1.216 -1.863,0 -5.319,-1.795 -5.333,-2.771 0,-0.32 -0.06,-0.48 -0.164,-0.48 z m 21.373,2.266 c 0.471,0 0.64,0.368 0.363,0.816 -0.276,0.448 -0.662,0.816 -0.859,0.816 -0.196,0 -0.363,-0.368 -0.363,-0.816 0,-0.448 0.386,-0.816 0.859,-0.816 z m 69.726,9.963 c 0.49,0 0.941,0.336 0.935,1.136 -0.02,1.152 -0.178,1.232 -0.72,0.384 v 0 c -0.493,-0.784 -0.829,-0.848 -1.141,-0.192 -0.299,0.688 -0.384,0.672 -0.256,0 0.16,-0.832 0.693,-1.264 1.182,-1.312 z m -148.216,2.613 c 0.144,0 0.144,0.208 0,0.432 -0.272,0.432 -0.835,0.8 -1.256,0.8 -1.169,0 -0.912,-0.576 0.496,-1.12 0.359,-0.16 0.624,-0.176 0.76,-0.16 z m 142.999,1.918 c 0.72,0.16 1.01,0.544 1.133,1.168 0.196,1.024 -0.272,1.408 -1.72,1.408 -2.022,0 -4.912,-2.354 -3.109,-2.53 1.826,-0.192 2.976,-0.224 3.696,0 z m -0.306,8.366 c 0.69,0.16 1.573,0.848 1.58,1.568 0,0.416 -0.343,0.768 -0.76,0.768 -0.96,0 -1.988,-1.6 -1.407,-2.174 0.144,-0.16 0.357,-0.192 0.587,-0.16 z m 62.682,8.956 c 0.232,0 0.493,0.192 0.752,0.448 0.589,0.576 0.605,1.04 0.05,1.376 -0.454,0.288 -1.074,0.16 -1.373,-0.368 -0.579,-0.944 -0.128,-1.618 0.571,-1.456 z m -239.365,0.288 c 2.035,0.784 0.23,2.254 -2.059,1.678 -1.179,-0.352 -1.876,-0.336 -1.546,0 0.332,0.336 0.192,1.088 -0.305,1.694 v 0.16 c -1.149,1.312 -4.207,1.376 -3.762,0 0.459,-1.408 6.242,-4.049 7.673,-3.505 z m -9.443,2.025 c 0.471,0 0.632,0.368 0.356,0.816 -0.277,0.448 -0.664,0.816 -0.861,0.816 -0.196,0 -0.355,-0.368 -0.355,-0.816 0,-0.448 0.387,-0.816 0.86,-0.816 z m -4.365,2.671 c 0.182,0 0.256,0.176 0.256,0.544 0,0.608 0.617,0.768 1.62,0.448 0.895,-0.32 1.629,-0.368 1.629,-0.16 v 0 c 0,0.192 -0.832,0.912 -1.844,1.568 -1.491,0.976 -2.024,1.008 -2.811,0.16 -0.758,-0.8 -0.709,-1.264 0.215,-2.026 0.452,-0.384 0.752,-0.56 0.934,-0.56 z m -29.195,5.398 c -0.276,0 -0.816,0.224 -1.431,0.56 -0.894,0.48 -1.629,1.056 -1.629,1.28 0,0.224 0.735,0 1.629,-0.464 0.895,-0.48 1.621,-1.056 1.621,-1.28 0,0 -0.06,-0.16 -0.19,-0.16 z m 302.137,0 c -0.235,0 -0.397,0.176 -0.397,0.496 0,0.48 0.364,0.864 0.81,0.864 0.446,0 0.819,-0.16 0.819,-0.352 0,-0.208 -0.373,-0.592 -0.819,-0.864 -0.16,-0.16 -0.291,-0.16 -0.413,-0.16 z m 2.373,1.688 c -0.198,0 -0.331,0.208 -0.331,0.496 0,0.48 0.365,0.864 0.811,0.864 0.446,0 0.819,-0.16 0.819,-0.352 0,-0.208 -0.373,-0.592 -0.819,-0.864 -0.18,-0.16 -0.344,-0.16 -0.48,-0.16 z m 2.729,1.344 c -0.487,0 -0.415,0.48 0.206,1.232 v 0 c 0.565,0.672 1.2,1.072 1.407,0.864 0.563,-0.576 -0.589,-2.109 -1.572,-2.109 -0.02,0 -0.03,0 -0.05,0 z m -321.188,5.928 c -0.144,0 -0.393,0.16 -0.777,0.24 -0.735,0.272 -1.34,0.832 -1.34,1.232 0,1.04 0.474,0.896 1.646,-0.512 0.563,-0.672 0.734,-0.96 0.472,-0.96 z m 27.765,0.16 c 0.264,-0.16 0.494,-0.16 0.62,0 0.25,0.256 -0.206,0.704 -1.008,1.008 -1.158,0.448 -1.251,0.352 -0.454,-0.448 0.275,-0.272 0.579,-0.48 0.843,-0.592 z m 294.043,4.011 c 0.68,-0.224 1.339,0.288 2.009,1.552 v 0 c 0.478,0.896 0.59,1.619 0.24,1.605 -1.171,0 -3.471,-2.152 -2.935,-2.696 0.232,-0.24 0.469,-0.384 0.694,-0.464 z m -8.384,1.328 c -0.315,0 -0.784,0.24 -1.199,0.656 -0.796,0.8 -0.704,0.896 0.455,0.448 0.8,-0.304 1.249,-0.752 1,-1.008 -0.06,0 -0.144,-0.16 -0.256,-0.16 z m -335.393,17.578 c 0.08,0.16 -0.144,0.512 -0.628,1.28 -1.1,1.76 -2.282,2.221 -2.282,0.896 0,-0.432 0.748,-1.168 1.662,-1.671 0.768,-0.416 1.164,-0.608 1.248,-0.496 z m -5.3,4.581 c 0.471,0 0.632,0.368 0.356,0.816 -0.277,0.448 -0.663,0.816 -0.86,0.816 -0.196,0 -0.355,-0.368 -0.355,-0.816 0,-0.448 0.386,-0.816 0.859,-0.816 z m 263.641,0.56 c -0.245,0 -0.278,2.009 -0.06,4.465 0.392,4.531 -0.395,6.387 -1.711,4.035 -0.652,-1.136 -0.828,-1.152 -1.778,0 -0.578,0.688 -0.869,2.188 -0.653,3.324 0.216,1.136 0.08,2.249 -0.313,2.489 -1.159,0.72 -0.791,3.613 0.521,4.109 0.671,0.272 1.216,0.816 1.216,1.248 0,0.432 -0.406,0.528 -0.901,0.224 -0.617,-0.384 -0.713,0 -0.305,1.376 0.8,2.608 1.171,2.891 1.976,1.6 0.536,-0.88 0.877,-0.752 1.579,0.56 0.677,1.264 0.647,1.773 -0.112,2.077 -0.555,0.24 -0.313,0.48 0.538,0.48 1.448,0 1.464,0.16 0.206,1.552 -1.675,1.857 -1.697,2.579 -0.06,2.579 0.903,0 1.127,0.464 0.76,1.621 -0.366,1.152 -0.144,1.629 0.752,1.629 1.404,0 1.753,1.328 0.463,1.761 -0.845,0.288 1.855,6.579 3.811,8.888 0.608,0.704 1.924,1.28 2.919,1.12 0.993,-0.16 1.163,0 0.381,0.176 -3.797,0.944 1.056,8.73 8.979,14.421 4.065,2.922 7.546,3.88 17.239,4.728 h -0.02 c 4.184,0.368 8.065,-0.16 12.188,-1.67 2.011,-0.736 4.168,-1.264 4.787,-1.104 0.731,0.16 0.955,-0.208 0.637,-1.04 -0.282,-0.736 -0.06,-1.296 0.496,-1.296 0.544,0 1.801,-1.264 2.794,-2.796 1.772,-2.736 1.778,-2.803 0.207,-3.299 -1.842,-0.592 -2.183,-2.835 -0.431,-2.835 0.645,0 1.426,-0.432 1.745,-0.944 0.37,-0.592 0.229,-0.704 -0.405,-0.32 -1.057,0.656 -3.467,-1.922 -2.803,-2.994 0.21,-0.352 -0.188,-0.624 -0.885,-0.624 -0.697,0 -1.265,-0.384 -1.265,-0.864 0,-0.512 -0.363,-0.624 -0.81,-0.352 -0.446,0.272 -0.819,0 -0.819,-0.416 0,-0.56 -0.709,-0.72 -1.827,-0.4 -1.275,0.352 -1.496,0.272 -0.728,-0.256 1.297,-0.896 0.646,-1.392 -2.861,-2.14 -1.416,-0.304 -2.801,-1.136 -3.076,-1.861 -0.382,-0.992 -0.723,-1.072 -1.446,-0.352 -1.402,1.392 -2.272,1.152 -1.662,-0.48 0.443,-1.184 0.322,-1.264 -0.702,-0.432 -0.676,0.496 -2.029,0.848 -3.01,0.656 -1.735,-0.336 -4.192,-2.25 -4.192,-3.258 0,-1.04 -4.483,-4.309 -4.928,-3.589 -0.256,0.416 -1.435,-0.336 -2.621,-1.67 -1.189,-1.344 -1.808,-2.63 -1.373,-2.902 1.284,-0.8 0.906,-2.02 -0.628,-2.034 -1.05,0 -1.146,-0.176 -0.373,-0.672 0.821,-0.512 0.638,-1.44 -0.819,-4.259 -1.024,-1.975 -2.32,-3.882 -2.878,-4.234 -0.558,-0.352 -1.008,-1.296 -1.008,-2.083 0,-0.784 -0.542,-2.146 -1.198,-3.01 -0.656,-0.864 -1.252,-2.304 -1.316,-3.2 -0.1,-1.376 -0.18,-1.408 -0.488,-0.224 -0.308,1.184 -0.756,0.992 -2.753,-1.2 -1.309,-1.44 -2.381,-3.259 -2.381,-4.043 0,-0.992 -0.56,-1.44 -1.86,-1.28 -1.578,0.16 -1.83,0.544 -1.588,2.631 0.25,2.16 0.168,2.286 -0.66,0.96 -1.14,-1.821 -3.837,-4.581 -4.474,-4.581 z m -141.593,0.976 c -0.172,0 -0.16,0.336 0.05,0.88 0.272,0.704 -0.03,1.737 -0.678,2.265 -0.895,0.752 -1.167,0.736 -1.167,0 0,-0.464 -0.373,-0.736 -0.819,-0.464 -0.446,0.272 -0.81,1.6 -0.81,2.943 0,1.344 -0.336,2.232 -0.744,1.976 -1.5,-0.928 -1.393,1.632 0.128,2.96 1.053,0.928 1.399,1.931 1.042,3.051 -0.565,1.792 -2.861,2.345 -2.861,0.704 0,-0.704 -0.23,-0.704 -0.942,0 -0.712,0.704 -0.661,1.264 0.206,2.323 1.051,1.264 1.002,1.28 -0.603,0.288 -0.96,-0.592 -1.574,-1.536 -1.365,-2.083 0.21,-0.544 -0.02,-1.232 -0.504,-1.536 -0.483,-0.304 -0.677,-0.88 -0.422,-1.296 0.253,-0.416 -0.144,-0.528 -0.877,-0.24 -0.968,0.368 -1.211,1.136 -0.885,2.761 0.299,1.488 -0.05,2.903 -1.025,4.151 -0.81,1.04 -1.681,2.445 -1.935,3.117 -0.325,0.864 -0.474,0.72 -0.522,-0.48 -0.03,-0.944 0.661,-2.36 1.555,-3.176 1.98,-1.789 2.083,-2.844 0.274,-2.844 -0.738,0 -1.114,0.24 -0.819,0.544 0.296,0.304 -0.211,1.072 -1.133,1.711 -0.938,0.656 -1.477,1.693 -1.224,2.349 0.251,0.688 0.1,0.96 -0.355,0.688 -0.442,-0.272 -0.802,0 -0.802,0.768 0,0.688 -0.488,1.264 -1.083,1.264 -0.595,0 -1.083,0.544 -1.083,1.216 0,0.672 0.305,1.216 0.678,1.216 0.373,0 0.679,0.528 0.679,1.184 0,1.609 -2.64,2.939 -4.068,2.059 -0.626,-0.4 -1.495,-0.496 -1.927,-0.224 -0.453,0.288 -0.563,-0.16 -0.264,-0.864 0.656,-1.728 -0.897,-1.779 -4.01,-0.16 -1.28,0.672 -2.949,1.216 -3.704,1.216 -0.755,0 -1.6,0.368 -1.877,0.816 -0.766,1.248 -3.424,0.976 -3.952,-0.4 -0.485,-1.264 -3.849,-1.675 -4.92,-0.608 -0.334,0.336 -2.684,0.624 -5.217,0.784 -2.534,0.16 -5.34,0.336 -6.234,0.544 -0.895,0.224 -2.278,0.448 -3.076,0.448 -1.195,0 -1.296,0.336 -0.579,1.686 0.48,0.896 0.601,1.621 0.273,1.621 -0.331,0 0.144,0.624 1.067,1.36 1.53,1.248 1.56,1.472 0.389,2.845 -1.342,1.568 -3.357,2.016 -3.357,0.752 0,-0.416 0.46,-0.896 1.018,-1.088 0.558,-0.192 -0.395,-0.608 -2.116,-0.928 -4.589,-0.864 -4.664,-0.432 -0.703,3.977 0.573,0.576 1.538,0.976 2.15,0.736 0.613,-0.24 1.345,0 1.629,0.4 0.283,0.416 1.004,0.64 1.604,0.416 0.737,-0.288 1.091,0.256 1.091,1.661 0,2.304 -0.979,2.765 -1.728,0.816 -0.399,-1.04 -0.682,-1.088 -1.629,-0.208 -0.795,0.736 -0.902,1.36 -0.331,2.066 0.459,0.56 0.601,1.605 0.321,2.325 -0.433,1.12 -0.702,1.152 -1.852,0.208 -1.211,-0.992 -1.292,-0.864 -0.769,1.232 0.536,2.152 2.943,5.483 2.943,4.075 0,-0.336 1.004,0.352 2.233,1.52 1.227,1.168 3.33,2.709 4.671,3.398 2.802,1.456 4.958,1.621 5.68,0.448 0.277,-0.448 1.373,-0.816 2.44,-0.816 1.065,0 2.136,-0.32 2.381,-0.72 0.245,-0.4 2.179,-0.976 4.299,-1.296 2.12,-0.32 4.855,-1.296 6.078,-2.158 1.222,-0.864 3.244,-1.717 4.489,-1.893 3.31,-0.448 13.202,-5.562 16.421,-8.475 1.53,-1.392 3.724,-2.936 4.878,-3.448 1.154,-0.512 2.79,-2.389 3.638,-4.176 0.848,-1.786 2.404,-3.999 3.456,-4.911 1.053,-0.912 1.91,-2.076 1.91,-2.588 0,-0.512 0.712,-1.676 1.58,-2.604 0.867,-0.944 1.353,-1.92 1.083,-2.192 -0.271,-0.272 -0.06,-0.496 0.454,-0.496 1.402,0 1.154,-2.408 -0.305,-2.968 -1.109,-0.432 -1.096,-0.656 0.1,-1.968 2.104,-2.326 0.801,-10.273 -2.208,-13.476 -1.982,-2.112 -3.562,-2.445 -4.291,-0.896 -0.263,0.56 -0.293,0 -0.06,-1.168 0.233,-1.216 0,-2.434 -0.538,-2.77 -0.238,-0.16 -0.401,-0.208 -0.504,-0.176 z m -7.07,7.425 c -0.288,0 -0.774,0.384 -1.216,0.912 v 0 c -0.64,0.768 -0.704,1.232 -0.164,1.232 0.983,0 2.135,-1.536 1.572,-2.099 -0.05,0 -0.112,0 -0.19,0 z m 155.939,2.464 c 0.08,0 0.174,0.224 0.298,0.544 0.254,0.672 0.813,1.456 1.24,1.728 v 0 c 0.494,0.32 0.491,0.688 0,0.992 -1.103,0.688 -1.841,-0.256 -1.761,-2.249 0.03,-0.752 0.1,-1.088 0.232,-1.024 z m 106.578,3.232 c -0.619,0 -1.168,0.752 -0.77,1.392 0.256,0.416 0.811,0.752 1.232,0.752 0.874,0 1.021,-1.104 0.248,-1.877 -0.211,-0.208 -0.469,-0.288 -0.71,-0.272 z m -96.623,2.391 c 0.227,0 0.619,0.48 1.117,1.408 v 0 c 0.517,0.96 0.805,2.116 0.645,2.596 -0.16,0.464 -0.748,-0.16 -1.306,-1.376 -0.762,-1.67 -0.832,-2.704 -0.454,-2.636 z m -281.922,4.44 v 0 c 0.274,0.272 -0.16,1.136 -0.968,1.9 -1.404,1.344 -1.427,1.312 -0.496,-0.496 0.536,-1.056 1.192,-1.684 1.464,-1.408 z m 90.215,5.059 c -1.229,0 -2.241,0.352 -2.241,0.8 0,1.024 1.668,1.024 3.258,0 0.95,-0.608 0.725,-0.8 -1.018,-0.8 z m 287.288,2.456 c -1.112,0.02 -1.112,0.176 -0.164,0.784 0.67,0.432 1.95,0.784 2.844,0.784 1.346,0 1.415,-0.16 0.405,-0.784 -0.67,-0.432 -1.95,-0.784 -2.844,-0.784 -0.08,0 -0.166,0 -0.24,0 z m -106.594,0 c 0.47,0 0.632,0.368 0.355,0.816 -0.277,0.448 -0.662,0.816 -0.859,0.816 -0.196,0 -0.363,-0.368 -0.363,-0.816 0,-0.448 0.395,-0.816 0.868,-0.816 z m 101.906,0.256 c -0.216,0 -0.355,0.192 -0.355,0.496 0,0.48 0.363,0.864 0.811,0.864 0.446,0 0.809,-0.16 0.809,-0.352 0,-0.208 -0.363,-0.592 -0.809,-0.864 -0.168,-0.16 -0.325,-0.16 -0.455,-0.16 z m -310.455,2.166 c -0.668,0 -1.207,0.384 -1.207,0.816 0,0.448 0.349,0.816 0.77,0.816 0.421,0 0.989,-0.368 1.265,-0.816 0.277,-0.448 -0.06,-0.816 -0.76,-0.816 -0.02,0 -0.05,0 -0.06,0 z m -92.191,14.213 c 0.08,-0.176 0.381,0.16 0.859,0.928 v 0 c 0.474,0.832 0.69,1.653 0.48,1.861 -0.208,0.208 -0.606,-0.224 -0.885,-0.944 -0.392,-1.024 -0.534,-1.671 -0.454,-1.853 z m -0.504,4.406 c 0.904,0.336 1.025,0.864 0.462,1.919 -0.421,0.8 -0.598,1.611 -0.389,1.819 0.21,0.208 -0.532,0.8 -1.653,1.312 -2.227,1.024 -2.411,0.832 -1.282,-1.28 0.415,-0.784 0.952,-2.051 1.191,-2.819 0.264,-0.944 0.92,-1.232 1.67,-0.944 z m 96.664,0.176 c 0.112,0 0.318,0.208 0.619,0.512 0.555,0.544 0.803,1.2 0.554,1.456 -0.25,0.24 -0.703,-0.192 -1.008,-0.992 -0.276,-0.72 -0.351,-1.04 -0.164,-0.976 z m 247.352,0.752 c 0.533,0 1.195,0.352 1.472,0.8 0.624,1.008 0.346,1.008 -1.216,0 -0.733,-0.48 -0.837,-0.8 -0.256,-0.8 z m 4.002,0.256 c 0.1,0 0.203,0 0.313,0.16 0.447,0.272 0.82,0.672 0.82,0.864 0,0.192 -0.373,0.352 -0.82,0.352 -0.446,0 -0.809,-0.384 -0.809,-0.864 0,-0.384 0.205,-0.544 0.496,-0.48 z m 74.505,1.088 c 0.212,-0.224 0.604,0.176 0.868,0.864 v 0 c 0.551,1.424 0.08,1.676 -0.72,0.384 -0.288,-0.464 -0.353,-1.024 -0.144,-1.232 z m -5.449,13.586 c -0.144,0 -0.02,0.704 0.373,2.125 0.432,1.568 0.837,3.025 0.885,3.249 v 0 c 0.05,0.224 0.28,-0.32 0.504,-1.216 0.222,-0.896 0.816,-1.929 1.323,-2.297 0.608,-0.496 0.507,-0.56 -0.298,-0.336 -0.672,0.176 -1.663,-0.256 -2.207,-0.96 -0.299,-0.384 -0.488,-0.592 -0.579,-0.576 z m -278.457,1.056 c -0.05,0 -0.1,0 -0.128,0 -0.373,0.224 -0.679,1.152 -0.679,2.051 0,0.896 -0.365,1.392 -0.809,1.12 -3.028,-1.87 -8.128,0.336 -8.128,3.506 0,2.293 -1.878,7.403 -2.563,6.987 -0.381,-0.24 -0.695,0.8 -0.695,2.282 0,1.488 -0.494,3.436 -1.099,4.316 -1.019,1.488 -1.107,6.308 -0.19,10.543 0.194,0.896 0.391,2.645 0.423,3.893 0.05,1.68 0.427,2.211 1.454,2.035 0.802,-0.16 1.518,0.368 1.687,1.184 0.164,0.784 -0.192,1.424 -0.794,1.424 -1.449,0 -3.323,3.006 -2.274,3.662 0.439,0.272 0.802,1.232 0.802,2.151 0,0.976 0.667,1.819 1.621,2.075 1.955,0.512 2.311,4.299 0.404,4.299 -0.67,0 -1.216,0.688 -1.216,1.552 0,0.848 -0.432,1.701 -0.958,1.877 -0.621,0.208 -0.699,0.736 -0.224,1.488 0.405,0.64 0.632,1.76 0.522,2.496 -0.128,0.72 0.336,1.536 1.017,1.795 0.712,0.272 1.037,1.008 0.762,1.728 -0.571,1.488 0.598,1.648 1.976,0.272 1.265,-1.264 0.894,2.722 -0.579,6.259 -1.074,2.578 -1.079,2.704 -0.661,8.715 0.269,3.88 1.397,6.466 1.397,3.208 0,-1.888 2.027,-2.448 2.712,-0.752 0.227,0.56 0.448,0.336 0.48,-0.528 0.06,-1.44 0.112,-1.44 1.695,0 0.971,0.88 1.457,2.055 1.19,2.903 -0.245,0.784 -0.206,2.369 0.08,3.521 0.29,1.152 0.709,2.084 0.935,2.084 0.225,0 0.232,-0.704 0,-1.552 -0.356,-1.36 -0.05,-1.504 2.513,-1.184 1.607,0.192 3.479,0.864 4.167,1.488 0.818,0.736 1.7,0.88 2.538,0.416 0.706,-0.384 2.712,-0.704 4.466,-0.688 1.752,0 3.736,-0.16 4.406,-0.368 0.671,-0.224 2.071,-0.656 3.109,-0.992 1.487,-0.48 1.787,-1.008 1.407,-2.522 -0.271,-1.072 -0.112,-1.918 0.347,-1.918 0.456,0 0.861,0.992 0.909,2.232 0.06,1.92 0.172,2.003 0.678,0.608 2.054,-5.631 2.892,-6.896 4.3,-6.448 1.132,0.368 1.446,0 1.446,-1.639 0,-1.152 0.338,-2.737 0.752,-3.505 2.567,-4.807 2.672,-19.143 0.144,-21.117 -1.157,-0.912 -1.128,-0.96 0.256,-0.48 1.254,0.432 1.446,0.256 1.008,-0.88 -0.301,-0.784 -0.546,-2.155 -0.546,-3.035 0,-0.896 -0.323,-1.408 -0.72,-1.168 -0.872,0.544 -1.688,-2.244 -1.703,-5.788 0,-1.424 -0.381,-2.82 -0.827,-3.092 -0.446,-0.272 -0.811,-1.552 -0.811,-2.828 0,-1.264 -0.423,-2.452 -0.935,-2.628 -0.512,-0.176 -1.012,-1.946 -1.108,-3.936 -0.268,-5.455 -1.352,-12.146 -1.968,-12.146 -0.3,0 -0.959,0.4 -1.464,0.912 -0.684,0.688 -1.055,0.16 -1.447,-2.232 -0.798,-4.786 -1.022,-5.192 -2.893,-5.192 -1.554,0 -1.7,0.384 -1.439,3.662 0.338,4.224 -0.504,4.892 -1.281,1.008 -1.253,-6.262 -1.504,-7.163 -2.109,-7.531 -0.357,-0.224 -0.551,0.8 -0.439,2.248 0.376,4.938 -1.444,6.547 -2.414,2.133 -0.576,-2.621 -7.081,-10.19 -8.524,-10.021 z m -147.109,1.52 c 0.112,0.192 -0.02,0.88 -0.281,2.19 -0.748,3.725 -2.158,5.144 -2.158,2.159 0,-1.232 0.616,-2.861 1.364,-3.613 0.637,-0.64 0.97,-0.928 1.076,-0.736 z m 303.932,2.944 c -1.483,0 -4.806,3.275 -4.886,4.811 -0.05,0.848 -0.203,0.944 -0.472,0.272 -0.576,-1.424 -4.31,-1.264 -4.771,0.208 -1.253,4 -1.269,4.032 -1.935,2.96 -0.725,-1.168 -3.341,4.139 -4.142,8.418 -0.282,1.504 -0.883,2.358 -1.571,2.198 -1.06,-0.24 -2.44,1.152 -2.472,2.48 0,0.336 0.622,0.704 1.406,0.704 1.2,0.16 1.224,0.16 0.128,0.448 -0.829,0.224 -1.67,2.031 -2.315,4.986 -0.557,2.55 -1.314,5.414 -1.687,6.374 -0.373,0.96 -0.938,4.434 -1.256,7.723 -0.317,3.292 -0.682,6.53 -0.811,7.202 -0.128,0.672 -0.258,2.077 -0.29,3.133 -0.05,1.296 -0.419,1.792 -1.281,1.456 -0.756,-0.288 -1.224,0 -1.224,0.768 0,0.64 0.318,1.04 0.71,0.8 0.392,-0.24 0.944,0.704 1.224,2.091 0.366,1.837 0.144,2.818 -0.81,3.506 -1.212,0.88 -1.211,1.168 0,3.505 0.724,1.392 1.316,3.832 1.316,5.4 0,1.907 0.481,3.117 1.446,3.629 1.323,0.704 1.424,0.352 1.24,-4.184 -0.17,-4.176 -0.03,-4.771 0.885,-3.795 2.527,2.709 4.057,11.705 1.843,10.857 -0.598,-0.224 -1.568,0.16 -2.149,0.864 -0.898,1.072 -0.85,1.2 0.297,0.752 0.952,-0.368 2.332,0.592 4.656,3.234 1.816,2.064 3.859,3.754 4.547,3.754 0.973,0 1.038,-0.24 0.313,-1.12 -1.142,-1.376 0.927,-2.439 3.292,-1.687 1.843,0.592 1.926,-0.304 0.248,-2.704 -2.349,-3.352 1.038,-2.129 5.134,1.853 2.475,2.408 3.958,3.336 4.341,2.712 0.417,-0.672 0.966,-0.56 1.935,0.416 v 0 c 0.742,0.736 2.277,1.344 3.414,1.344 1.793,0 2.021,-0.288 1.67,-2.109 -0.374,-1.96 -0.233,-2.093 1.968,-1.645 3.111,0.624 3.492,-0.512 2.324,-6.953 -1.162,-6.418 -1.224,-8.418 -0.488,-16.52 0.324,-3.576 0.726,-9.248 0.892,-12.602 0.166,-3.352 0.514,-8.833 0.77,-12.187 0.256,-3.352 0.63,-8.517 0.827,-11.475 0.196,-2.962 0.426,-5.719 0.522,-6.103 0.235,-1.008 -1.479,-4.931 -2.406,-5.507 -0.429,-0.272 -0.725,-1.773 -0.645,-3.341 0.1,-2.006 -0.172,-2.744 -0.885,-2.472 -0.561,0.224 -0.939,0 -0.827,-0.592 0.112,-0.608 -0.752,-0.96 -2.241,-0.96 -1.716,0 -2.676,0.56 -3.241,1.828 -0.441,0.976 -1.251,1.801 -1.794,1.801 -0.544,0 -1.379,0.64 -1.86,1.424 -0.658,1.072 -0.748,0.256 -0.356,-3.249 0.399,-3.554 0.277,-4.671 -0.529,-4.671 z m 126.215,6.557 c -0.1,0 -0.128,0.288 -0.144,0.752 -0.02,0.704 0.217,1.52 0.512,1.835 0.987,0.976 1.246,-0.16 0.371,-1.637 -0.399,-0.688 -0.619,-0.992 -0.744,-0.944 z m 2.182,7.184 c -0.436,0 -0.59,0.384 -0.321,0.816 0.277,0.448 0.672,0.816 0.869,0.816 0.196,0 0.355,-0.368 0.355,-0.816 0,-0.448 -0.386,-0.816 -0.861,-0.816 -0.02,0 -0.03,0 -0.05,0 z m 2.291,5.267 c -0.331,0 -0.579,0.544 -0.579,1.605 v 0 c 0,1.248 0.456,2.083 1.14,2.083 0.748,0 1,-0.576 0.72,-1.645 -0.356,-1.376 -0.881,-2.075 -1.281,-2.051 z m -300.203,4.051 c 0.08,0 0.16,0.16 0.256,0.384 v 0 c 0.235,0.576 0.205,1.28 -0.06,1.552 -0.267,0.272 -0.454,-0.224 -0.422,-1.072 0.03,-0.608 0.112,-0.912 0.232,-0.88 z m -145.818,1.072 c 0.353,0.16 0.5,0.928 0.24,2.298 -0.21,1.104 -0.898,2.192 -1.522,2.432 -1.379,0.528 -1.434,-0.384 -0.198,-3.101 0.568,-1.248 1.126,-1.768 1.48,-1.629 z m 446.624,0.512 c -0.24,0 -0.363,0.16 -0.363,0.416 0,0.464 0.573,0.848 1.274,0.848 0.899,0 1.123,0.464 0.769,1.584 -0.276,0.88 -0.128,2.975 0.324,4.672 0.9,3.368 1.528,7.786 2.158,15.181 0.224,2.629 0.76,5.442 1.19,6.242 0.435,0.8 0.56,2.033 0.29,2.737 v 0 c -0.328,0.864 -0.03,1.28 0.9,1.28 1.005,0 1.239,-0.4 0.82,-1.424 -0.32,-0.784 -0.735,-2.697 -0.919,-4.265 -0.184,-1.568 -1.15,-8.092 -2.141,-14.503 -1.405,-9.089 -2.115,-11.835 -3.233,-12.427 -0.471,-0.288 -0.826,-0.416 -1.067,-0.416 z m 30.03,2.928 c -0.176,0 -0.323,0.544 -0.323,1.216 0,0.672 0.352,1.216 0.786,1.216 0.432,0 0.581,-0.544 0.323,-1.216 -0.258,-0.672 -0.61,-1.216 -0.786,-1.216 z m -479.524,3.827 c 0.144,0 0.279,0.16 0.397,0.288 0.37,0.592 0.507,1.712 0.306,2.48 -0.514,1.962 -4.307,6.255 -4.291,4.847 0,-0.624 0.755,-2.779 1.662,-4.779 0.878,-1.914 1.481,-2.824 1.926,-2.837 z m 187.78,8.823 c 0.05,0 0.112,0.16 0.164,0.24 0.226,0.56 0.226,1.472 0,2.033 -0.226,0.544 -0.413,0.16 -0.413,-1.024 0,-0.88 0.1,-1.312 0.248,-1.248 z m 3.225,11.659 c 0.06,0 0.144,0.16 0.214,0.384 0.203,0.784 0.188,1.89 -0.03,2.432 -0.214,0.544 -0.389,-0.16 -0.373,-1.44 0,-0.832 0.08,-1.328 0.19,-1.376 z m -198.876,4.563 c 0.144,0.16 0.198,0.528 0.198,1.184 0,1.968 -0.426,2.271 -1.266,0.912 -0.301,-0.496 -0.128,-1.296 0.363,-1.787 0.333,-0.336 0.56,-0.448 0.703,-0.304 z m 196.403,1.568 c 0.292,0 0.496,0.16 0.496,0.432 0,0.448 -0.363,1.04 -0.811,1.312 -0.446,0.288 -0.809,0.16 -0.809,-0.304 0,-0.448 0.363,-1.04 0.809,-1.312 0.112,0 0.218,-0.16 0.314,-0.16 z m 268.296,1.536 c -0.08,0 -0.172,0 -0.264,0.16 -0.388,0.24 -0.297,1.757 0.198,3.373 0.858,2.795 0.916,2.835 1.167,0.768 0.286,-2.36 -0.267,-4.344 -1.099,-4.242 z m -465.675,0.672 c 0.196,0 0.363,0.368 0.363,0.816 0,0.448 -0.385,0.816 -0.859,0.816 -0.47,0 -0.64,-0.368 -0.363,-0.816 0.277,-0.448 0.662,-0.816 0.859,-0.816 z m 162.165,3.2 c 0.47,0 0.632,0.368 0.355,0.816 -0.277,0.448 -0.662,0.816 -0.859,0.816 -0.196,0 -0.355,-0.368 -0.355,-0.816 0,-0.448 0.385,-0.816 0.859,-0.816 z m -163.521,0.96 c 0.336,0.16 0.467,0.96 0.264,2.349 -0.2,1.36 -0.857,2.438 -1.488,2.438 -1.339,0 -1.435,-1.152 -0.281,-3.307 0.628,-1.168 1.168,-1.645 1.504,-1.488 z m 468.247,3.175 c -1.296,0 -1.726,5.833 -0.53,7.193 1.607,1.832 3.097,18.261 2.985,32.834 0,1.232 0.392,2.24 0.901,2.24 0.675,0 0.816,-3.44 0.521,-12.402 -0.405,-12.217 -2.695,-29.865 -3.877,-29.865 z m -471.19,6.723 c 0.53,0.224 1.096,0.896 1.24,1.869 v 0 c 0.128,0.864 -0.243,2.164 -0.819,2.9 -0.968,1.184 -1.157,1.184 -2.505,-0.16 -1.276,-1.28 -1.296,-1.504 -0.198,-1.926 0.689,-0.272 1.257,-1.072 1.257,-1.794 0,-0.912 0.495,-1.168 1.026,-0.944 z m 316.938,1.392 c 0.06,0 0.422,0.256 1.124,0.928 v 0 c 0.807,0.768 1.24,1.63 0.968,1.902 -0.272,0.272 -0.928,-0.368 -1.464,-1.408 -0.465,-0.912 -0.692,-1.36 -0.628,-1.424 z m -6.45,3.638 c -0.276,0 -0.276,0.416 0.164,1.12 0.295,0.48 0.893,0.864 1.332,0.864 0.438,0 0.328,-0.512 -0.248,-1.136 -0.544,-0.592 -1.005,-0.864 -1.248,-0.848 z m -314.54,13.733 c 0.08,-0.16 0.202,0 0.332,0.352 v 0 c 0.235,0.576 0.204,1.28 -0.06,1.552 -0.268,0.256 -0.463,-0.224 -0.431,-1.072 0.02,-0.48 0.08,-0.768 0.164,-0.848 z m 264.551,1.778 c -8.172,0 -19.85,0.56 -25.003,1.264 -8.769,1.2 -15.546,2.424 -17.884,3.224 -1.119,0.384 -3.596,1.088 -5.516,1.584 -2.504,0.64 -3.705,1.456 -4.249,2.878 -0.416,1.104 -1.407,1.992 -2.2,1.984 -1.229,0 -1.261,-0.16 -0.222,-0.8 1.069,-0.64 1.051,-0.8 -0.1,-0.8 -1.301,-0.02 -2.747,1.232 -3.283,2.837 -0.144,0.448 -0.928,0.768 -1.736,0.608 -0.81,-0.16 -1.294,0.16 -1.075,0.448 0.84,1.36 -1.021,2.845 -3.771,2.845 -2.001,0 -2.74,0.4 -2.455,1.136 0.223,0.576 0.03,1.056 -0.43,1.056 -0.458,0 -0.986,-0.464 -1.175,-1.024 -0.264,-0.752 -0.652,-0.72 -1.728,0.16 -1.108,0.912 -1.179,1.296 -0.339,1.908 0.751,0.544 0.626,0.608 -0.438,0.272 -0.883,-0.288 -2.34,0.176 -3.564,1.136 -1.131,0.896 -1.634,1.629 -1.099,1.629 0.539,0 0.744,0.384 0.462,0.832 -0.28,0.464 -0.912,0.592 -1.396,0.288 -0.49,-0.304 -0.65,-0.176 -0.373,0.272 0.277,0.448 -0.221,1.584 -1.099,2.53 -0.879,0.944 -1.596,2.014 -1.596,2.382 0,0.848 -3.242,3.669 -3.274,2.853 -0.03,-0.864 -1.307,1.504 -1.968,3.662 -0.451,1.472 -0.241,1.828 1.076,1.828 0.897,0 1.84,0.336 2.092,0.736 0.702,1.136 -0.453,3.459 -1.514,3.059 -0.517,-0.192 -0.986,0.24 -1.034,0.976 -0.05,0.736 -0.324,2.237 -0.603,3.357 -0.499,2.008 -0.489,2.017 0.455,0.208 0.526,-1.008 1.171,-1.911 1.438,-1.911 3.034,-0.496 4.961,-0.336 4.713,0.416 -0.164,0.496 -0.725,0.896 -1.248,0.896 -1.034,0 -5.011,4.296 -5.011,5.416 0,0.384 0.746,0.688 1.654,0.688 0.909,0 1.874,0.592 2.15,1.312 0.46,1.2 0.566,1.2 1.24,0 0.916,-1.68 2.615,-1.785 1.992,-0.16 -0.633,1.658 1.844,4.079 2.993,2.927 1.224,-1.232 2.167,-1.072 2.167,0.352 0.03,1.718 1.452,1.408 3.48,-0.752 2.34,-2.5 4.639,-5.588 4.639,-6.244 0,-0.288 0.957,-0.96 2.125,-1.488 1.623,-0.72 2.389,-0.736 3.266,0 0.912,0.752 1.051,0.704 0.678,-0.272 -0.484,-1.264 2.403,-2.662 12.965,-6.276 3.515,-1.2 5.096,-1.408 5.87,-0.768 0.759,0.624 2.966,0.624 7.789,0 9.413,-1.184 37.357,-1.216 43.772,0 2.875,0.544 8.148,2.062 11.724,3.39 3.576,1.328 7.216,2.53 8.087,2.53 1.863,0.16 6.953,5.451 6.953,7.251 0,1.328 4.552,3.329 5.813,2.545 0.414,-0.256 1.31,-0.02 1.984,0.544 1.021,0.848 1.306,0.72 1.703,-0.8 0.352,-1.392 0.904,-1.708 2.117,-1.392 0.903,0.24 2.863,-0.16 4.357,-0.704 3.221,-1.344 3.464,-3.1 1.008,-7.26 -1.654,-2.799 -1.07,-4.045 0.828,-1.76 1.82,2.193 3.958,2.088 4.605,-0.224 0.729,-2.605 0.453,-5.456 -0.81,-8.351 -0.321,-0.736 -0.467,-1.899 -0.323,-2.587 0.144,-0.688 -0.1,-1.344 -0.53,-1.504 -1.452,-0.48 -4.76,-3.928 -4.249,-4.44 0.278,-0.272 0.08,-1.28 -0.455,-2.224 -0.526,-0.944 -0.977,-1.901 -1.009,-2.125 -0.275,-2.235 -2.401,-3.745 -5.656,-4.001 -0.424,0 -0.329,-0.496 0.207,-1.04 0.758,-0.768 1.193,-0.768 1.951,0 0.536,0.544 1.539,0.976 2.232,0.976 1.803,0 -5.718,-6.466 -7.573,-6.466 -1.125,0 -1.407,0.384 -1.092,1.584 0.48,1.84 0.316,1.917 -1.67,0.896 -0.776,-0.4 -2.883,-1.344 -4.688,-2.075 -1.805,-0.736 -3.638,-2.143 -4.068,-3.119 -1,-2.262 -10.258,-6.169 -15.321,-6.457 -2.086,-0.16 -3.743,-0.608 -3.745,-1.12 0,-0.464 -1.012,-0.784 -2.406,-0.624 -1.324,0.16 -2.606,0 -2.853,-0.448 -0.211,-0.336 -3.853,-0.464 -8.756,-0.432 z m -30.287,5.275 c 0.622,0 1.27,0.176 1.637,0.768 0.272,0.448 0.205,0.88 -0.16,0.88 -0.361,0 -1.265,0.16 -2.017,0.32 -0.898,0.16 -1.221,-0.16 -0.935,-0.88 0.253,-0.656 0.85,-1.024 1.472,-1.088 z m -4.531,1.056 c 0.355,0 0.584,0 0.637,0 0.2,0.208 -1.636,0.944 -4.084,1.654 -4.266,1.248 -7.864,1.679 -7.864,0.96 0,-0.448 8.823,-2.435 11.311,-2.645 z m 70.272,1.344 c -0.626,0 -0.856,0.528 -0.595,1.216 0.257,0.608 0.792,0.992 1.19,0.768 1.149,-0.72 0.853,-1.976 -0.462,-1.976 -0.05,0 -0.1,0 -0.128,0 z m -84.907,2.563 c 0.284,0 0.527,0 0.661,0.208 v 0 c 0.269,0.272 -0.211,0.432 -1.067,0.432 -0.947,0 -1.136,-0.24 -0.488,-0.496 0.293,-0.16 0.611,-0.224 0.893,-0.208 z m -13.783,3.141 c -0.432,0 -0.777,0.384 -0.777,0.816 0,0.448 0.166,0.816 0.363,0.816 0.196,0 0.582,-0.368 0.859,-0.816 0.277,-0.448 0.112,-0.816 -0.363,-0.816 -0.03,0 -0.05,0 -0.08,0 z m -203.15,1.2 c 0.545,-0.336 0.718,0.8 0.488,3.265 v 0 c -0.472,5.04 -1.323,5.68 -1.323,0.992 0,-2.06 0.376,-3.977 0.835,-4.265 z m 205.317,2.057 c 0.668,0 0.996,0.368 0.72,0.816 -0.277,0.448 -1.058,0.816 -1.728,0.816 -0.669,0 -0.988,-0.368 -0.711,-0.816 0.277,-0.448 1.05,-0.816 1.72,-0.816 z m -173.344,1.536 c 0.08,-0.176 0.172,0 0.272,0.304 0.203,0.784 0.188,1.89 -0.03,2.432 -0.214,0.544 -0.387,-0.16 -0.371,-1.44 0,-0.656 0.06,-1.104 0.128,-1.296 z m 160.743,2.532 c 0.454,0 0.59,0.368 0.313,0.816 -0.276,0.448 -0.868,0.816 -1.315,0.816 -0.454,0 -0.59,-0.368 -0.313,-0.816 0.276,-0.448 0.868,-0.816 1.315,-0.816 z m 313.887,2.835 c 0.144,-0.16 0.352,-0.16 0.579,0 0.454,0.272 0.613,0.848 0.355,1.264 -0.696,1.12 -1.182,0.912 -1.182,-0.512 0,-0.384 0.1,-0.64 0.248,-0.768 z m -507.149,0.32 c 0.08,-0.176 0.18,-0.16 0.282,0.304 0.203,0.784 0.188,1.888 -0.03,2.43 -0.215,0.544 -0.389,-0.16 -0.373,-1.44 0,-0.656 0.05,-1.104 0.128,-1.296 z m 192.791,0.48 c 0.294,0 0.38,0.224 0.38,0.704 0,0.64 0.45,1.36 1.008,1.584 0.559,0.288 -0.222,0.272 -1.744,0 -1.981,-0.336 -2.607,-0.208 -2.191,0.464 v 0 c 0.318,0.528 0.398,0.944 0.174,0.944 -1.415,0 -0.978,-1.658 0.728,-2.778 0.845,-0.56 1.35,-0.832 1.645,-0.864 z m -192.832,6.574 c 0.08,-0.176 0.176,-0.16 0.29,0.16 0.225,0.56 0.225,1.472 0,2.035 -0.226,0.56 -0.413,0.16 -0.413,-1.008 0,-0.592 0.05,-0.992 0.128,-1.168 z m 32.262,7.251 c 0.447,-0.272 0.812,0.256 0.812,1.168 0,0.928 -0.364,1.671 -0.812,1.671 -0.446,0 -0.819,-0.528 -0.819,-1.168 0,-0.656 0.373,-1.408 0.819,-1.679 z m -32.204,0.464 c 0.172,0.192 0.505,5.468 0.744,11.725 0.238,6.259 0.128,12.101 -0.248,12.997 -0.661,1.568 -0.874,-0.176 -1.042,-8.533 -0.112,-5.302 0.269,-16.493 0.546,-16.189 z m 220.34,0.16 c 0.246,0 0.312,0.176 0.16,0.432 v 0 c -0.274,0.432 -1.439,0.976 -2.596,1.2 -2.483,0.48 -1.621,-0.576 1.166,-1.424 0.602,-0.176 1.035,-0.24 1.282,-0.208 z m -9.261,3.052 c 0.471,0 0.632,0.368 0.355,0.816 -0.276,0.448 -0.662,0.816 -0.859,0.816 -0.196,0 -0.355,-0.368 -0.355,-0.816 0,-0.448 0.386,-0.816 0.859,-0.816 z m 8.053,0 c -0.1,0 -0.428,0.272 -0.992,0.704 -0.782,0.608 -1.422,1.248 -1.422,1.424 0,0.656 0.674,0.24 1.736,-1.12 0.568,-0.72 0.807,-1.056 0.679,-1.024 z m 106.9,5.953 c -0.235,0 -0.396,0.176 -0.396,0.496 0,0.48 0.363,0.864 0.811,0.864 0.446,0 0.819,-0.16 0.819,-0.352 0,-0.192 -0.373,-0.592 -0.819,-0.864 -0.16,-0.16 -0.291,-0.16 -0.413,-0.16 z m 152.582,8.656 c 1.004,0 0.03,7.285 -1.174,8.741 -1.515,1.842 -2.057,1.056 -1.406,-2.035 1.036,-4.936 1.718,-6.706 2.579,-6.706 z m -478.242,10.37 c 0.358,0.56 0.705,5.414 0.785,10.773 0.08,5.36 0.02,9.74 -0.144,9.74 -0.16,0 -0.512,-1.92 -0.793,-4.267 -0.736,-6.077 -0.626,-17.462 0.144,-16.246 z m 475.307,3.406 c 0.08,0 0.144,0.224 0.19,0.464 0.16,0.768 -0.299,1.984 -1.008,2.688 -1.177,1.184 -1.201,1.056 -0.281,-1.392 0.521,-1.392 0.872,-1.966 1.099,-1.76 z m -471.644,45.011 c 0.222,-0.224 0.827,0.384 1.347,1.36 0.522,0.976 0.762,1.951 0.538,2.175 -0.223,0.224 -0.828,-0.384 -1.348,-1.36 -0.521,-0.976 -0.761,-1.951 -0.537,-2.175 z m 2.447,5.682 c 0.196,-0.192 1.318,1.726 2.489,4.282 v 0 c 2.056,4.486 2.38,6.358 0.728,4.217 -1.144,-1.472 -3.634,-8.067 -3.208,-8.499 z m 4.961,11.12 c 0.224,0 1.155,1.456 2.067,3.25 0.912,1.795 1.472,3.257 1.248,3.257 -0.224,0 -1.147,-1.472 -2.059,-3.257 -0.912,-1.796 -1.481,-3.25 -1.257,-3.25 z m 5.581,10.733 c 0.168,0 0.403,0.176 0.694,0.464 v 0 c 0.53,0.528 0.776,1.136 0.546,1.376 -0.542,0.544 -1.504,-0.416 -1.504,-1.504 0,-0.24 0.1,-0.336 0.264,-0.32 z m 419.952,1.869 c 0.446,-0.272 0.819,0 0.819,0.72 0,0.672 -0.373,1.44 -0.819,1.72 -0.447,0.272 -0.81,0 -0.81,-0.72 0,-0.672 0.363,-1.44 0.81,-1.719 z m -412.66,0.8 c 0.144,-0.16 0.348,-0.16 0.572,0 0.446,0.272 0.809,0.848 0.809,1.264 0,0.416 -0.363,0.768 -0.809,0.768 -0.447,0 -0.812,-0.56 -0.812,-1.264 0,-0.384 0.1,-0.64 0.24,-0.784 z m -4.282,2.852 c 0.433,0 0.793,0.544 0.793,1.216 0,0.672 -0.144,1.216 -0.323,1.216 -0.176,0 -0.528,-0.544 -0.786,-1.216 -0.257,-0.672 -0.112,-1.216 0.314,-1.216 z m 38.943,2.431 c 0.474,0 0.859,0.368 0.859,0.816 0,0.448 -0.16,0.816 -0.355,0.816 -0.196,0 -0.582,-0.368 -0.859,-0.816 -0.277,-0.448 -0.112,-0.816 0.355,-0.816 z m 8.442,3.365 c -0.128,0 -0.05,0.336 0.206,0.976 0.304,0.8 0.759,1.264 1.008,1.008 0.25,-0.256 0,-0.912 -0.553,-1.456 -0.351,-0.352 -0.567,-0.544 -0.661,-0.528 z m -34.007,6.11 c 0.326,-0.02 0.91,0.512 1.488,1.392 0.764,1.184 1.072,2.134 0.67,2.134 -1.123,0 -2.746,-2.268 -2.39,-3.34 0.05,-0.16 0.128,-0.192 0.232,-0.192 z m 39.059,2.158 c -0.08,0 -0.144,0 -0.207,0.16 -0.196,0.192 0.1,1.216 0.661,2.258 0.642,1.184 1.146,1.504 1.365,0.848 0.323,-0.976 -1.078,-3.264 -1.819,-3.208 z m -36.207,3.002 c 0.05,0 0.373,0.208 1.018,0.704 0.782,0.624 1.422,1.264 1.422,1.424 0,0.672 -0.665,0.24 -1.728,-1.12 -0.505,-0.64 -0.753,-0.976 -0.71,-1.024 z m 32.064,1.621 c 0.698,0 1.266,0.368 1.266,0.816 0,0.448 -0.349,0.816 -0.77,0.816 -0.42,0 -0.988,-0.368 -1.265,-0.816 -0.277,-0.448 0.06,-0.816 0.769,-0.816 z m 348.027,2.67 c -0.499,0 -1.488,1.072 -2.233,2.488 -0.925,1.77 -0.928,1.765 0.802,0.224 0.958,-0.848 1.744,-1.881 1.744,-2.281 0,-0.32 -0.112,-0.448 -0.313,-0.432 z m -375.163,0.576 c 0.47,0 0.632,0.368 0.355,0.816 -0.277,0.448 -0.664,0.816 -0.861,0.816 -0.196,0 -0.355,-0.368 -0.355,-0.816 0,-0.448 0.387,-0.816 0.861,-0.816 z m 30.808,0.848 c 0.424,0.16 0.92,0.624 1.182,1.296 0.282,0.736 0.398,1.44 0.24,1.605 -0.387,0.384 -2.208,-1.52 -2.208,-2.299 0,-0.592 0.36,-0.752 0.786,-0.608 z m 340.287,2.752 c -0.255,0 -0.595,0.432 -0.843,1.072 -0.442,1.152 -0.349,1.248 0.454,0.448 0.555,-0.544 0.803,-1.2 0.554,-1.456 -0.05,0 -0.112,0 -0.164,0 z m -338.005,1.28 c 0.452,0 1.04,0.544 1.297,1.216 0.251,0.672 0.343,1.216 0.182,1.216 -0.16,0 -0.733,-0.544 -1.289,-1.216 -0.584,-0.704 -0.666,-1.216 -0.19,-1.216 z m -29.121,1.613 c 0.421,0 0.989,0.368 1.265,0.816 0.277,0.448 -0.06,0.816 -0.76,0.816 -0.697,0 -1.273,-0.368 -1.273,-0.816 0,-0.448 0.349,-0.816 0.769,-0.816 z m -4.713,2.067 c 0.194,-0.192 0.802,0.352 1.347,1.232 v 0 c 0.551,0.864 0.851,1.584 0.679,1.584 -0.599,0 -2.367,-2.475 -2.018,-2.827 z m 6.292,0.848 c 0.406,-0.256 0.942,0.16 1.198,0.752 v 0 c 0.256,0.672 0.128,1.216 -0.273,1.216 -1.103,0 -1.787,-1.44 -0.935,-1.968 z m 2.001,2.861 c 0.534,0.16 1.715,1.536 2.588,3.226 0.678,1.312 1.102,2.388 0.958,2.388 -0.408,0 -3.828,-4.739 -3.828,-5.299 0,-0.272 0.1,-0.368 0.282,-0.32 z m -3.795,4.845 c -0.402,0 0.08,0.944 1.091,2.025 1.05,1.12 2.031,2.036 2.191,2.036 0.16,0 -0.317,-0.912 -1.05,-2.036 -0.731,-1.12 -1.717,-2.025 -2.19,-2.025 -0.02,0 -0.03,0 -0.05,0 z m 9.384,1.408 c 0.645,0 1.61,0.704 3.068,2.208 2.796,2.891 2.556,3.821 -0.405,1.552 -0.895,-0.688 -2.174,-1.584 -2.844,-1.96 -0.856,-0.496 -0.963,-0.96 -0.363,-1.568 0.144,-0.16 0.331,-0.224 0.545,-0.224 z m 29.642,0.176 c 0.477,0 1.32,0.544 1.877,1.216 v 0 c 1.265,1.552 0.864,1.536 -1.175,0 -0.868,-0.656 -1.18,-1.2 -0.702,-1.2 z m 312.836,0.384 c 0.239,0 0.405,0.24 0.562,0.64 0.229,0.624 -0.219,1.168 -1.125,1.168 -1.833,0.16 -1.904,-0.16 -0.413,-1.328 0.428,-0.336 0.738,-0.512 0.976,-0.48 z m -3.158,2.406 c 0.28,0.16 0.314,0.512 -0.128,1.216 -0.294,0.48 -0.922,0.864 -1.397,0.864 -0.539,0 -0.485,-0.464 0.16,-1.232 0.555,-0.672 1.085,-0.944 1.365,-0.848 z m -297.259,2.539 c -0.375,0 -0.421,2.293 -0.03,3.447 v 0 c 0.03,0 0.397,0.208 0.801,0.208 0.812,0 0.226,-3.079 -0.694,-3.639 -0.03,0 -0.06,0 -0.08,0 z m -8.798,3.042 c 0.06,0 0.547,0.176 1.506,0.64 1.118,0.528 2.187,1.104 2.373,1.264 1.115,0.992 -1.533,0.16 -2.828,-0.96 -0.744,-0.592 -1.11,-0.896 -1.049,-0.944 z m -19.124,4.309 c 0.168,0 0.441,0.16 0.851,0.448 0.595,0.496 1.083,1.024 1.083,1.2 0,0.16 -0.488,0.304 -1.083,0.304 -0.595,0 -1.083,-0.544 -1.083,-1.2 0,-0.448 0.06,-0.704 0.232,-0.752 z m -0.927,3.728 c 0.256,-0.256 1.074,0.16 1.82,0.896 0.745,0.752 1.14,1.568 0.884,1.819 -0.256,0.256 -1.073,-0.16 -1.819,-0.896 -0.745,-0.752 -1.141,-1.568 -0.885,-1.819 z m 33.503,0.88 c 0.807,-0.272 6.747,2.833 6.747,3.521 0,0.448 0.02,0.448 -4.002,-1.488 -1.976,-0.944 -3.212,-1.865 -2.745,-2.025 z m 23.474,6.317 c -0.196,0 -0.583,0.368 -0.859,0.816 -0.277,0.448 -0.112,0.816 0.355,0.816 0.473,0 0.861,-0.368 0.861,-0.816 0,-0.448 -0.16,-0.816 -0.356,-0.816 z m -30.303,4.324 c 0.144,0 0.347,0 0.57,0.16 0.446,0.272 0.819,0.672 0.819,0.864 0,0.192 -0.373,0.352 -0.819,0.352 -0.447,0 -0.81,-0.384 -0.81,-0.864 0,-0.256 0.1,-0.4 0.24,-0.464 z m 53.735,5.448 c -0.176,0 -0.313,0.544 -0.313,1.216 0,0.672 0.352,1.216 0.785,1.216 0.432,0 0.581,-0.544 0.323,-1.216 -0.257,-0.672 -0.617,-1.216 -0.793,-1.216 z m 8.921,3.391 c -0.262,0 -0.536,0.02 -0.801,0 l -2.34,0.32 2.034,0.912 c 1.117,0.496 2.751,0.96 3.63,0.96 1.454,0 1.475,0 0.305,-1.232 -0.632,-0.624 -1.689,-0.992 -2.827,-1.008 z m -10.88,2.249 c 0.446,0 0.819,0.368 0.819,0.816 0,0.448 -0.373,0.816 -0.819,0.816 -0.447,0 -0.81,-0.368 -0.81,-0.816 0,-0.448 0.363,-0.816 0.81,-0.816 z m -30.494,0.944 c 0.304,-0.16 1.127,0.16 2.398,0.608 0.907,0.352 1.222,0.832 0.736,1.136 -0.464,0.288 -1.541,0 -2.389,-0.64 -0.831,-0.64 -1.048,-1.008 -0.744,-1.104 z m 34.826,0.848 c 0.168,0 0.403,0.176 0.694,0.464 v 0 c 0.53,0.528 0.776,1.152 0.546,1.376 -0.542,0.544 -1.506,-0.416 -1.506,-1.504 0,-0.24 0.1,-0.336 0.264,-0.32 z m 16.412,1.04 c 0.144,0 0.391,-0.02 0.752,0.16 0.693,0.256 1.266,0.624 1.266,0.8 0,0.656 -1.549,0.288 -2.026,-0.48 -0.144,-0.24 -0.128,-0.384 0,-0.448 z m -7.152,2.1 c 0.389,0 1.056,0.256 1.852,0.768 v 0 c 1.047,0.64 1.02,0.8 -0.164,0.8 -0.755,0 -1.6,-0.352 -1.876,-0.8 -0.319,-0.512 -0.207,-0.768 0.182,-0.768 z m -30.096,2.406 c 0.979,0 2.005,0.352 2.282,0.8 0.64,1.04 -1.243,1.04 -2.844,0 -0.99,-0.64 -0.886,-0.784 0.562,-0.8 z m 42.516,1.2 c 0.596,0 1.236,0.464 1.422,1.024 0.202,0.592 -0.374,1.008 -1.422,1.008 -1.048,0 -1.624,-0.4 -1.423,-1.008 0.186,-0.56 0.826,-1.024 1.423,-1.024 z m -27.898,4.67 c 0.567,-0.16 1.586,0.176 2.911,0.832 l 2.637,1.36 h -2.596 c -1.427,0 -2.831,-0.336 -3.125,-0.816 -0.498,-0.8 -0.392,-1.28 0.174,-1.376 z" />
  </g>
</svg>
